<svg width="178" height="166" viewBox="0 0 178 166" fill="none" xmlns="http://www.w3.org/2000/svg">
<path d="M10.5117 137.592C7.61719 136.76 5.50781 135.74 4.18359 134.533C2.87109 133.314 2.21484 131.814 2.21484 130.033C2.21484 128.018 3.01758 126.354 4.62305 125.041C6.24023 123.717 8.33789 123.055 10.916 123.055C12.6738 123.055 14.2383 123.395 15.6094 124.074C16.9922 124.754 18.0586 125.691 18.8086 126.887C19.5703 128.082 19.9512 129.389 19.9512 130.807H16.5586C16.5586 129.26 16.0664 128.047 15.082 127.168C14.0977 126.277 12.709 125.832 10.916 125.832C9.25195 125.832 7.95117 126.201 7.01367 126.939C6.08789 127.666 5.625 128.68 5.625 129.98C5.625 131.023 6.06445 131.908 6.94336 132.635C7.83398 133.35 9.33984 134.006 11.4609 134.604C13.5938 135.201 15.2578 135.863 16.4531 136.59C17.6602 137.305 18.5508 138.143 19.125 139.104C19.7109 140.064 20.0039 141.195 20.0039 142.496C20.0039 144.57 19.1953 146.234 17.5781 147.488C15.9609 148.73 13.7988 149.352 11.0918 149.352C9.33398 149.352 7.69336 149.018 6.16992 148.35C4.64648 147.67 3.46875 146.744 2.63672 145.572C1.81641 144.4 1.40625 143.07 1.40625 141.582H4.79883C4.79883 143.129 5.36719 144.354 6.50391 145.256C7.65234 146.146 9.18164 146.592 11.0918 146.592C12.873 146.592 14.2383 146.229 15.1875 145.502C16.1367 144.775 16.6113 143.785 16.6113 142.531C16.6113 141.277 16.1719 140.311 15.293 139.631C14.4141 138.939 12.8203 138.26 10.5117 137.592ZM28.0807 138.98V149H24.7057V123.406H34.1452C36.9459 123.406 39.1373 124.121 40.7194 125.551C42.3131 126.98 43.11 128.873 43.11 131.229C43.11 133.713 42.3307 135.629 40.7721 136.977C39.2252 138.312 37.0045 138.98 34.11 138.98H28.0807ZM28.0807 136.221H34.1452C35.9498 136.221 37.3327 135.799 38.2936 134.955C39.2545 134.1 39.735 132.869 39.735 131.264C39.735 129.74 39.2545 128.521 38.2936 127.607C37.3327 126.693 36.0143 126.219 34.3385 126.184H28.0807V136.221ZM62.2434 137.17H51.1516V146.24H64.0364V149H47.7766V123.406H63.8606V126.184H51.1516V134.41H62.2434V137.17ZM82.7304 142.32H72.0077L69.5995 149H66.1191L75.8925 123.406H78.8456L88.6366 149H85.1738L82.7304 142.32ZM73.0273 139.543H81.7284L77.3691 127.572L73.0273 139.543ZM98.9459 137.1L95.817 140.352V149H92.442V123.406H95.817V136.062L107.19 123.406H111.268L101.196 134.709L112.059 149H108.016L98.9459 137.1ZM129.839 137.17H118.747V146.24H131.632V149H115.372V123.406H131.456V126.184H118.747V134.41H129.839V137.17ZM145.58 138.646H139.568V149H136.176V123.406H144.648C147.531 123.406 149.746 124.062 151.293 125.375C152.851 126.688 153.631 128.598 153.631 131.105C153.631 132.699 153.197 134.088 152.33 135.271C151.474 136.455 150.279 137.34 148.744 137.926L154.756 148.789V149H151.135L145.58 138.646ZM139.568 135.887H144.754C146.43 135.887 147.76 135.453 148.744 134.586C149.74 133.719 150.238 132.559 150.238 131.105C150.238 129.523 149.764 128.311 148.814 127.467C147.877 126.623 146.517 126.195 144.736 126.184H139.568V135.887ZM166.278 137.592C163.383 136.76 161.274 135.74 159.95 134.533C158.637 133.314 157.981 131.814 157.981 130.033C157.981 128.018 158.784 126.354 160.389 125.041C162.006 123.717 164.104 123.055 166.682 123.055C168.44 123.055 170.004 123.395 171.375 124.074C172.758 124.754 173.825 125.691 174.575 126.887C175.336 128.082 175.717 129.389 175.717 130.807H172.325C172.325 129.26 171.833 128.047 170.848 127.168C169.864 126.277 168.475 125.832 166.682 125.832C165.018 125.832 163.717 126.201 162.78 126.939C161.854 127.666 161.391 128.68 161.391 129.98C161.391 131.023 161.831 131.908 162.709 132.635C163.6 133.35 165.106 134.006 167.227 134.604C169.36 135.201 171.024 135.863 172.219 136.59C173.426 137.305 174.317 138.143 174.891 139.104C175.477 140.064 175.77 141.195 175.77 142.496C175.77 144.57 174.961 146.234 173.344 147.488C171.727 148.73 169.565 149.352 166.858 149.352C165.1 149.352 163.459 149.018 161.936 148.35C160.413 147.67 159.235 146.744 158.403 145.572C157.583 144.4 157.172 143.07 157.172 141.582H160.565C160.565 143.129 161.133 144.354 162.27 145.256C163.418 146.146 164.948 146.592 166.858 146.592C168.639 146.592 170.004 146.229 170.954 145.502C171.903 144.775 172.377 143.785 172.377 142.531C172.377 141.277 171.938 140.311 171.059 139.631C170.18 138.939 168.586 138.26 166.278 137.592Z" fill="#EBEBF5"/>
<path d="M35.2012 76H36.2012V75V3.90625V2.90625H35.2012H33.6875H33.5195L33.3606 2.96118L2.15947 13.7522L1.48633 13.985V14.6973V27.1973V28.5312L2.76677 28.1571L17.6973 23.7949V75V76H18.6973H35.2012ZM63.1177 10.1029L63.1153 10.1058C58.6192 15.5556 56.4414 23.2201 56.4414 32.959V45.9473C56.4414 55.625 58.6373 63.2718 63.1646 68.7521C67.7161 74.2619 74.1409 76.9766 82.2949 76.9766C90.3838 76.9766 96.7594 74.2781 101.278 68.8019C105.808 63.352 108.002 55.6868 108.002 45.9473V33.0078C108.002 23.2985 105.806 15.635 101.279 10.1541C96.7281 4.64538 90.3202 1.92969 82.1973 1.92969C74.0765 1.92969 67.6692 4.62752 63.1177 10.1029ZM87.6597 19.8989L87.6623 19.9036C88.8805 22.1914 89.5469 25.8009 89.5469 30.8594V48.4347C89.5143 53.495 88.8318 57.0459 87.6226 59.23C87.0309 60.2824 86.3017 61.0316 85.4465 61.5232C84.5891 62.016 83.5505 62.2812 82.2949 62.2812C80.989 62.2812 79.9148 62.0072 79.0349 61.4995C78.1576 60.9934 77.4174 60.2229 76.8258 59.1414C75.6136 56.8923 74.9453 53.2099 74.9453 47.9492V29.7954C75.0426 25.1044 75.7199 21.7533 76.8728 19.6216C77.4459 18.5917 78.1636 17.8572 79.0161 17.3738C79.8728 16.8882 80.9209 16.625 82.1973 16.625C83.4965 16.625 84.5653 16.9083 85.4425 17.4346C86.3193 17.9607 87.0636 18.7648 87.6597 19.8989ZM173.129 34.668V33.668H172.129H156.479V16.1133V15.1133H155.479H140.098H139.098V16.1133V33.668H123.398H122.398V34.668V48.7793V49.7793H123.398H139.098V67.8711V68.8711H140.098H155.479H156.479V67.8711V49.7793H172.129H173.129V48.7793V34.668Z" stroke="url(#paint0_linear)" stroke-width="2"/>
<defs>
<linearGradient id="paint0_linear" x1="13" y1="3" x2="146" y2="121.5" gradientUnits="userSpaceOnUse">
<stop stop-color="#00D09C"/>
<stop offset="1" stop-color="#5367FC"/>
</linearGradient>
</defs>
</svg>
