<svg width="280" height="55" viewBox="0 0 280 55" fill="none" xmlns="http://www.w3.org/2000/svg">
<path d="M183.099 41H204.681V40.0894H184.738L198.124 27.1582C203.406 22.0587 204.226 19.5089 204.226 16.7769V16.6859C204.226 12.3148 200.446 8.67223 194.846 8.67223C189.701 8.67223 186.149 11.5407 184.009 15.502L184.874 16.0029C186.878 12.3148 190.156 9.58287 194.8 9.58287C199.763 9.58287 203.224 12.9067 203.224 16.7769C203.224 19.0991 202.45 21.6944 197.532 26.4297L183.099 40.4081V41ZM223.275 41.5464C231.562 41.5464 236.298 33.8059 236.298 25.1093V25.0182C236.298 16.2761 231.562 8.58117 223.275 8.58117C214.989 8.58117 210.253 16.3216 210.253 25.0182V25.1093C210.253 33.8515 214.989 41.5464 223.275 41.5464ZM223.321 40.6357C215.626 40.6357 211.255 33.1685 211.255 25.0638V24.9727C211.255 16.8225 215.535 9.49181 223.23 9.49181C230.925 9.49181 235.296 16.9591 235.296 25.0638V25.1548C235.296 33.3051 231.016 40.6357 223.321 40.6357ZM240.814 41H262.396V40.0894H242.453L255.84 27.1582C261.121 22.0587 261.941 19.5089 261.941 16.7769V16.6859C261.941 12.3148 258.162 8.67223 252.561 8.67223C247.416 8.67223 243.865 11.5407 241.725 15.502L242.59 16.0029C244.593 12.3148 247.872 9.58287 252.516 9.58287C257.479 9.58287 260.939 12.9067 260.939 16.7769C260.939 19.0991 260.165 21.6944 255.248 26.4297L240.814 40.4081V41ZM272.704 41H273.66V8.89989H272.841L266.329 11.8595L266.739 12.7246L272.704 10.0382V41Z" fill="white"/>
<path d="M9.35034 18.1856H0V9.20117H29.3519V18.1856H20.0016V40.9923H9.35034V18.1856Z" fill="white"/>
<path d="M31.752 9.20117H42.4032V20.4216H52.1194V9.20117H62.7707V41.033H52.1194V29.6093H42.4032V41.033H31.752V9.20117Z" fill="white"/>
<path d="M66.3887 9.20117H81.9184C87.5692 9.20117 91.1467 10.624 93.3827 12.8193C95.2934 14.7301 96.3097 17.088 96.3097 20.3809V20.4622C96.3097 25.0967 93.9112 28.3084 90.0491 30.1784L97.448 40.9923H85.3333L79.3165 31.8859H77.0399V40.9923H66.3887V9.20117ZM81.6338 24.3243C84.195 24.3243 85.7398 23.186 85.7398 21.2346V21.1533C85.7398 19.1207 84.1543 18.1043 81.7151 18.1043H77.0806V24.3243H81.6338Z" fill="white"/>
<path d="M98.9922 9.20117H109.643V41.033H98.9922V9.20117Z" fill="white"/>
<path d="M148.344 9.20117H175.46V17.9417H158.792V21.1533H174.321V28.8369H158.792V32.2924H175.704V41.033H148.344V9.20117Z" fill="white"/>
<g clip-path="url(#clip0)">
<path d="M129.433 22.9025L129.412 22.8833C129.467 22.9344 129.517 22.9907 129.568 23.0443C129.522 22.9983 129.48 22.9485 129.433 22.9025Z" fill="#5367FC"/>
<path d="M137.54 10.0991C139.005 11.7857 139.954 13.8582 140.273 16.0692C140.592 18.2802 140.268 20.5364 139.34 22.5685C138.413 24.6006 136.92 26.3228 135.04 27.5296C133.16 28.7364 130.972 29.3768 128.738 29.3745V41.0327H132.92L144.458 22.1638C143.144 17.6495 140.772 13.5137 137.54 10.0991Z" fill="#5367FC"/>
<path d="M129.57 23.0444C129.629 23.1045 129.687 23.1722 129.744 23.2272C129.689 23.1633 129.633 23.1058 129.57 23.0444Z" fill="white"/>
<path d="M137.54 10.0988C137.398 9.94633 137.254 9.79595 137.109 9.6477C136.982 9.5135 136.854 9.37292 136.726 9.24512C137.244 10.162 137.601 11.161 137.78 12.1987C137.879 12.7243 137.931 13.2576 137.936 13.7924C137.936 14.9998 137.698 16.1952 137.235 17.3105C136.773 18.4258 136.095 19.4391 135.241 20.2924C134.387 21.1458 133.373 21.8225 132.257 22.2839C131.141 22.7452 129.946 22.9823 128.738 22.9814V29.3716C130.972 29.3736 133.159 28.733 135.038 27.5264C136.918 26.3197 138.41 24.5978 139.338 22.5662C140.266 20.5346 140.59 18.279 140.271 16.0684C139.952 13.8578 139.004 11.7855 137.54 10.0988Z" fill="#5F82FF"/>
<path d="M128.737 29.3747C126.054 29.3777 123.452 28.4504 121.375 26.7509L121.257 26.6525C121.001 26.4378 120.754 26.212 120.515 25.9752L120.494 25.9573C120.061 25.5206 119.663 25.0505 119.303 24.5514C119.153 24.347 119.011 24.1378 118.877 23.9239C118.586 23.4616 118.326 22.9794 118.102 22.481C118.036 22.3341 117.974 22.1871 117.915 22.0388C117.75 21.6307 117.608 21.2134 117.491 20.7889C117.427 20.5512 117.363 20.3122 117.317 20.0681C117.238 19.6879 117.179 19.304 117.139 18.9179C117.099 18.5217 117.079 18.1237 117.079 17.7255C117.076 14.7231 118.238 11.8367 120.32 9.67383C116.922 13.069 114.438 17.2691 113.099 21.8829L113.018 22.1641L124.554 41.033H128.737V29.3747Z" fill="#67F9C8"/>
<path d="M119.543 13.789C119.548 13.2545 119.601 12.7217 119.7 12.1965C119.879 11.1583 120.236 10.1586 120.754 9.2417C120.664 9.32733 120.577 9.41551 120.489 9.5037C120.46 9.53309 120.431 9.56121 120.403 9.58932L120.321 9.6724C118.239 11.8353 117.077 14.7217 117.08 17.724C117.08 18.1222 117.1 18.5202 117.14 18.9164C117.18 19.3026 117.239 19.6865 117.318 20.0667C117.368 20.3108 117.428 20.5498 117.492 20.7875C117.608 21.2149 117.749 21.6352 117.915 22.0463C117.973 22.1946 118.042 22.3416 118.101 22.4885C118.326 22.9896 118.585 23.4743 118.877 23.9391C119.011 24.153 119.153 24.3621 119.303 24.5666C119.662 25.0657 120.06 25.5358 120.494 25.9725L120.514 25.9904C120.752 26.2272 120.999 26.453 121.257 26.6677L121.374 26.7661C123.452 28.464 126.053 29.3898 128.736 29.3861V22.9959C127.527 22.9959 126.331 22.7577 125.215 22.2948C124.098 21.8319 123.084 21.1535 122.23 20.2984C121.377 19.4433 120.7 18.4282 120.239 17.3112C119.777 16.1943 119.541 14.9974 119.543 13.789Z" fill="#00D09C"/>
</g>
<defs>
<clipPath id="clip0">
<rect width="31.4371" height="31.7911" fill="white" transform="translate(113.018 9.2417)"/>
</clipPath>
</defs>
</svg>
