<svg xmlns="http://www.w3.org/2000/svg" fill="none" viewBox="0 0 441 50" height="50" width="441">
  <path fill="#EBEBF5" d="M185.354 14.1875H171V0.39502H216.06V14.1875H201.706V49.1993H185.354V14.1875Z"></path>
  <path fill="#EBEBF5" d="M219.742 0.39502H236.094V17.6201H251.009V0.39502H267.361V49.2617H251.009V31.7246H236.094V49.2617H219.742V0.39502Z"></path>
  <path fill="#EBEBF5" d="M272.916 0.39502H296.756C305.431 0.39502 310.923 2.57936 314.356 5.94948C317.289 8.88273 318.849 12.5025 318.849 17.5577V17.6825C318.849 24.7972 315.167 29.7275 309.238 32.5984L320.597 49.1993H301.999L292.762 35.2196H289.267V49.1993H272.916V0.39502ZM296.32 23.6114C300.251 23.6114 302.623 21.8639 302.623 18.8683V18.7434C302.623 15.623 300.189 14.0627 296.444 14.0627H289.33V23.6114H296.32Z"></path>
  <path fill="#EBEBF5" d="M322.969 0.39502H339.32V49.2617H322.969V0.39502Z"></path>
  <path fill="#EBEBF5" d="M398.732 0.39502H440.36V13.8131H414.772V18.7434H438.612V30.5389H414.772V35.8437H440.734V49.2617H398.732V0.39502Z"></path>
  <g clip-path="url(#clip0)">
    <path fill="#5367FC" d="M369.699 21.4288L369.668 21.3994C369.752 21.4779 369.829 21.5642 369.907 21.6466C369.837 21.576 369.772 21.4995 369.699 21.4288Z"></path>
    <path fill="#5367FC" d="M382.143 1.77344C384.392 4.36267 385.848 7.54424 386.338 10.9385C386.828 14.3327 386.331 17.7963 384.907 20.9159C383.482 24.0355 381.19 26.6793 378.304 28.532C375.418 30.3846 372.06 31.3677 368.631 31.3641V49.2613H375.05L392.763 20.2946C390.746 13.3645 387.105 7.01529 382.143 1.77344Z"></path>
    <path fill="white" d="M369.908 21.6465C369.998 21.7387 370.087 21.8427 370.175 21.927C370.091 21.8289 370.004 21.7407 369.908 21.6465Z"></path>
    <path fill="#5F82FF" d="M382.143 1.77301C381.925 1.53888 381.704 1.30802 381.482 1.08043C381.286 0.874419 381.089 0.658601 380.893 0.462402C381.689 1.86988 382.236 3.40359 382.512 4.99654C382.663 5.80345 382.744 6.62215 382.751 7.44314C382.751 9.29666 382.385 11.1319 381.675 12.8441C380.965 14.5562 379.925 16.1118 378.613 17.4218C377.302 18.7318 375.746 19.7706 374.033 20.4789C372.32 21.1872 370.484 21.5511 368.631 21.5498V31.3597C372.06 31.3627 375.417 30.3793 378.302 28.5269C381.187 26.6745 383.479 24.0312 384.903 20.9124C386.327 17.7935 386.825 14.3308 386.335 10.9371C385.846 7.54354 384.391 4.36234 382.143 1.77301Z"></path>
    <path fill="#67F9C8" d="M368.63 31.3641C364.51 31.3685 360.516 29.9451 357.327 27.3361L357.147 27.1851C356.755 26.8554 356.375 26.5088 356.007 26.1452L355.976 26.1177C355.311 25.4473 354.699 24.7257 354.147 23.9596C353.917 23.6456 353.699 23.3245 353.494 22.9962C353.046 22.2865 352.648 21.5463 352.303 20.7811C352.203 20.5555 352.107 20.3299 352.016 20.1023C351.763 19.4757 351.545 18.8351 351.365 18.1835C351.267 17.8186 351.169 17.4517 351.098 17.0769C350.978 16.4933 350.887 15.904 350.825 15.3111C350.764 14.7029 350.733 14.0919 350.733 13.4806C350.728 8.87156 352.512 4.44046 355.709 1.12012C350.491 6.3322 346.678 12.78 344.624 19.8629L344.498 20.2946L362.209 49.2613H368.63V31.3641Z"></path>
    <path fill="#00D09C" d="M354.515 7.43777C354.523 6.61737 354.604 5.79932 354.756 4.99314C355.031 3.39923 355.579 1.86468 356.375 0.457031C356.236 0.588484 356.102 0.723861 355.967 0.859238C355.924 0.904363 355.879 0.947527 355.836 0.990691L355.71 1.11822C352.513 4.43856 350.73 8.86967 350.734 13.4787C350.734 14.09 350.765 14.701 350.827 15.3092C350.888 15.9021 350.979 16.4914 351.099 17.075C351.176 17.4498 351.268 17.8167 351.366 18.1816C351.545 18.8378 351.762 19.483 352.016 20.1141C352.106 20.3417 352.212 20.5674 352.302 20.793C352.647 21.5622 353.044 22.3063 353.493 23.0198C353.698 23.3481 353.916 23.6692 354.146 23.9832C354.698 24.7493 355.31 25.4709 355.975 26.1413L356.006 26.1688C356.371 26.5324 356.751 26.8791 357.146 27.2087L357.327 27.3597C360.516 29.9662 364.509 31.3875 368.628 31.3818V21.5719C366.773 21.5719 364.936 21.2061 363.222 20.4956C361.508 19.785 359.952 18.7436 358.641 17.4308C357.33 16.118 356.291 14.5597 355.583 12.845C354.875 11.1303 354.512 9.29287 354.515 7.43777Z"></path>
  </g>
  <path fill="#EBEBF5" d="M4.625 44.75H27.0938V48H0.75V2.5H4.625V44.75ZM59.825 26.1875H38.5438V44.75H63.0125V48H34.7V2.5H62.8563V5.78125H38.5438V22.9375H59.825V26.1875ZM102.838 5.78125H87.2438V48H83.4V5.78125H67.8375V2.5H102.838V5.78125ZM108.819 13.6562L106.6 12.0312C108.475 9.51042 109.444 6.86458 109.506 4.09375V0H113.194V3.15625C113.194 7.51042 111.735 11.0104 108.819 13.6562ZM147.738 36.8125C147.738 34.2917 146.852 32.3021 145.081 30.8438C143.31 29.3646 140.071 27.9688 135.363 26.6562C130.654 25.3229 127.217 23.875 125.05 22.3125C121.967 20.1042 120.425 17.2083 120.425 13.625C120.425 10.1458 121.852 7.32292 124.706 5.15625C127.581 2.96875 131.248 1.875 135.706 1.875C138.727 1.875 141.425 2.45833 143.8 3.625C146.196 4.79167 148.05 6.41667 149.363 8.5C150.675 10.5833 151.331 12.9062 151.331 15.4688H147.456C147.456 12.3646 146.394 9.875 144.269 8C142.144 6.10417 139.29 5.15625 135.706 5.15625C132.227 5.15625 129.456 5.9375 127.394 7.5C125.331 9.04167 124.3 11.0625 124.3 13.5625C124.3 15.875 125.227 17.7604 127.081 19.2188C128.935 20.6771 131.904 21.9688 135.988 23.0938C140.071 24.1979 143.165 25.3542 145.269 26.5625C147.373 27.75 148.956 29.1771 150.019 30.8438C151.081 32.5104 151.613 34.4792 151.613 36.75C151.613 40.3333 150.175 43.2083 147.3 45.375C144.446 47.5417 140.675 48.625 135.988 48.625C132.779 48.625 129.831 48.0521 127.144 46.9062C124.477 45.7604 122.446 44.1562 121.05 42.0938C119.675 40.0312 118.988 37.6667 118.988 35H122.831C122.831 38.2083 124.029 40.7396 126.425 42.5938C128.821 44.4479 132.008 45.375 135.988 45.375C139.529 45.375 142.373 44.5938 144.519 43.0312C146.665 41.4688 147.738 39.3958 147.738 36.8125Z"></path>
  <defs>
    <clipPath id="clip0">
      <rect transform="translate(344.498 0.45752)" fill="white" height="48.8043" width="48.2609"></rect>
    </clipPath>
  </defs>
</svg>
