<svg width="65" height="65" viewBox="0 0 65 65" fill="none" xmlns="http://www.w3.org/2000/svg">
<circle cx="32.5" cy="32.5" r="32" stroke="url(#paint0_linear)"/>
<path d="M20.3942 26.8684H25.9123V44.8023H20.3942V26.8684ZM23.1532 18C24.9269 18 26.3064 19.3795 26.3064 21.1532C26.3064 22.9269 24.9269 24.3064 23.1532 24.3064C21.3795 24.5035 20 22.9269 20 21.1532C20 19.3795 21.3795 18 23.1532 18Z" fill="white"/>
<path d="M29.4609 26.8692H34.782V29.2342C35.7674 27.8546 37.541 26.4751 40.3001 26.4751C46.0153 26.4751 47.0007 30.2195 47.0007 34.9494V44.8031H41.4826V36.1318C41.4826 33.964 41.4826 31.402 38.5264 31.402C35.5703 31.402 35.1761 33.5698 35.1761 35.9347V44.8031H29.4609V26.8692Z" fill="white"/>
<defs>
<linearGradient id="paint0_linear" x1="-2.45755e-07" y1="33" x2="65" y2="33" gradientUnits="userSpaceOnUse">
<stop stop-color="#00D09C"/>
<stop offset="1" stop-color="#5367FC"/>
</linearGradient>
</defs>
</svg>
