<svg width="379" height="174" viewBox="0 0 379 174" fill="none" xmlns="http://www.w3.org/2000/svg">
<path d="M51.4771 154.24H63.606V157H48.0845V131.406H51.4771V154.24ZM71.4367 157H68.0617V131.406H71.4367V157ZM86.4569 152.518L93.7694 131.406H97.4608L87.9686 157H84.9803L75.5057 131.406H79.1795L86.4569 152.518ZM115.733 145.17H104.641V154.24H117.526V157H101.266V131.406H117.35V134.184H104.641V142.41H115.733V145.17ZM139.849 152.518L147.162 131.406H150.853L141.361 157H138.373L128.898 131.406H132.572L139.849 152.518ZM158.28 157H154.905V131.406H158.28V157ZM179.294 145.17H168.202V154.24H181.087V157H164.827V131.406H180.911V134.184H168.202V142.41H179.294V145.17ZM191.168 148.932L191.66 152.307L192.381 149.266L197.443 131.406H200.291L205.23 149.266L205.933 152.359L206.478 148.914L210.451 131.406H213.843L207.638 157H204.562L199.289 138.35L198.884 136.398L198.48 138.35L193.013 157H189.937L183.75 131.406H187.125L191.168 148.932ZM232.432 145.17H221.34V154.24H234.225V157H217.965V131.406H234.049V134.184H221.34V142.41H232.432V145.17ZM248.173 146.646H242.161V157H238.769V131.406H247.241C250.124 131.406 252.339 132.062 253.886 133.375C255.444 134.688 256.224 136.598 256.224 139.105C256.224 140.699 255.79 142.088 254.923 143.271C254.067 144.455 252.872 145.34 251.337 145.926L257.349 156.789V157H253.728L248.173 146.646ZM242.161 143.887H247.347C249.022 143.887 250.353 143.453 251.337 142.586C252.333 141.719 252.831 140.559 252.831 139.105C252.831 137.523 252.356 136.311 251.407 135.467C250.47 134.623 249.11 134.195 247.329 134.184H242.161V143.887ZM268.871 145.592C265.976 144.76 263.867 143.74 262.543 142.533C261.23 141.314 260.574 139.814 260.574 138.033C260.574 136.018 261.377 134.354 262.982 133.041C264.599 131.717 266.697 131.055 269.275 131.055C271.033 131.055 272.597 131.395 273.968 132.074C275.351 132.754 276.418 133.691 277.168 134.887C277.929 136.082 278.31 137.389 278.31 138.807H274.918C274.918 137.26 274.425 136.047 273.441 135.168C272.457 134.277 271.068 133.832 269.275 133.832C267.611 133.832 266.31 134.201 265.373 134.939C264.447 135.666 263.984 136.68 263.984 137.98C263.984 139.023 264.423 139.908 265.302 140.635C266.193 141.35 267.699 142.006 269.82 142.604C271.953 143.201 273.617 143.863 274.812 144.59C276.019 145.305 276.91 146.143 277.484 147.104C278.07 148.064 278.363 149.195 278.363 150.496C278.363 152.57 277.554 154.234 275.937 155.488C274.32 156.73 272.158 157.352 269.451 157.352C267.693 157.352 266.052 157.018 264.529 156.35C263.005 155.67 261.828 154.744 260.996 153.572C260.175 152.4 259.765 151.07 259.765 149.582H263.158C263.158 151.129 263.726 152.354 264.863 153.256C266.011 154.146 267.541 154.592 269.451 154.592C271.232 154.592 272.597 154.229 273.546 153.502C274.496 152.775 274.97 151.785 274.97 150.531C274.97 149.277 274.531 148.311 273.652 147.631C272.773 146.939 271.179 146.26 268.871 145.592ZM290.477 152.406C290.477 151.271 290.623 150.169 290.915 149.102C291.207 148.029 291.634 147.049 292.196 146.164C292.759 145.273 293.363 144.635 294.009 144.25L294.235 144.883C293.891 145.128 293.55 145.484 293.212 145.953C292.873 146.422 292.571 146.979 292.306 147.625C292.04 148.271 291.824 148.997 291.657 149.805C291.496 150.607 291.415 151.518 291.415 152.539C291.415 153.628 291.537 154.674 291.782 155.68C292.032 156.685 292.373 157.57 292.806 158.336C293.238 159.107 293.714 159.685 294.235 160.07L294.009 160.672C293.347 160.276 292.735 159.635 292.173 158.75C291.61 157.87 291.186 156.901 290.899 155.844C290.618 154.781 290.477 153.635 290.477 152.406ZM299.145 157.156C298.426 157.156 297.775 156.979 297.192 156.625C296.614 156.271 296.163 155.779 295.841 155.148C295.518 154.513 295.356 153.802 295.356 153.016V152.68C295.356 151.867 295.512 151.135 295.825 150.484C296.143 149.833 296.583 149.323 297.145 148.953C297.708 148.578 298.317 148.391 298.973 148.391C299.999 148.391 300.812 148.742 301.411 149.445C302.015 150.143 302.317 151.099 302.317 152.312V152.836H296.286V153.016C296.286 153.974 296.559 154.773 297.106 155.414C297.658 156.049 298.351 156.367 299.184 156.367C299.684 156.367 300.124 156.276 300.505 156.094C300.89 155.911 301.239 155.62 301.551 155.219L302.137 155.664C301.45 156.659 300.453 157.156 299.145 157.156ZM298.973 149.188C298.27 149.188 297.676 149.445 297.192 149.961C296.713 150.477 296.421 151.169 296.317 152.039H301.387V151.938C301.361 151.125 301.13 150.464 300.692 149.953C300.255 149.443 299.682 149.188 298.973 149.188ZM306.954 151.977L309.235 148.547H310.344L307.477 152.695L310.469 157H309.368L306.961 153.422L304.555 157H303.454L306.438 152.695L303.571 148.547H304.672L306.954 151.977ZM319.036 152.859C319.036 154.177 318.744 155.224 318.161 156C317.577 156.771 316.796 157.156 315.817 157.156C314.661 157.156 313.775 156.75 313.161 155.938V160.25H312.231V148.547H313.098L313.145 149.742C313.754 148.841 314.637 148.391 315.793 148.391C316.804 148.391 317.595 148.773 318.168 149.539C318.746 150.305 319.036 151.367 319.036 152.727V152.859ZM318.098 152.695C318.098 151.617 317.877 150.766 317.434 150.141C316.991 149.516 316.374 149.203 315.582 149.203C315.01 149.203 314.517 149.341 314.106 149.617C313.694 149.893 313.379 150.294 313.161 150.82V154.875C313.385 155.359 313.705 155.729 314.121 155.984C314.538 156.24 315.03 156.367 315.598 156.367C316.385 156.367 316.996 156.055 317.434 155.43C317.877 154.799 318.098 153.888 318.098 152.695ZM324.547 157.156C323.828 157.156 323.177 156.979 322.594 156.625C322.016 156.271 321.565 155.779 321.242 155.148C320.92 154.513 320.758 153.802 320.758 153.016V152.68C320.758 151.867 320.914 151.135 321.227 150.484C321.545 149.833 321.985 149.323 322.547 148.953C323.11 148.578 323.719 148.391 324.375 148.391C325.401 148.391 326.214 148.742 326.813 149.445C327.417 150.143 327.719 151.099 327.719 152.312V152.836H321.688V153.016C321.688 153.974 321.961 154.773 322.508 155.414C323.06 156.049 323.753 156.367 324.586 156.367C325.086 156.367 325.526 156.276 325.906 156.094C326.292 155.911 326.641 155.62 326.953 155.219L327.539 155.664C326.852 156.659 325.854 157.156 324.547 157.156ZM324.375 149.188C323.672 149.188 323.078 149.445 322.594 149.961C322.115 150.477 321.823 151.169 321.719 152.039H326.789V151.938C326.763 151.125 326.531 150.464 326.094 149.953C325.656 149.443 325.084 149.188 324.375 149.188ZM332.824 156.367C333.475 156.367 334.02 156.185 334.457 155.82C334.9 155.451 335.139 154.974 335.176 154.391H336.074C336.048 154.906 335.887 155.378 335.59 155.805C335.293 156.227 334.897 156.557 334.402 156.797C333.913 157.036 333.387 157.156 332.824 157.156C331.715 157.156 330.835 156.771 330.184 156C329.538 155.229 329.215 154.193 329.215 152.891V152.609C329.215 151.776 329.361 151.039 329.652 150.398C329.944 149.758 330.361 149.263 330.902 148.914C331.449 148.565 332.087 148.391 332.816 148.391C333.744 148.391 334.507 148.667 335.106 149.219C335.71 149.771 336.033 150.497 336.074 151.398H335.176C335.134 150.737 334.895 150.203 334.457 149.797C334.025 149.391 333.478 149.188 332.816 149.188C331.973 149.188 331.316 149.492 330.848 150.102C330.384 150.711 330.152 151.565 330.152 152.664V152.938C330.152 154.016 330.384 154.857 330.848 155.461C331.316 156.065 331.975 156.367 332.824 156.367ZM339.562 146.383V148.547H341.312V149.312H339.562V154.945C339.562 155.414 339.646 155.763 339.812 155.992C339.984 156.221 340.268 156.336 340.664 156.336C340.82 156.336 341.073 156.31 341.422 156.258L341.461 157.023C341.216 157.112 340.883 157.156 340.461 157.156C339.82 157.156 339.354 156.971 339.062 156.602C338.771 156.227 338.625 155.677 338.625 154.953V149.312H337.07V148.547H338.625V146.383H339.562ZM346.683 157.156C345.965 157.156 345.314 156.979 344.73 156.625C344.152 156.271 343.702 155.779 343.379 155.148C343.056 154.513 342.894 153.802 342.894 153.016V152.68C342.894 151.867 343.051 151.135 343.363 150.484C343.681 149.833 344.121 149.323 344.683 148.953C345.246 148.578 345.855 148.391 346.511 148.391C347.538 148.391 348.35 148.742 348.949 149.445C349.553 150.143 349.855 151.099 349.855 152.312V152.836H343.824V153.016C343.824 153.974 344.097 154.773 344.644 155.414C345.196 156.049 345.889 156.367 346.722 156.367C347.222 156.367 347.663 156.276 348.043 156.094C348.428 155.911 348.777 155.62 349.09 155.219L349.676 155.664C348.988 156.659 347.991 157.156 346.683 157.156ZM346.511 149.188C345.808 149.188 345.215 149.445 344.73 149.961C344.251 150.477 343.959 151.169 343.855 152.039H348.926V151.938C348.899 151.125 348.668 150.464 348.23 149.953C347.793 149.443 347.22 149.188 346.511 149.188ZM351.461 152.695C351.461 151.383 351.752 150.339 352.336 149.562C352.924 148.781 353.721 148.391 354.726 148.391C355.867 148.391 356.737 148.841 357.336 149.742V145H358.265V157H357.39L357.351 155.875C356.752 156.729 355.872 157.156 354.711 157.156C353.737 157.156 352.95 156.766 352.351 155.984C351.757 155.198 351.461 154.138 351.461 152.805V152.695ZM352.406 152.859C352.406 153.938 352.622 154.789 353.054 155.414C353.487 156.034 354.096 156.344 354.882 156.344C356.033 156.344 356.851 155.836 357.336 154.82V150.852C356.851 149.753 356.039 149.203 354.898 149.203C354.112 149.203 353.5 149.513 353.062 150.133C352.625 150.747 352.406 151.656 352.406 152.859ZM363.683 152.523C363.683 153.669 363.54 154.773 363.253 155.836C362.972 156.893 362.553 157.862 361.996 158.742C361.438 159.622 360.824 160.266 360.152 160.672L359.925 160.07C360.436 159.706 360.907 159.141 361.339 158.375C361.777 157.609 362.121 156.719 362.371 155.703C362.621 154.682 362.746 153.576 362.746 152.383C362.746 151.305 362.621 150.266 362.371 149.266C362.121 148.26 361.774 147.365 361.331 146.578C360.894 145.786 360.425 145.211 359.925 144.852L360.152 144.25C360.808 144.651 361.415 145.292 361.972 146.172C362.529 147.052 362.954 148.029 363.246 149.102C363.537 150.174 363.683 151.315 363.683 152.523Z" fill="#EBEBF5"/>
<mask id="path-2-outside-1" maskUnits="userSpaceOnUse" x="0.144531" y="0" width="379" height="96" fill="black">
<rect fill="white" x="0.144531" width="379" height="96"/>
<path d="M34.8594 74.0703H18.3555V21.5312L2.14453 26.2676V13.7676L33.3457 2.97656H34.8594V74.0703ZM106.66 45.0176C106.66 54.6204 104.495 62.026 100.166 67.2344C95.8691 72.4427 89.7982 75.0469 81.9531 75.0469C74.043 75.0469 67.9232 72.4264 63.5938 67.1855C59.2643 61.9447 57.0996 54.5553 57.0996 45.0176V32.0293C57.0996 22.4264 59.248 15.0208 63.5449 9.8125C67.8743 4.60417 73.9779 2 81.8555 2C89.7331 2 95.8366 4.62044 100.166 9.86133C104.495 15.1022 106.66 22.5078 106.66 32.0781V45.0176ZM90.2051 29.9297C90.2051 24.819 89.5378 21.0104 88.2031 18.5039C86.8685 15.9648 84.7526 14.6953 81.8555 14.6953C79.0234 14.6953 76.9564 15.8672 75.6543 18.2109C74.3848 20.5547 73.7012 24.1029 73.6035 28.8555V47.0195C73.6035 52.3255 74.2708 56.2155 75.6055 58.6895C76.9401 61.1309 79.056 62.3516 81.9531 62.3516C84.7526 62.3516 86.8197 61.1634 88.1543 58.7871C89.4889 56.3783 90.1725 52.6185 90.2051 47.5078V29.9297ZM122.26 93.2109L113.959 89.3047L115.619 85.9844C117.898 81.7526 119.086 77.7161 119.184 73.875V61.668H132.367L132.318 72.2637C132.286 76.0072 131.326 79.8158 129.438 83.6895C127.549 87.5632 125.157 90.737 122.26 93.2109ZM193.523 45.0176C193.523 54.6204 191.359 62.026 187.029 67.2344C182.732 72.4427 176.661 75.0469 168.816 75.0469C160.906 75.0469 154.786 72.4264 150.457 67.1855C146.128 61.9447 143.963 54.5553 143.963 45.0176V32.0293C143.963 22.4264 146.111 15.0208 150.408 9.8125C154.738 4.60417 160.841 2 168.719 2C176.596 2 182.7 4.62044 187.029 9.86133C191.359 15.1022 193.523 22.5078 193.523 32.0781V45.0176ZM177.068 29.9297C177.068 24.819 176.401 21.0104 175.066 18.5039C173.732 15.9648 171.616 14.6953 168.719 14.6953C165.887 14.6953 163.82 15.8672 162.518 18.2109C161.248 20.5547 160.564 24.1029 160.467 28.8555V47.0195C160.467 52.3255 161.134 56.2155 162.469 58.6895C163.803 61.1309 165.919 62.3516 168.816 62.3516C171.616 62.3516 173.683 61.1634 175.018 58.7871C176.352 56.3783 177.036 52.6185 177.068 47.5078V29.9297ZM252.434 45.0176C252.434 54.6204 250.269 62.026 245.939 67.2344C241.643 72.4427 235.572 75.0469 227.727 75.0469C219.816 75.0469 213.697 72.4264 209.367 67.1855C205.038 61.9447 202.873 54.5553 202.873 45.0176V32.0293C202.873 22.4264 205.021 15.0208 209.318 9.8125C213.648 4.60417 219.751 2 227.629 2C235.507 2 241.61 4.62044 245.939 9.86133C250.269 15.1022 252.434 22.5078 252.434 32.0781V45.0176ZM235.979 29.9297C235.979 24.819 235.311 21.0104 233.977 18.5039C232.642 15.9648 230.526 14.6953 227.629 14.6953C224.797 14.6953 222.73 15.8672 221.428 18.2109C220.158 20.5547 219.475 24.1029 219.377 28.8555V47.0195C219.377 52.3255 220.044 56.2155 221.379 58.6895C222.714 61.1309 224.829 62.3516 227.727 62.3516C230.526 62.3516 232.593 61.1634 233.928 58.7871C235.262 56.3783 235.946 52.6185 235.979 47.5078V29.9297ZM311.344 45.0176C311.344 54.6204 309.179 62.026 304.85 67.2344C300.553 72.4427 294.482 75.0469 286.637 75.0469C278.727 75.0469 272.607 72.4264 268.277 67.1855C263.948 61.9447 261.783 54.5553 261.783 45.0176V32.0293C261.783 22.4264 263.932 15.0208 268.229 9.8125C272.558 4.60417 278.661 2 286.539 2C294.417 2 300.52 4.62044 304.85 9.86133C309.179 15.1022 311.344 22.5078 311.344 32.0781V45.0176ZM294.889 29.9297C294.889 24.819 294.221 21.0104 292.887 18.5039C291.552 15.9648 289.436 14.6953 286.539 14.6953C283.707 14.6953 281.64 15.8672 280.338 18.2109C279.068 20.5547 278.385 24.1029 278.287 28.8555V47.0195C278.287 52.3255 278.954 56.2155 280.289 58.6895C281.624 61.1309 283.74 62.3516 286.637 62.3516C289.436 62.3516 291.503 61.1634 292.838 58.7871C294.173 56.3783 294.856 52.6185 294.889 47.5078V29.9297ZM359.82 33.7383H376.471V47.8496H359.82V66.9414H344.439V47.8496H327.74V33.7383H344.439V15.1836H359.82V33.7383Z"/>
</mask>
<path d="M34.8594 74.0703H18.3555V21.5312L2.14453 26.2676V13.7676L33.3457 2.97656H34.8594V74.0703ZM106.66 45.0176C106.66 54.6204 104.495 62.026 100.166 67.2344C95.8691 72.4427 89.7982 75.0469 81.9531 75.0469C74.043 75.0469 67.9232 72.4264 63.5938 67.1855C59.2643 61.9447 57.0996 54.5553 57.0996 45.0176V32.0293C57.0996 22.4264 59.248 15.0208 63.5449 9.8125C67.8743 4.60417 73.9779 2 81.8555 2C89.7331 2 95.8366 4.62044 100.166 9.86133C104.495 15.1022 106.66 22.5078 106.66 32.0781V45.0176ZM90.2051 29.9297C90.2051 24.819 89.5378 21.0104 88.2031 18.5039C86.8685 15.9648 84.7526 14.6953 81.8555 14.6953C79.0234 14.6953 76.9564 15.8672 75.6543 18.2109C74.3848 20.5547 73.7012 24.1029 73.6035 28.8555V47.0195C73.6035 52.3255 74.2708 56.2155 75.6055 58.6895C76.9401 61.1309 79.056 62.3516 81.9531 62.3516C84.7526 62.3516 86.8197 61.1634 88.1543 58.7871C89.4889 56.3783 90.1725 52.6185 90.2051 47.5078V29.9297ZM122.26 93.2109L113.959 89.3047L115.619 85.9844C117.898 81.7526 119.086 77.7161 119.184 73.875V61.668H132.367L132.318 72.2637C132.286 76.0072 131.326 79.8158 129.438 83.6895C127.549 87.5632 125.157 90.737 122.26 93.2109ZM193.523 45.0176C193.523 54.6204 191.359 62.026 187.029 67.2344C182.732 72.4427 176.661 75.0469 168.816 75.0469C160.906 75.0469 154.786 72.4264 150.457 67.1855C146.128 61.9447 143.963 54.5553 143.963 45.0176V32.0293C143.963 22.4264 146.111 15.0208 150.408 9.8125C154.738 4.60417 160.841 2 168.719 2C176.596 2 182.7 4.62044 187.029 9.86133C191.359 15.1022 193.523 22.5078 193.523 32.0781V45.0176ZM177.068 29.9297C177.068 24.819 176.401 21.0104 175.066 18.5039C173.732 15.9648 171.616 14.6953 168.719 14.6953C165.887 14.6953 163.82 15.8672 162.518 18.2109C161.248 20.5547 160.564 24.1029 160.467 28.8555V47.0195C160.467 52.3255 161.134 56.2155 162.469 58.6895C163.803 61.1309 165.919 62.3516 168.816 62.3516C171.616 62.3516 173.683 61.1634 175.018 58.7871C176.352 56.3783 177.036 52.6185 177.068 47.5078V29.9297ZM252.434 45.0176C252.434 54.6204 250.269 62.026 245.939 67.2344C241.643 72.4427 235.572 75.0469 227.727 75.0469C219.816 75.0469 213.697 72.4264 209.367 67.1855C205.038 61.9447 202.873 54.5553 202.873 45.0176V32.0293C202.873 22.4264 205.021 15.0208 209.318 9.8125C213.648 4.60417 219.751 2 227.629 2C235.507 2 241.61 4.62044 245.939 9.86133C250.269 15.1022 252.434 22.5078 252.434 32.0781V45.0176ZM235.979 29.9297C235.979 24.819 235.311 21.0104 233.977 18.5039C232.642 15.9648 230.526 14.6953 227.629 14.6953C224.797 14.6953 222.73 15.8672 221.428 18.2109C220.158 20.5547 219.475 24.1029 219.377 28.8555V47.0195C219.377 52.3255 220.044 56.2155 221.379 58.6895C222.714 61.1309 224.829 62.3516 227.727 62.3516C230.526 62.3516 232.593 61.1634 233.928 58.7871C235.262 56.3783 235.946 52.6185 235.979 47.5078V29.9297ZM311.344 45.0176C311.344 54.6204 309.179 62.026 304.85 67.2344C300.553 72.4427 294.482 75.0469 286.637 75.0469C278.727 75.0469 272.607 72.4264 268.277 67.1855C263.948 61.9447 261.783 54.5553 261.783 45.0176V32.0293C261.783 22.4264 263.932 15.0208 268.229 9.8125C272.558 4.60417 278.661 2 286.539 2C294.417 2 300.52 4.62044 304.85 9.86133C309.179 15.1022 311.344 22.5078 311.344 32.0781V45.0176ZM294.889 29.9297C294.889 24.819 294.221 21.0104 292.887 18.5039C291.552 15.9648 289.436 14.6953 286.539 14.6953C283.707 14.6953 281.64 15.8672 280.338 18.2109C279.068 20.5547 278.385 24.1029 278.287 28.8555V47.0195C278.287 52.3255 278.954 56.2155 280.289 58.6895C281.624 61.1309 283.74 62.3516 286.637 62.3516C289.436 62.3516 291.503 61.1634 292.838 58.7871C294.173 56.3783 294.856 52.6185 294.889 47.5078V29.9297ZM359.82 33.7383H376.471V47.8496H359.82V66.9414H344.439V47.8496H327.74V33.7383H344.439V15.1836H359.82V33.7383Z" stroke="url(#paint0_linear)" stroke-width="4" mask="url(#path-2-outside-1)"/>
<defs>
<linearGradient id="paint0_linear" x1="14.2663" y1="2.01324" x2="112.236" y2="226.708" gradientUnits="userSpaceOnUse">
<stop stop-color="#00D09C"/>
<stop offset="1" stop-color="#5367FC"/>
</linearGradient>
</defs>
</svg>
