<svg width="731" height="61" viewBox="0 0 731 61" fill="none" xmlns="http://www.w3.org/2000/svg">
  <path d="M2.96875 57.8906H32.1484V60H0.820312V3.125H2.96875V57.8906ZM57.25 60.7812C53.8385 60.7812 50.7005 59.8698 47.8359 58.0469C44.9974 56.1979 42.7708 53.6719 41.1562 50.4688C39.5417 47.2656 38.7344 43.7109 38.7344 39.8047V38.0469C38.7344 34.1406 39.5156 30.5599 41.0781 27.3047C42.6406 24.0495 44.7891 21.5104 47.5234 19.6875C50.2578 17.8646 53.2396 16.9531 56.4688 16.9531C61.1823 16.9531 65.0365 18.6328 68.0312 21.9922C71.026 25.3516 72.5234 29.7656 72.5234 35.2344V37.4609H40.8438V39.7656C40.8438 43.2031 41.5599 46.3932 42.9922 49.3359C44.4505 52.2526 46.4427 54.5443 48.9688 56.2109C51.5208 57.8776 54.2812 58.7109 57.25 58.7109C60.0885 58.7109 62.4974 58.2422 64.4766 57.3047C66.4818 56.3411 68.2526 54.8698 69.7891 52.8906L71.2734 53.9453C68.1224 58.5026 63.4479 60.7812 57.25 60.7812ZM56.4688 19.0625C52.3542 19.0625 48.8646 20.599 46 23.6719C43.1354 26.7188 41.4557 30.612 40.9609 35.3516H70.4141V34.8438C70.4141 31.9792 69.8021 29.3229 68.5781 26.875C67.3802 24.401 65.7135 22.487 63.5781 21.1328C61.4688 19.7526 59.099 19.0625 56.4688 19.0625ZM110.672 60C110.151 58.2031 109.891 55.625 109.891 52.2656C108.224 54.974 105.945 57.0703 103.055 58.5547C100.164 60.0391 96.8958 60.7812 93.25 60.7812C89.3438 60.7812 86.1927 59.7266 83.7969 57.6172C81.4271 55.4818 80.2422 52.7083 80.2422 49.2969C80.2422 45.4167 81.987 42.3177 85.4766 40C88.9922 37.6562 93.6536 36.4583 99.4609 36.4062H109.891V30.2344C109.891 26.6927 108.771 23.9453 106.531 21.9922C104.318 20.0391 101.141 19.0625 97 19.0625C93.1458 19.0625 89.9297 20.0521 87.3516 22.0312C84.7734 24.0104 83.4844 26.4583 83.4844 29.375L81.375 29.2969C81.375 25.8594 82.8854 22.9427 85.9062 20.5469C88.9271 18.151 92.625 16.9531 97 16.9531C101.557 16.9531 105.177 18.099 107.859 20.3906C110.542 22.6562 111.922 25.8594 112 30V50.1953C112 54.8307 112.365 57.9818 113.094 59.6484V60H110.672ZM93.25 58.7109C97.2083 58.7109 100.607 57.8255 103.445 56.0547C106.31 54.2839 108.458 51.7969 109.891 48.5938V38.5547H100.125C94.0833 38.5547 89.4609 39.7526 86.2578 42.1484C83.6536 44.1016 82.3516 46.5365 82.3516 49.4531C82.3516 52.0312 83.3802 54.2188 85.4375 56.0156C87.4948 57.8125 90.099 58.7109 93.25 58.7109ZM145.266 19.2578L142.531 19.0234C138.938 19.0234 135.93 20.1953 133.508 22.5391C131.086 24.8568 129.497 28.112 128.742 32.3047V60H126.633V17.7344H128.742V26.5234C129.888 23.5807 131.607 21.25 133.898 19.5312C136.19 17.8125 139.068 16.9531 142.531 16.9531C143.755 16.9531 144.745 17.0964 145.5 17.3828L145.266 19.2578ZM156.539 27.5781C157.919 24.2969 159.951 21.7057 162.633 19.8047C165.315 17.9036 168.284 16.9531 171.539 16.9531C176.07 16.9531 179.43 18.2422 181.617 20.8203C183.831 23.3724 184.951 27.2396 184.977 32.4219V60H182.867V32.3438C182.841 27.8125 181.917 24.4661 180.094 22.3047C178.271 20.1172 175.38 19.0234 171.422 19.0234C167.776 19.0234 164.612 20.3255 161.93 22.9297C159.273 25.5078 157.477 28.8411 156.539 32.9297V60H154.43V17.7344H156.539V27.5781ZM198.281 58.0859C198.281 57.487 198.49 56.9792 198.906 56.5625C199.323 56.1198 199.831 55.8984 200.43 55.8984C201.029 55.8984 201.536 56.1198 201.953 56.5625C202.396 56.9792 202.617 57.487 202.617 58.0859C202.617 58.6849 202.396 59.1927 201.953 59.6094C201.536 60.026 201.029 60.2344 200.43 60.2344C199.831 60.2344 199.323 60.026 198.906 59.6094C198.49 59.1927 198.281 58.6849 198.281 58.0859ZM269.305 31.7969H240.789V57.8906H273.289V60H238.68V3.125H273.289V5.23438H240.789V29.6875H269.305V31.7969ZM295.539 56.6406L310.734 17.7344H313L296.555 60H294.484L278.078 17.7344H280.344L295.539 56.6406ZM318.492 38.0469C318.492 34.0104 319.26 30.3906 320.797 27.1875C322.359 23.9583 324.547 21.4453 327.359 19.6484C330.198 17.8516 333.401 16.9531 336.969 16.9531C340.51 16.9531 343.688 17.8255 346.5 19.5703C349.312 21.3151 351.5 23.7891 353.062 26.9922C354.651 30.1953 355.458 33.8021 355.484 37.8125V39.6875C355.484 43.75 354.716 47.3828 353.18 50.5859C351.643 53.7891 349.456 56.2891 346.617 58.0859C343.805 59.8828 340.615 60.7812 337.047 60.7812C333.479 60.7812 330.276 59.8958 327.438 58.125C324.625 56.3542 322.438 53.8802 320.875 50.7031C319.312 47.5 318.518 43.9062 318.492 39.9219V38.0469ZM320.602 39.6875C320.602 43.2031 321.292 46.4323 322.672 49.375C324.078 52.2917 326.018 54.5703 328.492 56.2109C330.992 57.8516 333.844 58.6719 337.047 58.6719C341.865 58.6719 345.784 56.862 348.805 53.2422C351.852 49.6224 353.375 44.9609 353.375 39.2578V38.0469C353.375 34.5833 352.672 31.3802 351.266 28.4375C349.859 25.4948 347.906 23.2031 345.406 21.5625C342.932 19.8958 340.12 19.0625 336.969 19.0625C332.151 19.0625 328.219 20.8984 325.172 24.5703C322.125 28.2422 320.602 32.8646 320.602 38.4375V39.6875ZM369.375 60H367.266V0H369.375V60ZM396.664 56.6406L411.859 17.7344H414.125L397.68 60H395.609L379.203 17.7344H381.469L396.664 56.6406ZM438.094 60.7812C434.682 60.7812 431.544 59.8698 428.68 58.0469C425.841 56.1979 423.615 53.6719 422 50.4688C420.385 47.2656 419.578 43.7109 419.578 39.8047V38.0469C419.578 34.1406 420.359 30.5599 421.922 27.3047C423.484 24.0495 425.633 21.5104 428.367 19.6875C431.102 17.8646 434.083 16.9531 437.312 16.9531C442.026 16.9531 445.88 18.6328 448.875 21.9922C451.87 25.3516 453.367 29.7656 453.367 35.2344V37.4609H421.688V39.7656C421.688 43.2031 422.404 46.3932 423.836 49.3359C425.294 52.2526 427.286 54.5443 429.812 56.2109C432.365 57.8776 435.125 58.7109 438.094 58.7109C440.932 58.7109 443.341 58.2422 445.32 57.3047C447.326 56.3411 449.096 54.8698 450.633 52.8906L452.117 53.9453C448.966 58.5026 444.292 60.7812 438.094 60.7812ZM437.312 19.0625C433.198 19.0625 429.708 20.599 426.844 23.6719C423.979 26.7188 422.299 30.612 421.805 35.3516H451.258V34.8438C451.258 31.9792 450.646 29.3229 449.422 26.875C448.224 24.401 446.557 22.487 444.422 21.1328C442.312 19.7526 439.943 19.0625 437.312 19.0625ZM463.234 58.0859C463.234 57.487 463.443 56.9792 463.859 56.5625C464.276 56.1198 464.784 55.8984 465.383 55.8984C465.982 55.8984 466.49 56.1198 466.906 56.5625C467.349 56.9792 467.57 57.487 467.57 58.0859C467.57 58.6849 467.349 59.1927 466.906 59.6094C466.49 60.026 465.982 60.2344 465.383 60.2344C464.784 60.2344 464.276 60.026 463.859 59.6094C463.443 59.1927 463.234 58.6849 463.234 58.0859Z" fill="#44475B"/>
  <path d="M726.547 58.0859C726.547 57.487 726.755 56.9792 727.172 56.5625C727.589 56.1198 728.096 55.8984 728.695 55.8984C729.294 55.8984 729.802 56.1198 730.219 56.5625C730.661 56.9792 730.883 57.487 730.883 58.0859C730.883 58.6849 730.661 59.1927 730.219 59.6094C729.802 60.026 729.294 60.2344 728.695 60.2344C728.096 60.2344 727.589 60.026 727.172 59.6094C726.755 59.1927 726.547 58.6849 726.547 58.0859Z" fill="black"/>
  <path d="M541.719 9.29688H523.438V60H515.977V9.29688H497.734V3.125H541.719V9.29688ZM557.25 22.8516C560.453 18.9193 564.62 16.9531 569.75 16.9531C578.682 16.9531 583.188 21.9922 583.266 32.0703V60H576.039V32.0312C576.013 28.9844 575.31 26.7318 573.93 25.2734C572.576 23.8151 570.453 23.0859 567.562 23.0859C565.219 23.0859 563.161 23.7109 561.391 24.9609C559.62 26.2109 558.24 27.8516 557.25 29.8828V60H550.023V0H557.25V22.8516ZM615.516 24.2188C614.422 24.0365 613.237 23.9453 611.961 23.9453C607.221 23.9453 604.005 25.9635 602.312 30V60H595.086V17.7344H602.117L602.234 22.6172C604.604 18.8411 607.964 16.9531 612.312 16.9531C613.719 16.9531 614.786 17.1354 615.516 17.5V24.2188ZM631.047 60H623.82V17.7344H631.047V60ZM623.234 6.52344C623.234 5.35156 623.586 4.36198 624.289 3.55469C625.018 2.7474 626.086 2.34375 627.492 2.34375C628.898 2.34375 629.966 2.7474 630.695 3.55469C631.424 4.36198 631.789 5.35156 631.789 6.52344C631.789 7.69531 631.424 8.67188 630.695 9.45312C629.966 10.2344 628.898 10.625 627.492 10.625C626.086 10.625 625.018 10.2344 624.289 9.45312C623.586 8.67188 623.234 7.69531 623.234 6.52344ZM657.594 50.1953L668.062 17.7344H675.445L660.289 60H654.781L639.469 17.7344H646.852L657.594 50.1953ZM700.391 60.7812C694.661 60.7812 690 58.9062 686.406 55.1562C682.812 51.3802 681.016 46.3411 681.016 40.0391V38.7109C681.016 34.5182 681.81 30.7812 683.398 27.5C685.013 24.1927 687.253 21.6146 690.117 19.7656C693.008 17.8906 696.133 16.9531 699.492 16.9531C704.987 16.9531 709.258 18.763 712.305 22.3828C715.352 26.0026 716.875 31.1849 716.875 37.9297V40.9375H688.242C688.346 45.1042 689.557 48.4766 691.875 51.0547C694.219 53.6068 697.188 54.8828 700.781 54.8828C703.333 54.8828 705.495 54.362 707.266 53.3203C709.036 52.2786 710.586 50.8984 711.914 49.1797L716.328 52.6172C712.786 58.0599 707.474 60.7812 700.391 60.7812ZM699.492 22.8906C696.576 22.8906 694.128 23.9583 692.148 26.0938C690.169 28.2031 688.945 31.1719 688.477 35H709.648V34.4531C709.44 30.7812 708.451 27.9427 706.68 25.9375C704.909 23.9062 702.513 22.8906 699.492 22.8906Z" fill="#00D09C"/>
</svg>
