<svg width="307" height="59" viewBox="0 0 307 59" fill="none" xmlns="http://www.w3.org/2000/svg">
<path d="M36.8906 42.0625H11.0703L5.21094 58H0.171875L21.6953 1.125H26.2656L47.7891 58H42.7891L36.8906 42.0625ZM12.5547 37.9609H35.3672L23.9609 6.98438L12.5547 37.9609ZM96.9734 51.2422C95.3068 53.612 92.6896 55.4609 89.1219 56.7891C85.5802 58.1172 81.6089 58.7812 77.2078 58.7812C72.7547 58.7812 68.7964 57.7135 65.3328 55.5781C61.8693 53.4427 59.187 50.4219 57.2859 46.5156C55.3849 42.6094 54.4214 38.1302 54.3953 33.0781V25.8906C54.3953 18 56.3875 11.776 60.3719 7.21875C64.3563 2.63542 69.7078 0.34375 76.4266 0.34375C82.2859 0.34375 86.9995 1.84115 90.5672 4.83594C94.1349 7.80469 96.2573 11.9062 96.9344 17.1406H92.1297C91.4266 12.974 89.7208 9.82292 87.0125 7.6875C84.3302 5.52604 80.8146 4.44531 76.4656 4.44531C71.1531 4.44531 66.9474 6.33333 63.8484 10.1094C60.7495 13.8854 59.2 19.2109 59.2 26.0859V32.8047C59.2 37.1276 59.9292 40.9557 61.3875 44.2891C62.8719 47.5964 64.9813 50.1615 67.7156 51.9844C70.476 53.8073 73.6401 54.7188 77.2078 54.7188C81.3484 54.7188 84.9031 54.0677 87.8719 52.7656C89.799 51.9062 91.2313 50.9036 92.1688 49.7578V35.0703H76.8953V31.0078H96.9734V51.2422ZM142.213 30.7344H115.611V53.9375H146.197V58H110.806V1.125H146.002V5.22656H115.611V26.6719H142.213V30.7344ZM198.897 58H194.092L161.397 9.32812V58H156.553V1.125H161.397L194.131 49.8359V1.125H198.897V58ZM213.55 58V1.125H229.448C234.11 1.125 238.29 2.19271 241.988 4.32812C245.685 6.4375 248.563 9.47135 250.62 13.4297C252.704 17.388 253.745 21.8932 253.745 26.9453V32.1797C253.745 37.2578 252.717 41.763 250.659 45.6953C248.602 49.6276 245.698 52.6615 241.948 54.7969C238.224 56.9323 233.941 58 229.097 58H213.55ZM218.355 5.22656V53.9375H229.136C235.126 53.9375 239.93 51.9583 243.55 48C247.17 44.0156 248.98 38.638 248.98 31.8672V26.8672C248.98 20.3307 247.196 15.0964 243.628 11.1641C240.06 7.23177 235.36 5.2526 229.527 5.22656H218.355ZM296.016 42.0625H270.195L264.336 58H259.297L280.82 1.125H285.391L306.914 58H301.914L296.016 42.0625ZM271.68 37.9609H294.492L283.086 6.98438L271.68 37.9609Z" fill="#44475B"/>
</svg>
