<svg width="775" height="423" viewBox="0 0 775 423" fill="none" xmlns="http://www.w3.org/2000/svg">
<path d="M153.971 156V130.406H161.195C163.422 130.406 165.391 130.898 167.102 131.883C168.812 132.867 170.131 134.268 171.057 136.084C171.994 137.9 172.469 139.986 172.48 142.342V143.977C172.48 146.391 172.012 148.506 171.074 150.322C170.148 152.139 168.818 153.533 167.084 154.506C165.361 155.479 163.352 155.977 161.055 156H153.971ZM157.346 133.184V153.24H160.896C163.498 153.24 165.52 152.432 166.961 150.814C168.414 149.197 169.141 146.895 169.141 143.906V142.412C169.141 139.506 168.455 137.25 167.084 135.645C165.725 134.027 163.791 133.207 161.283 133.184H157.346ZM191.702 149.32H180.979L178.571 156H175.09L184.864 130.406H187.817L197.608 156H194.145L191.702 149.32ZM181.999 146.543H190.7L186.34 134.572L181.999 146.543ZM207.566 143.256L214.245 130.406H218.077L209.253 146.455V156H205.878V146.455L197.054 130.406H200.921L207.566 143.256Z" fill="#EBEBF5"/>
<path d="M599.512 407.592C596.617 406.76 594.508 405.74 593.184 404.533C591.871 403.314 591.215 401.814 591.215 400.033C591.215 398.018 592.018 396.354 593.623 395.041C595.24 393.717 597.338 393.055 599.916 393.055C601.674 393.055 603.238 393.395 604.609 394.074C605.992 394.754 607.059 395.691 607.809 396.887C608.57 398.082 608.951 399.389 608.951 400.807H605.559C605.559 399.26 605.066 398.047 604.082 397.168C603.098 396.277 601.709 395.832 599.916 395.832C598.252 395.832 596.951 396.201 596.014 396.939C595.088 397.666 594.625 398.68 594.625 399.98C594.625 401.023 595.064 401.908 595.943 402.635C596.834 403.35 598.34 404.006 600.461 404.604C602.594 405.201 604.258 405.863 605.453 406.59C606.66 407.305 607.551 408.143 608.125 409.104C608.711 410.064 609.004 411.195 609.004 412.496C609.004 414.57 608.195 416.234 606.578 417.488C604.961 418.73 602.799 419.352 600.092 419.352C598.334 419.352 596.693 419.018 595.17 418.35C593.646 417.67 592.469 416.744 591.637 415.572C590.816 414.4 590.406 413.07 590.406 411.582H593.799C593.799 413.129 594.367 414.354 595.504 415.256C596.652 416.146 598.182 416.592 600.092 416.592C601.873 416.592 603.238 416.229 604.188 415.502C605.137 414.775 605.611 413.785 605.611 412.531C605.611 411.277 605.172 410.311 604.293 409.631C603.414 408.939 601.82 408.26 599.512 407.592ZM617.081 408.98V419H613.706V393.406H623.145C625.946 393.406 628.137 394.121 629.719 395.551C631.313 396.98 632.11 398.873 632.11 401.229C632.11 403.713 631.331 405.629 629.772 406.977C628.225 408.312 626.005 408.98 623.11 408.98H617.081ZM617.081 406.221H623.145C624.95 406.221 626.333 405.799 627.294 404.955C628.255 404.1 628.735 402.869 628.735 401.264C628.735 399.74 628.255 398.521 627.294 397.607C626.333 396.693 625.014 396.219 623.339 396.184H617.081V406.221ZM651.243 407.17H640.152V416.24H653.036V419H636.777V393.406H652.861V396.184H640.152V404.41H651.243V407.17ZM671.73 412.32H661.008L658.6 419H655.119L664.893 393.406H667.846L677.637 419H674.174L671.73 412.32ZM662.027 409.543H670.728L666.369 397.572L662.027 409.543ZM687.946 407.1L684.817 410.352V419H681.442V393.406H684.817V406.062L696.19 393.406H700.268L690.196 404.709L701.059 419H697.016L687.946 407.1ZM718.839 407.17H707.747V416.24H720.632V419H704.372V393.406H720.456V396.184H707.747V404.41H718.839V407.17ZM734.58 408.646H728.568V419H725.176V393.406H733.648C736.531 393.406 738.746 394.062 740.293 395.375C741.851 396.688 742.631 398.598 742.631 401.105C742.631 402.699 742.197 404.088 741.33 405.271C740.474 406.455 739.279 407.34 737.744 407.926L743.756 418.789V419H740.135L734.58 408.646ZM728.568 405.887H733.754C735.43 405.887 736.76 405.453 737.744 404.586C738.74 403.719 739.238 402.559 739.238 401.105C739.238 399.523 738.764 398.311 737.814 397.467C736.877 396.623 735.517 396.195 733.736 396.184H728.568V405.887ZM755.278 407.592C752.383 406.76 750.274 405.74 748.95 404.533C747.637 403.314 746.981 401.814 746.981 400.033C746.981 398.018 747.784 396.354 749.389 395.041C751.006 393.717 753.104 393.055 755.682 393.055C757.44 393.055 759.004 393.395 760.375 394.074C761.758 394.754 762.825 395.691 763.575 396.887C764.336 398.082 764.717 399.389 764.717 400.807H761.325C761.325 399.26 760.833 398.047 759.848 397.168C758.864 396.277 757.475 395.832 755.682 395.832C754.018 395.832 752.717 396.201 751.78 396.939C750.854 397.666 750.391 398.68 750.391 399.98C750.391 401.023 750.831 401.908 751.709 402.635C752.6 403.35 754.106 404.006 756.227 404.604C758.36 405.201 760.024 405.863 761.219 406.59C762.426 407.305 763.317 408.143 763.891 409.104C764.477 410.064 764.77 411.195 764.77 412.496C764.77 414.57 763.961 416.234 762.344 417.488C760.727 418.73 758.565 419.352 755.858 419.352C754.1 419.352 752.459 419.018 750.936 418.35C749.413 417.67 748.235 416.744 747.403 415.572C746.583 414.4 746.172 413.07 746.172 411.582H749.565C749.565 413.129 750.133 414.354 751.27 415.256C752.418 416.146 753.948 416.592 755.858 416.592C757.639 416.592 759.004 416.229 759.954 415.502C760.903 414.775 761.377 413.785 761.377 412.531C761.377 411.277 760.938 410.311 760.059 409.631C759.18 408.939 757.586 408.26 755.278 407.592Z" fill="#EBEBF5"/>
<g filter="url(#filter0_f)">
<path d="M195.82 82V84H197.82V82H195.82ZM179.316 82H177.316V84H179.316V82ZM179.316 29.4609H181.316V26.793L178.756 27.5412L179.316 29.4609ZM163.105 34.1973H161.105V36.8652L163.666 36.117L163.105 34.1973ZM163.105 21.6973L162.452 19.8071L161.105 20.2727V21.6973H163.105ZM194.307 10.9062V8.90625H193.971L193.653 9.0161L194.307 10.9062ZM195.82 10.9062H197.82V8.90625H195.82V10.9062ZM195.82 80H179.316V84H195.82V80ZM181.316 82V29.4609H177.316V82H181.316ZM178.756 27.5412L162.545 32.2775L163.666 36.117L179.877 31.3807L178.756 27.5412ZM165.105 34.1973V21.6973H161.105V34.1973H165.105ZM163.759 23.5874L194.96 12.7964L193.653 9.0161L162.452 19.8071L163.759 23.5874ZM194.307 12.9062H195.82V8.90625H194.307V12.9062ZM193.82 10.9062V82H197.82V10.9062H193.82Z" fill="url(#paint0_linear)" fill-opacity="0.4"/>
</g>
<path d="M37.4771 416.24H49.606V419H34.0845V393.406H37.4771V416.24ZM57.4367 419H54.0617V393.406H57.4367V419ZM72.4569 414.518L79.7694 393.406H83.4608L73.9686 419H70.9803L61.5057 393.406H65.1795L72.4569 414.518ZM101.733 407.17H90.6411V416.24H103.526V419H87.2661V393.406H103.35V396.184H90.6411V404.41H101.733V407.17ZM125.849 414.518L133.162 393.406H136.853L127.361 419H124.373L114.898 393.406H118.572L125.849 414.518ZM144.28 419H140.905V393.406H144.28V419ZM165.294 407.17H154.202V416.24H167.087V419H150.827V393.406H166.911V396.184H154.202V404.41H165.294V407.17ZM177.168 410.932L177.66 414.307L178.381 411.266L183.443 393.406H186.291L191.23 411.266L191.933 414.359L192.478 410.914L196.451 393.406H199.843L193.638 419H190.562L185.289 400.35L184.884 398.398L184.48 400.35L179.013 419H175.937L169.75 393.406H173.125L177.168 410.932ZM218.432 407.17H207.34V416.24H220.225V419H203.965V393.406H220.049V396.184H207.34V404.41H218.432V407.17ZM234.173 408.646H228.161V419H224.769V393.406H233.241C236.124 393.406 238.339 394.062 239.886 395.375C241.444 396.688 242.224 398.598 242.224 401.105C242.224 402.699 241.79 404.088 240.923 405.271C240.067 406.455 238.872 407.34 237.337 407.926L243.349 418.789V419H239.728L234.173 408.646ZM228.161 405.887H233.347C235.022 405.887 236.353 405.453 237.337 404.586C238.333 403.719 238.831 402.559 238.831 401.105C238.831 399.523 238.356 398.311 237.407 397.467C236.47 396.623 235.11 396.195 233.329 396.184H228.161V405.887ZM254.871 407.592C251.976 406.76 249.867 405.74 248.543 404.533C247.23 403.314 246.574 401.814 246.574 400.033C246.574 398.018 247.377 396.354 248.982 395.041C250.599 393.717 252.697 393.055 255.275 393.055C257.033 393.055 258.597 393.395 259.968 394.074C261.351 394.754 262.418 395.691 263.168 396.887C263.929 398.082 264.31 399.389 264.31 400.807H260.918C260.918 399.26 260.425 398.047 259.441 397.168C258.457 396.277 257.068 395.832 255.275 395.832C253.611 395.832 252.31 396.201 251.373 396.939C250.447 397.666 249.984 398.68 249.984 399.98C249.984 401.023 250.423 401.908 251.302 402.635C252.193 403.35 253.699 404.006 255.82 404.604C257.953 405.201 259.617 405.863 260.812 406.59C262.019 407.305 262.91 408.143 263.484 409.104C264.07 410.064 264.363 411.195 264.363 412.496C264.363 414.57 263.554 416.234 261.937 417.488C260.32 418.73 258.158 419.352 255.451 419.352C253.693 419.352 252.052 419.018 250.529 418.35C249.005 417.67 247.828 416.744 246.996 415.572C246.175 414.4 245.765 413.07 245.765 411.582H249.158C249.158 413.129 249.726 414.354 250.863 415.256C252.011 416.146 253.541 416.592 255.451 416.592C257.232 416.592 258.597 416.229 259.546 415.502C260.496 414.775 260.97 413.785 260.97 412.531C260.97 411.277 260.531 410.311 259.652 409.631C258.773 408.939 257.179 408.26 254.871 407.592ZM276.477 414.406C276.477 413.271 276.623 412.169 276.915 411.102C277.207 410.029 277.634 409.049 278.196 408.164C278.759 407.273 279.363 406.635 280.009 406.25L280.235 406.883C279.891 407.128 279.55 407.484 279.212 407.953C278.873 408.422 278.571 408.979 278.306 409.625C278.04 410.271 277.824 410.997 277.657 411.805C277.496 412.607 277.415 413.518 277.415 414.539C277.415 415.628 277.537 416.674 277.782 417.68C278.032 418.685 278.373 419.57 278.806 420.336C279.238 421.107 279.714 421.685 280.235 422.07L280.009 422.672C279.347 422.276 278.735 421.635 278.173 420.75C277.61 419.87 277.186 418.901 276.899 417.844C276.618 416.781 276.477 415.635 276.477 414.406ZM285.145 419.156C284.426 419.156 283.775 418.979 283.192 418.625C282.614 418.271 282.163 417.779 281.841 417.148C281.518 416.513 281.356 415.802 281.356 415.016V414.68C281.356 413.867 281.512 413.135 281.825 412.484C282.143 411.833 282.583 411.323 283.145 410.953C283.708 410.578 284.317 410.391 284.973 410.391C285.999 410.391 286.812 410.742 287.411 411.445C288.015 412.143 288.317 413.099 288.317 414.312V414.836H282.286V415.016C282.286 415.974 282.559 416.773 283.106 417.414C283.658 418.049 284.351 418.367 285.184 418.367C285.684 418.367 286.124 418.276 286.505 418.094C286.89 417.911 287.239 417.62 287.551 417.219L288.137 417.664C287.45 418.659 286.453 419.156 285.145 419.156ZM284.973 411.188C284.27 411.188 283.676 411.445 283.192 411.961C282.713 412.477 282.421 413.169 282.317 414.039H287.387V413.938C287.361 413.125 287.13 412.464 286.692 411.953C286.255 411.443 285.682 411.188 284.973 411.188ZM292.954 413.977L295.235 410.547H296.344L293.477 414.695L296.469 419H295.368L292.961 415.422L290.555 419H289.454L292.438 414.695L289.571 410.547H290.672L292.954 413.977ZM305.036 414.859C305.036 416.177 304.744 417.224 304.161 418C303.577 418.771 302.796 419.156 301.817 419.156C300.661 419.156 299.775 418.75 299.161 417.938V422.25H298.231V410.547H299.098L299.145 411.742C299.754 410.841 300.637 410.391 301.793 410.391C302.804 410.391 303.595 410.773 304.168 411.539C304.746 412.305 305.036 413.367 305.036 414.727V414.859ZM304.098 414.695C304.098 413.617 303.877 412.766 303.434 412.141C302.991 411.516 302.374 411.203 301.582 411.203C301.01 411.203 300.517 411.341 300.106 411.617C299.694 411.893 299.379 412.294 299.161 412.82V416.875C299.385 417.359 299.705 417.729 300.121 417.984C300.538 418.24 301.03 418.367 301.598 418.367C302.385 418.367 302.996 418.055 303.434 417.43C303.877 416.799 304.098 415.888 304.098 414.695ZM310.547 419.156C309.828 419.156 309.177 418.979 308.594 418.625C308.016 418.271 307.565 417.779 307.242 417.148C306.92 416.513 306.758 415.802 306.758 415.016V414.68C306.758 413.867 306.914 413.135 307.227 412.484C307.545 411.833 307.985 411.323 308.547 410.953C309.11 410.578 309.719 410.391 310.375 410.391C311.401 410.391 312.214 410.742 312.813 411.445C313.417 412.143 313.719 413.099 313.719 414.312V414.836H307.688V415.016C307.688 415.974 307.961 416.773 308.508 417.414C309.06 418.049 309.753 418.367 310.586 418.367C311.086 418.367 311.526 418.276 311.906 418.094C312.292 417.911 312.641 417.62 312.953 417.219L313.539 417.664C312.852 418.659 311.854 419.156 310.547 419.156ZM310.375 411.188C309.672 411.188 309.078 411.445 308.594 411.961C308.115 412.477 307.823 413.169 307.719 414.039H312.789V413.938C312.763 413.125 312.531 412.464 312.094 411.953C311.656 411.443 311.084 411.188 310.375 411.188ZM318.824 418.367C319.475 418.367 320.02 418.185 320.457 417.82C320.9 417.451 321.139 416.974 321.176 416.391H322.074C322.048 416.906 321.887 417.378 321.59 417.805C321.293 418.227 320.897 418.557 320.402 418.797C319.913 419.036 319.387 419.156 318.824 419.156C317.715 419.156 316.835 418.771 316.184 418C315.538 417.229 315.215 416.193 315.215 414.891V414.609C315.215 413.776 315.361 413.039 315.652 412.398C315.944 411.758 316.361 411.263 316.902 410.914C317.449 410.565 318.087 410.391 318.816 410.391C319.744 410.391 320.507 410.667 321.106 411.219C321.71 411.771 322.033 412.497 322.074 413.398H321.176C321.134 412.737 320.895 412.203 320.457 411.797C320.025 411.391 319.478 411.188 318.816 411.188C317.973 411.188 317.316 411.492 316.848 412.102C316.384 412.711 316.152 413.565 316.152 414.664V414.938C316.152 416.016 316.384 416.857 316.848 417.461C317.316 418.065 317.975 418.367 318.824 418.367ZM325.562 408.383V410.547H327.312V411.312H325.562V416.945C325.562 417.414 325.646 417.763 325.812 417.992C325.984 418.221 326.268 418.336 326.664 418.336C326.82 418.336 327.073 418.31 327.422 418.258L327.461 419.023C327.216 419.112 326.883 419.156 326.461 419.156C325.82 419.156 325.354 418.971 325.062 418.602C324.771 418.227 324.625 417.677 324.625 416.953V411.312H323.07V410.547H324.625V408.383H325.562ZM332.683 419.156C331.965 419.156 331.314 418.979 330.73 418.625C330.152 418.271 329.702 417.779 329.379 417.148C329.056 416.513 328.894 415.802 328.894 415.016V414.68C328.894 413.867 329.051 413.135 329.363 412.484C329.681 411.833 330.121 411.323 330.683 410.953C331.246 410.578 331.855 410.391 332.511 410.391C333.538 410.391 334.35 410.742 334.949 411.445C335.553 412.143 335.855 413.099 335.855 414.312V414.836H329.824V415.016C329.824 415.974 330.097 416.773 330.644 417.414C331.196 418.049 331.889 418.367 332.722 418.367C333.222 418.367 333.663 418.276 334.043 418.094C334.428 417.911 334.777 417.62 335.09 417.219L335.676 417.664C334.988 418.659 333.991 419.156 332.683 419.156ZM332.511 411.188C331.808 411.188 331.215 411.445 330.73 411.961C330.251 412.477 329.959 413.169 329.855 414.039H334.926V413.938C334.899 413.125 334.668 412.464 334.23 411.953C333.793 411.443 333.22 411.188 332.511 411.188ZM337.461 414.695C337.461 413.383 337.752 412.339 338.336 411.562C338.924 410.781 339.721 410.391 340.726 410.391C341.867 410.391 342.737 410.841 343.336 411.742V407H344.265V419H343.39L343.351 417.875C342.752 418.729 341.872 419.156 340.711 419.156C339.737 419.156 338.95 418.766 338.351 417.984C337.757 417.198 337.461 416.138 337.461 414.805V414.695ZM338.406 414.859C338.406 415.938 338.622 416.789 339.054 417.414C339.487 418.034 340.096 418.344 340.882 418.344C342.033 418.344 342.851 417.836 343.336 416.82V412.852C342.851 411.753 342.039 411.203 340.898 411.203C340.112 411.203 339.5 411.513 339.062 412.133C338.625 412.747 338.406 413.656 338.406 414.859ZM349.683 414.523C349.683 415.669 349.54 416.773 349.253 417.836C348.972 418.893 348.553 419.862 347.996 420.742C347.438 421.622 346.824 422.266 346.152 422.672L345.925 422.07C346.436 421.706 346.907 421.141 347.339 420.375C347.777 419.609 348.121 418.719 348.371 417.703C348.621 416.682 348.746 415.576 348.746 414.383C348.746 413.305 348.621 412.266 348.371 411.266C348.121 410.26 347.774 409.365 347.331 408.578C346.894 407.786 346.425 407.211 345.925 406.852L346.152 406.25C346.808 406.651 347.415 407.292 347.972 408.172C348.529 409.052 348.954 410.029 349.246 411.102C349.537 412.174 349.683 413.315 349.683 414.523Z" fill="#EBEBF5"/>
<g filter="url(#filter1_d)">
<path d="M38.8594 345V347H40.8594V345H38.8594ZM22.3555 345H20.3555V347H22.3555V345ZM22.3555 292.461H24.3555V289.793L21.7946 290.541L22.3555 292.461ZM6.14453 297.197H4.14453V299.865L6.70542 299.117L6.14453 297.197ZM6.14453 284.697L5.49082 282.807L4.14453 283.273V284.697H6.14453ZM37.3457 273.906V271.906H37.0096L36.692 272.016L37.3457 273.906ZM38.8594 273.906H40.8594V271.906H38.8594V273.906ZM38.8594 343H22.3555V347H38.8594V343ZM24.3555 345V292.461H20.3555V345H24.3555ZM21.7946 290.541L5.58364 295.278L6.70542 299.117L22.9164 294.381L21.7946 290.541ZM8.14453 297.197V284.697H4.14453V297.197H8.14453ZM6.79824 286.587L37.9994 275.796L36.692 272.016L5.49082 282.807L6.79824 286.587ZM37.3457 275.906H38.8594V271.906H37.3457V275.906ZM36.8594 273.906V345H40.8594V273.906H36.8594ZM104.166 338.164L102.628 336.886L102.623 336.891L104.166 338.164ZM67.5449 280.742L66.0069 279.464L66.0022 279.469L67.5449 280.742ZM92.2031 289.434L90.4328 290.364L90.4378 290.374L92.2031 289.434ZM79.6543 289.141L77.906 288.169L77.9008 288.179L77.8957 288.188L79.6543 289.141ZM77.6035 299.785L75.6039 299.744L75.6035 299.765V299.785H77.6035ZM79.6055 329.619L77.8452 330.569L77.8506 330.578L79.6055 329.619ZM92.1543 329.717L93.8981 330.696L93.9037 330.686L92.1543 329.717ZM94.2051 318.438L96.2051 318.45V318.438H94.2051ZM108.66 315.947C108.66 325.275 106.556 332.161 102.628 336.886L105.704 339.443C110.435 333.751 112.66 325.825 112.66 315.947H108.66ZM102.623 336.891C98.77 341.562 93.3091 343.977 85.9531 343.977V347.977C94.2873 347.977 100.968 345.183 105.709 339.437L102.623 336.891ZM85.9531 343.977C78.5306 343.977 73.0209 341.545 69.1357 336.841L66.0518 339.389C70.8255 345.168 77.5553 347.977 85.9531 347.977V343.977ZM69.1357 336.841C65.2019 332.08 63.0996 325.205 63.0996 315.947H59.0996C59.0996 325.765 61.3267 333.669 66.0518 339.389L69.1357 336.841ZM63.0996 315.947V302.959H59.0996V315.947H63.0996ZM63.0996 302.959C63.0996 293.628 65.1893 286.74 69.0877 282.015L66.0022 279.469C61.3068 285.161 59.0996 293.084 59.0996 302.959H63.0996ZM69.0829 282.021C72.9683 277.347 78.4642 274.93 85.8555 274.93V270.93C77.4915 270.93 70.7804 273.721 66.0069 279.464L69.0829 282.021ZM85.8555 274.93C93.2424 274.93 98.7372 277.36 102.624 282.065L105.708 279.517C100.936 273.741 94.2238 270.93 85.8555 270.93V274.93ZM102.624 282.065C106.557 286.826 108.66 293.716 108.66 303.008H112.66C112.66 293.159 110.434 285.238 105.708 279.517L102.624 282.065ZM108.66 303.008V315.947H112.66V303.008H108.66ZM96.2051 300.859C96.2051 295.644 95.5359 291.437 93.9685 288.494L90.4378 290.374C91.5396 292.443 92.2051 295.853 92.2051 300.859H96.2051ZM93.9734 288.503C93.1637 286.963 92.0646 285.714 90.6442 284.862C89.2249 284.011 87.6027 283.625 85.8555 283.625V287.625C87.0054 287.625 87.8896 287.874 88.5862 288.292C89.2817 288.709 89.9079 289.366 90.4328 290.364L93.9734 288.503ZM85.8555 283.625C84.1601 283.625 82.582 283.978 81.1948 284.764C79.8019 285.554 78.7121 286.718 77.906 288.169L81.4026 290.112C81.8986 289.219 82.4934 288.626 83.1675 288.244C83.8473 287.858 84.7188 287.625 85.8555 287.625V283.625ZM77.8957 288.188C76.3979 290.953 75.7038 294.886 75.6039 299.744L79.6031 299.826C79.6986 295.179 80.3717 292.015 81.4129 290.093L77.8957 288.188ZM75.6035 299.785V317.949H79.6035V299.785H75.6035ZM75.6035 317.949C75.6035 323.341 76.2677 327.644 77.8453 330.569L81.3657 328.67C80.274 326.646 79.6035 323.169 79.6035 317.949H75.6035ZM77.8506 330.578C78.669 332.076 79.7756 333.28 81.1939 334.098C82.6079 334.914 84.2193 335.281 85.9531 335.281V331.281C84.7899 331.281 83.8947 331.038 83.1928 330.633C82.4952 330.231 81.8766 329.604 81.3604 328.66L77.8506 330.578ZM85.9531 335.281C87.6413 335.281 89.2138 334.921 90.5997 334.124C91.9883 333.326 93.08 332.153 93.8981 330.696L90.4105 328.737C89.894 329.657 89.2848 330.266 88.6063 330.656C87.9252 331.048 87.0645 331.281 85.9531 331.281V335.281ZM93.9037 330.686C95.4871 327.828 96.1719 323.655 96.205 318.45L92.2051 318.425C92.1732 323.442 91.4908 326.788 90.4049 328.748L93.9037 330.686ZM96.2051 318.438V300.859H92.2051V318.438H96.2051ZM126.26 364.141L125.408 365.95L126.577 366.5L127.559 365.662L126.26 364.141ZM117.959 360.234L116.17 359.34L115.254 361.172L117.107 362.044L117.959 360.234ZM119.619 356.914L117.858 355.966L117.844 355.993L117.83 356.02L119.619 356.914ZM123.184 344.805L125.183 344.856L125.184 344.83V344.805H123.184ZM123.184 332.598V330.598H121.184V332.598H123.184ZM136.367 332.598L138.367 332.607L138.376 330.598H136.367V332.598ZM136.318 343.193L138.318 343.211L138.318 343.203L136.318 343.193ZM127.111 362.331L118.811 358.425L117.107 362.044L125.408 365.95L127.111 362.331ZM119.748 361.129L121.408 357.808L117.83 356.02L116.17 359.34L119.748 361.129ZM121.38 357.862C123.771 353.422 125.076 349.079 125.183 344.856L121.184 344.754C121.096 348.213 120.025 351.943 117.858 355.966L121.38 357.862ZM125.184 344.805V332.598H121.184V344.805H125.184ZM123.184 334.598H136.367V330.598H123.184V334.598ZM134.367 332.588L134.318 343.184L138.318 343.203L138.367 332.607L134.367 332.588ZM134.318 343.176C134.289 346.58 133.417 350.096 131.64 353.743L135.235 355.495C137.234 351.394 138.283 347.294 138.318 343.211L134.318 343.176ZM131.64 353.743C129.856 357.402 127.624 360.346 124.961 362.62L127.559 365.662C130.69 362.987 133.243 359.584 135.235 355.495L131.64 353.743ZM191.029 338.164L189.491 336.886L189.487 336.891L191.029 338.164ZM154.408 280.742L152.87 279.464L152.865 279.469L154.408 280.742ZM179.066 289.434L177.296 290.364L177.301 290.374L179.066 289.434ZM166.518 289.141L164.769 288.169L164.764 288.179L164.759 288.188L166.518 289.141ZM164.467 299.785L162.467 299.744L162.467 299.765V299.785H164.467ZM166.469 329.619L164.709 330.569L164.714 330.578L166.469 329.619ZM179.018 329.717L180.761 330.696L180.767 330.686L179.018 329.717ZM181.068 318.438L183.068 318.45V318.438H181.068ZM195.523 315.947C195.523 325.275 193.419 332.161 189.491 336.886L192.567 339.443C197.299 333.751 199.523 325.825 199.523 315.947H195.523ZM189.487 336.891C185.633 341.562 180.172 343.977 172.816 343.977V347.977C181.151 347.977 187.832 345.183 192.572 339.437L189.487 336.891ZM172.816 343.977C165.394 343.977 159.884 341.545 155.999 336.841L152.915 339.389C157.689 345.168 164.419 347.977 172.816 347.977V343.977ZM155.999 336.841C152.065 332.08 149.963 325.205 149.963 315.947H145.963C145.963 325.765 148.19 333.669 152.915 339.389L155.999 336.841ZM149.963 315.947V302.959H145.963V315.947H149.963ZM149.963 302.959C149.963 293.628 152.053 286.74 155.951 282.015L152.865 279.469C148.17 285.161 145.963 293.084 145.963 302.959H149.963ZM155.946 282.021C159.832 277.347 165.327 274.93 172.719 274.93V270.93C164.355 270.93 157.644 273.721 152.87 279.464L155.946 282.021ZM172.719 274.93C180.106 274.93 185.601 277.36 189.487 282.065L192.571 279.517C187.799 273.741 181.087 270.93 172.719 270.93V274.93ZM189.487 282.065C193.42 286.826 195.523 293.716 195.523 303.008H199.523C199.523 293.159 197.297 285.238 192.571 279.517L189.487 282.065ZM195.523 303.008V315.947H199.523V303.008H195.523ZM183.068 300.859C183.068 295.644 182.399 291.437 180.832 288.494L177.301 290.374C178.403 292.443 179.068 295.853 179.068 300.859H183.068ZM180.837 288.503C180.027 286.963 178.928 285.714 177.508 284.862C176.088 284.011 174.466 283.625 172.719 283.625V287.625C173.869 287.625 174.753 287.874 175.45 288.292C176.145 288.709 176.771 289.366 177.296 290.364L180.837 288.503ZM172.719 283.625C171.023 283.625 169.445 283.978 168.058 284.764C166.665 285.554 165.575 286.718 164.769 288.169L168.266 290.112C168.762 289.219 169.357 288.626 170.031 288.244C170.711 287.858 171.582 287.625 172.719 287.625V283.625ZM164.759 288.188C163.261 290.953 162.567 294.886 162.467 299.744L166.466 299.826C166.562 295.179 167.235 292.015 168.276 290.093L164.759 288.188ZM162.467 299.785V317.949H166.467V299.785H162.467ZM162.467 317.949C162.467 323.341 163.131 327.644 164.709 330.569L168.229 328.67C167.137 326.646 166.467 323.169 166.467 317.949H162.467ZM164.714 330.578C165.532 332.076 166.639 333.28 168.057 334.098C169.471 334.914 171.083 335.281 172.816 335.281V331.281C171.653 331.281 170.758 331.038 170.056 330.633C169.358 330.231 168.74 329.604 168.224 328.66L164.714 330.578ZM172.816 335.281C174.505 335.281 176.077 334.921 177.463 334.124C178.852 333.326 179.943 332.153 180.761 330.696L177.274 328.737C176.757 329.657 176.148 330.266 175.47 330.656C174.788 331.048 173.928 331.281 172.816 331.281V335.281ZM180.767 330.686C182.35 327.828 183.035 323.655 183.068 318.45L179.068 318.425C179.036 323.442 178.354 326.788 177.268 328.748L180.767 330.686ZM183.068 318.438V300.859H179.068V318.438H183.068ZM249.939 338.164L248.401 336.886L248.397 336.891L249.939 338.164ZM213.318 280.742L211.78 279.464L211.776 279.469L213.318 280.742ZM237.977 289.434L236.206 290.364L236.211 290.374L237.977 289.434ZM225.428 289.141L223.679 288.169L223.674 288.179L223.669 288.188L225.428 289.141ZM223.377 299.785L221.377 299.744L221.377 299.765V299.785H223.377ZM225.379 329.619L223.619 330.569L223.624 330.578L225.379 329.619ZM237.928 329.717L239.672 330.696L239.677 330.686L237.928 329.717ZM239.979 318.438L241.979 318.45V318.438H239.979ZM254.434 315.947C254.434 325.275 252.329 332.161 248.401 336.886L251.477 339.443C256.209 333.751 258.434 325.825 258.434 315.947H254.434ZM248.397 336.891C244.543 341.562 239.082 343.977 231.727 343.977V347.977C240.061 347.977 246.742 345.183 251.482 339.437L248.397 336.891ZM231.727 343.977C224.304 343.977 218.794 341.545 214.909 336.841L211.825 339.389C216.599 345.168 223.329 347.977 231.727 347.977V343.977ZM214.909 336.841C210.975 332.08 208.873 325.205 208.873 315.947H204.873C204.873 325.765 207.1 333.669 211.825 339.389L214.909 336.841ZM208.873 315.947V302.959H204.873V315.947H208.873ZM208.873 302.959C208.873 293.628 210.963 286.74 214.861 282.015L211.776 279.469C207.08 285.161 204.873 293.084 204.873 302.959H208.873ZM214.856 282.021C218.742 277.347 224.238 274.93 231.629 274.93V270.93C223.265 270.93 216.554 273.721 211.78 279.464L214.856 282.021ZM231.629 274.93C239.016 274.93 244.511 277.36 248.398 282.065L251.481 279.517C246.709 273.741 239.997 270.93 231.629 270.93V274.93ZM248.398 282.065C252.33 286.826 254.434 293.716 254.434 303.008H258.434C258.434 293.159 256.207 285.238 251.481 279.517L248.398 282.065ZM254.434 303.008V315.947H258.434V303.008H254.434ZM241.979 300.859C241.979 295.644 241.309 291.437 239.742 288.494L236.211 290.374C237.313 292.443 237.979 295.853 237.979 300.859H241.979ZM239.747 288.503C238.937 286.963 237.838 285.714 236.418 284.862C234.998 284.011 233.376 283.625 231.629 283.625V287.625C232.779 287.625 233.663 287.874 234.36 288.292C235.055 288.709 235.681 289.366 236.206 290.364L239.747 288.503ZM231.629 283.625C229.934 283.625 228.355 283.978 226.968 284.764C225.575 285.554 224.486 286.718 223.679 288.169L227.176 290.112C227.672 289.219 228.267 288.626 228.941 288.244C229.621 287.858 230.492 287.625 231.629 287.625V283.625ZM223.669 288.188C222.171 290.953 221.477 294.886 221.377 299.744L225.377 299.826C225.472 295.179 226.145 292.015 227.186 290.093L223.669 288.188ZM221.377 299.785V317.949H225.377V299.785H221.377ZM221.377 317.949C221.377 323.341 222.041 327.644 223.619 330.569L227.139 328.67C226.047 326.646 225.377 323.169 225.377 317.949H221.377ZM223.624 330.578C224.442 332.076 225.549 333.28 226.967 334.098C228.381 334.914 229.993 335.281 231.727 335.281V331.281C230.563 331.281 229.668 331.038 228.966 330.633C228.269 330.231 227.65 329.604 227.134 328.66L223.624 330.578ZM231.727 335.281C233.415 335.281 234.987 334.921 236.373 334.124C237.762 333.326 238.853 332.153 239.672 330.696L236.184 328.737C235.667 329.657 235.058 330.266 234.38 330.656C233.699 331.048 232.838 331.281 231.727 331.281V335.281ZM239.677 330.686C241.261 327.828 241.945 323.655 241.978 318.45L237.979 318.425C237.947 323.442 237.264 326.788 236.178 328.748L239.677 330.686ZM241.979 318.438V300.859H237.979V318.438H241.979ZM308.85 338.164L307.312 336.886L307.307 336.891L308.85 338.164ZM272.229 280.742L270.69 279.464L270.686 279.469L272.229 280.742ZM296.887 289.434L295.116 290.364L295.121 290.374L296.887 289.434ZM284.338 289.141L282.59 288.169L282.584 288.179L282.579 288.188L284.338 289.141ZM282.287 299.785L280.288 299.744L280.287 299.765V299.785H282.287ZM284.289 329.619L282.529 330.569L282.534 330.578L284.289 329.619ZM296.838 329.717L298.582 330.696L298.587 330.686L296.838 329.717ZM298.889 318.438L300.889 318.45V318.438H298.889ZM313.344 315.947C313.344 325.275 311.239 332.161 307.312 336.886L310.388 339.443C315.119 333.751 317.344 325.825 317.344 315.947H313.344ZM307.307 336.891C303.454 341.562 297.993 343.977 290.637 343.977V347.977C298.971 347.977 305.652 345.183 310.392 339.437L307.307 336.891ZM290.637 343.977C283.214 343.977 277.704 341.545 273.819 336.841L270.735 339.389C275.509 345.168 282.239 347.977 290.637 347.977V343.977ZM273.819 336.841C269.885 332.08 267.783 325.205 267.783 315.947H263.783C263.783 325.765 266.01 333.669 270.735 339.389L273.819 336.841ZM267.783 315.947V302.959H263.783V315.947H267.783ZM267.783 302.959C267.783 293.628 269.873 286.74 273.771 282.015L270.686 279.469C265.99 285.161 263.783 293.084 263.783 302.959H267.783ZM273.767 282.021C277.652 277.347 283.148 274.93 290.539 274.93V270.93C282.175 270.93 275.464 273.721 270.69 279.464L273.767 282.021ZM290.539 274.93C297.926 274.93 303.421 277.36 307.308 282.065L310.392 279.517C305.62 273.741 298.907 270.93 290.539 270.93V274.93ZM307.308 282.065C311.241 286.826 313.344 293.716 313.344 303.008H317.344C317.344 293.159 315.118 285.238 310.392 279.517L307.308 282.065ZM313.344 303.008V315.947H317.344V303.008H313.344ZM300.889 300.859C300.889 295.644 300.22 291.437 298.652 288.494L295.121 290.374C296.223 292.443 296.889 295.853 296.889 300.859H300.889ZM298.657 288.503C297.847 286.963 296.748 285.714 295.328 284.862C293.909 284.011 292.286 283.625 290.539 283.625V287.625C291.689 287.625 292.573 287.874 293.27 288.292C293.965 288.709 294.591 289.366 295.116 290.364L298.657 288.503ZM290.539 283.625C288.844 283.625 287.266 283.978 285.878 284.764C284.485 285.554 283.396 286.718 282.59 288.169L286.086 290.112C286.582 289.219 287.177 288.626 287.851 288.244C288.531 287.858 289.402 287.625 290.539 287.625V283.625ZM282.579 288.188C281.081 290.953 280.387 294.886 280.288 299.744L284.287 299.826C284.382 295.179 285.055 292.015 286.096 290.093L282.579 288.188ZM280.287 299.785V317.949H284.287V299.785H280.287ZM280.287 317.949C280.287 323.341 280.951 327.644 282.529 330.569L286.049 328.67C284.958 326.646 284.287 323.169 284.287 317.949H280.287ZM282.534 330.578C283.353 332.076 284.459 333.28 285.878 334.098C287.292 334.914 288.903 335.281 290.637 335.281V331.281C289.473 331.281 288.578 331.038 287.876 330.633C287.179 330.231 286.56 329.604 286.044 328.66L282.534 330.578ZM290.637 335.281C292.325 335.281 293.897 334.921 295.283 334.124C296.672 333.326 297.764 332.153 298.582 330.696L295.094 328.737C294.578 329.657 293.968 330.266 293.29 330.656C292.609 331.048 291.748 331.281 290.637 331.281V335.281ZM298.587 330.686C300.171 327.828 300.855 323.655 300.889 318.45L296.889 318.425C296.857 323.442 296.174 326.788 295.088 328.748L298.587 330.686ZM300.889 318.438V300.859H296.889V318.438H300.889ZM363.82 304.668H361.82V306.668H363.82V304.668ZM380.471 304.668H382.471V302.668H380.471V304.668ZM380.471 318.779V320.779H382.471V318.779H380.471ZM363.82 318.779V316.779H361.82V318.779H363.82ZM363.82 337.871V339.871H365.82V337.871H363.82ZM348.439 337.871H346.439V339.871H348.439V337.871ZM348.439 318.779H350.439V316.779H348.439V318.779ZM331.74 318.779H329.74V320.779H331.74V318.779ZM331.74 304.668V302.668H329.74V304.668H331.74ZM348.439 304.668V306.668H350.439V304.668H348.439ZM348.439 286.113V284.113H346.439V286.113H348.439ZM363.82 286.113H365.82V284.113H363.82V286.113ZM363.82 306.668H380.471V302.668H363.82V306.668ZM378.471 304.668V318.779H382.471V304.668H378.471ZM380.471 316.779H363.82V320.779H380.471V316.779ZM361.82 318.779V337.871H365.82V318.779H361.82ZM363.82 335.871H348.439V339.871H363.82V335.871ZM350.439 337.871V318.779H346.439V337.871H350.439ZM348.439 316.779H331.74V320.779H348.439V316.779ZM333.74 318.779V304.668H329.74V318.779H333.74ZM331.74 306.668H348.439V302.668H331.74V306.668ZM350.439 304.668V286.113H346.439V304.668H350.439ZM348.439 288.113H363.82V284.113H348.439V288.113ZM361.82 286.113V304.668H365.82V286.113H361.82Z" fill="url(#paint1_linear)"/>
</g>
<g filter="url(#filter2_f)">
<path d="M628.701 346H629.701V345V273.906V272.906H628.701H627.188H627.019L626.861 272.961L595.659 283.752L594.986 283.985V284.697V297.197V298.531L596.267 298.157L611.197 293.795V345V346H612.197H628.701ZM651.12 310.116L651.014 311.003L651.884 311.208L664.97 314.284L665.601 314.432L665.994 313.917C667.649 311.749 670.183 310.6 673.793 310.6C676.993 310.6 679.219 311.491 680.664 313.11C682.129 314.751 682.949 317.312 682.949 320.977C682.949 324.997 682.265 327.837 681.045 329.646C679.872 331.385 678.129 332.281 675.648 332.281C673.435 332.281 671.737 331.597 670.455 330.287C669.16 328.964 668.399 327.142 668.248 324.723L668.189 323.785H667.25H650.746H649.754L649.746 324.777C649.712 329.011 650.86 332.843 653.193 336.24L653.196 336.244C655.52 339.593 658.723 342.224 662.768 344.145L662.774 344.148C666.818 346.035 671.146 346.977 675.746 346.977C680.892 346.977 685.407 345.957 689.258 343.878C693.106 341.801 696.094 338.83 698.204 334.984C700.342 331.114 701.404 326.812 701.404 322.1C701.404 314.385 699.458 308.255 695.432 303.85C691.421 299.391 685.701 297.223 678.432 297.223C676.513 297.223 674.553 297.497 672.555 298.039L672.55 298.04C671.394 298.359 670.351 298.712 669.428 299.103L670.73 287.699H698.012H699.012V286.699V273.906V272.906H698.012H656.459H655.571L655.466 273.787L651.12 310.116ZM766.629 304.668V303.668H765.629H749.979V286.113V285.113H748.979H733.598H732.598V286.113V303.668H716.898H715.898V304.668V318.779V319.779H716.898H732.598V337.871V338.871H733.598H748.979H749.979V337.871V319.779H765.629H766.629V318.779V304.668Z" stroke="url(#paint2_linear)" stroke-opacity="0.4" stroke-width="2"/>
</g>
<path d="M641.641 156H638.248V144.17H625.346V156H621.971V130.406H625.346V141.41H638.248V130.406H641.641V156ZM667.682 144.029C667.682 146.537 667.26 148.729 666.417 150.604C665.573 152.467 664.378 153.891 662.831 154.875C661.284 155.859 659.479 156.352 657.417 156.352C655.401 156.352 653.614 155.859 652.055 154.875C650.497 153.879 649.284 152.467 648.417 150.639C647.561 148.799 647.122 146.672 647.098 144.258V142.412C647.098 139.951 647.526 137.777 648.381 135.891C649.237 134.004 650.444 132.562 652.003 131.566C653.573 130.559 655.366 130.055 657.381 130.055C659.432 130.055 661.237 130.553 662.796 131.549C664.366 132.533 665.573 133.969 666.417 135.855C667.26 137.73 667.682 139.916 667.682 142.412V144.029ZM664.325 142.377C664.325 139.342 663.715 137.016 662.497 135.398C661.278 133.77 659.573 132.955 657.381 132.955C655.249 132.955 653.567 133.77 652.337 135.398C651.118 137.016 650.491 139.266 650.456 142.148V144.029C650.456 146.971 651.071 149.285 652.301 150.973C653.544 152.648 655.249 153.486 657.417 153.486C659.596 153.486 661.284 152.695 662.479 151.113C663.674 149.52 664.29 147.24 664.325 144.275V142.377ZM691.122 130.406V147.809C691.111 150.223 690.349 152.197 688.837 153.732C687.337 155.268 685.298 156.129 682.72 156.316L681.824 156.352C679.023 156.352 676.79 155.596 675.126 154.084C673.462 152.572 672.618 150.492 672.595 147.844V130.406H675.935V147.738C675.935 149.59 676.445 151.031 677.464 152.062C678.484 153.082 679.937 153.592 681.824 153.592C683.734 153.592 685.193 153.082 686.2 152.062C687.22 151.043 687.73 149.607 687.73 147.756V130.406H691.122ZM706.195 145.646H700.184V156H696.791V130.406H705.264C708.146 130.406 710.361 131.062 711.908 132.375C713.467 133.688 714.246 135.598 714.246 138.105C714.246 139.699 713.812 141.088 712.945 142.271C712.09 143.455 710.894 144.34 709.359 144.926L715.371 155.789V156H711.75L706.195 145.646ZM700.184 142.887H705.369C707.045 142.887 708.375 142.453 709.359 141.586C710.355 140.719 710.853 139.559 710.853 138.105C710.853 136.523 710.379 135.311 709.43 134.467C708.492 133.623 707.133 133.195 705.351 133.184H700.184V142.887ZM726.893 144.592C723.999 143.76 721.889 142.74 720.565 141.533C719.253 140.314 718.596 138.814 718.596 137.033C718.596 135.018 719.399 133.354 721.004 132.041C722.622 130.717 724.719 130.055 727.297 130.055C729.055 130.055 730.62 130.395 731.991 131.074C733.374 131.754 734.44 132.691 735.19 133.887C735.952 135.082 736.333 136.389 736.333 137.807H732.94C732.94 136.26 732.448 135.047 731.463 134.168C730.479 133.277 729.09 132.832 727.297 132.832C725.633 132.832 724.333 133.201 723.395 133.939C722.469 134.666 722.006 135.68 722.006 136.98C722.006 138.023 722.446 138.908 723.325 139.635C724.215 140.35 725.721 141.006 727.842 141.604C729.975 142.201 731.639 142.863 732.835 143.59C734.042 144.305 734.932 145.143 735.506 146.104C736.092 147.064 736.385 148.195 736.385 149.496C736.385 151.57 735.577 153.234 733.96 154.488C732.342 155.73 730.18 156.352 727.473 156.352C725.715 156.352 724.075 156.018 722.551 155.35C721.028 154.67 719.85 153.744 719.018 152.572C718.198 151.4 717.788 150.07 717.788 148.582H721.18C721.18 150.129 721.749 151.354 722.885 152.256C724.034 153.146 725.563 153.592 727.473 153.592C729.254 153.592 730.62 153.229 731.569 152.502C732.518 151.775 732.993 150.785 732.993 149.531C732.993 148.277 732.553 147.311 731.674 146.631C730.795 145.939 729.202 145.26 726.893 144.592Z" fill="#EBEBF5"/>
<g filter="url(#filter3_f)">
<path d="M694.092 9.88086V8.88086H693.092H690.602C683.342 8.88086 676.708 10.5812 670.722 13.9925C664.733 17.4048 660.107 22.1308 656.86 28.1565L656.859 28.1582C653.648 34.1455 652.053 40.8864 652.053 48.3574V54.9492H652.053L652.053 54.9609C652.119 60.6589 653.287 65.7324 655.583 70.156C657.88 74.5805 661.102 78.0119 665.245 80.4229L665.25 80.426C669.388 82.8002 674.072 83.9766 679.273 83.9766C684.086 83.9766 688.487 82.8809 692.454 80.6769L692.457 80.6755C696.455 78.4391 699.568 75.3461 701.775 71.4075C704.012 67.4751 705.127 63.1543 705.127 58.4648C705.127 51.0048 703.259 44.8715 699.435 40.1589C695.586 35.4162 690.393 33.0508 683.961 33.0508C679.203 33.0508 675.066 34.2916 671.589 36.7885C672.745 33.1646 674.808 30.2698 677.771 28.0661L677.772 28.0652C681.532 25.2603 686.37 23.8203 692.359 23.8203H693.092H694.092V22.8203V9.88086ZM684.285 66.3103L684.285 66.3102L684.28 66.3177C682.783 68.3423 680.984 69.2812 678.834 69.2812C676.001 69.2812 674.001 68.2787 672.662 66.3431C671.276 64.3407 670.508 61.2124 670.508 56.8047V52.1115C671.142 50.9008 672.08 49.8584 673.347 48.9856C674.61 48.1152 676.223 47.6484 678.248 47.6484C680.775 47.6484 682.741 48.6148 684.241 50.5762L684.246 50.5827L684.251 50.5892C685.804 52.5528 686.623 55.1489 686.623 58.4648C686.623 61.6786 685.822 64.2707 684.285 66.3103Z" stroke="url(#paint3_linear)" stroke-opacity="0.4" stroke-width="2"/>
</g>
<defs>
<filter id="filter0_f" x="154.105" y="1.90625" width="50.7148" height="89.0938" filterUnits="userSpaceOnUse" color-interpolation-filters="sRGB">
<feFlood flood-opacity="0" result="BackgroundImageFix"/>
<feBlend mode="normal" in="SourceGraphic" in2="BackgroundImageFix" result="shape"/>
<feGaussianBlur stdDeviation="3.5" result="effect1_foregroundBlur"/>
</filter>
<filter id="filter1_d" x="0.144531" y="270.93" width="386.326" height="103.57" filterUnits="userSpaceOnUse" color-interpolation-filters="sRGB">
<feFlood flood-opacity="0" result="BackgroundImageFix"/>
<feColorMatrix in="SourceAlpha" type="matrix" values="0 0 0 0 0 0 0 0 0 0 0 0 0 0 0 0 0 0 127 0"/>
<feOffset dy="4"/>
<feGaussianBlur stdDeviation="2"/>
<feColorMatrix type="matrix" values="0 0 0 0 0 0 0 0 0 0 0 0 0 0 0 0 0 0 0.25 0"/>
<feBlend mode="normal" in2="BackgroundImageFix" result="effect1_dropShadow"/>
<feBlend mode="normal" in="SourceGraphic" in2="effect1_dropShadow" result="shape"/>
</filter>
<filter id="filter2_f" x="586.986" y="264.906" width="187.643" height="90.0703" filterUnits="userSpaceOnUse" color-interpolation-filters="sRGB">
<feFlood flood-opacity="0" result="BackgroundImageFix"/>
<feBlend mode="normal" in="SourceGraphic" in2="BackgroundImageFix" result="shape"/>
<feGaussianBlur stdDeviation="3.5" result="effect1_foregroundBlur"/>
</filter>
<filter id="filter3_f" x="644.053" y="0.880859" width="69.0742" height="91.0957" filterUnits="userSpaceOnUse" color-interpolation-filters="sRGB">
<feFlood flood-opacity="0" result="BackgroundImageFix"/>
<feBlend mode="normal" in="SourceGraphic" in2="BackgroundImageFix" result="shape"/>
<feGaussianBlur stdDeviation="3.5" result="effect1_foregroundBlur"/>
</filter>
<linearGradient id="paint0_linear" x1="166" y1="41" x2="184.056" y2="30.9494" gradientUnits="userSpaceOnUse">
<stop stop-color="#00D09C"/>
<stop offset="1" stop-color="#5367FC"/>
</linearGradient>
<linearGradient id="paint1_linear" x1="18.2663" y1="272.943" x2="116.236" y2="497.637" gradientUnits="userSpaceOnUse">
<stop stop-color="#00D09C"/>
<stop offset="1" stop-color="#5367FC"/>
</linearGradient>
<linearGradient id="paint2_linear" x1="609.5" y1="286.5" x2="759" y2="322.5" gradientUnits="userSpaceOnUse">
<stop stop-color="#00D09C"/>
<stop offset="1" stop-color="#5367FC"/>
</linearGradient>
<linearGradient id="paint3_linear" x1="657.5" y1="21.5" x2="693.987" y2="8.87736" gradientUnits="userSpaceOnUse">
<stop stop-color="#00D09C"/>
<stop offset="1" stop-color="#5367FC"/>
</linearGradient>
</defs>
</svg>
