<svg width="780" height="59" viewBox="0 0 780 59" fill="none" xmlns="http://www.w3.org/2000/svg">
<path d="M3.05313 1.125L26.4516 54.9141L49.9281 1.125H53.0141V58H50.9047V4.25L27.3109 58H25.6313L2.15469 4.52344V58H0.0453186V1.125H3.05313ZM100.064 29.7969H71.5484V55.8906H104.048V58H69.4391V1.125H104.048V3.23438H71.5484V27.6875H100.064V29.7969ZM146.411 29.7969H117.895V55.8906H150.395V58H115.786V1.125H150.395V3.23438H117.895V27.6875H146.411V29.7969ZM200.766 3.23438H180.062V58H177.953V3.23438H157.25V1.125H200.766V3.23438ZM266.194 3.23438H245.491V58H243.381V3.23438H222.678V1.125H266.194V3.23438ZM317.502 58H315.392V29.7969H279.064V58H276.955V1.125H279.064V27.6875H315.392V1.125H317.502V58ZM364.552 29.7969H336.036V55.8906H368.536V58H333.927V1.125H368.536V3.23438H336.036V27.6875H364.552V29.7969ZM434.277 44.3672C434.277 41.9453 433.704 39.901 432.558 38.2344C431.438 36.5417 429.654 35.0573 427.206 33.7812C424.784 32.4792 421.113 31.151 416.191 29.7969C411.269 28.4427 407.571 27.0755 405.097 25.6953C402.649 24.3151 400.852 22.7135 399.706 20.8906C398.56 19.0677 397.988 16.8542 397.988 14.25C397.988 10.1094 399.732 6.76302 403.222 4.21094C406.711 1.63281 411.256 0.34375 416.855 0.34375C420.501 0.34375 423.769 1.0599 426.659 2.49219C429.576 3.89844 431.829 5.89062 433.417 8.46875C435.006 11.0208 435.8 13.9115 435.8 17.1406H433.691C433.691 12.8958 432.128 9.39323 429.003 6.63281C425.878 3.84635 421.829 2.45312 416.855 2.45312C411.855 2.45312 407.805 3.57292 404.706 5.8125C401.633 8.02604 400.097 10.8125 400.097 14.1719C400.097 17.5833 401.438 20.3307 404.12 22.4141C406.803 24.4974 411.23 26.3464 417.402 27.9609C423.573 29.5495 428.092 31.3984 430.956 33.5078C434.602 36.1901 436.425 39.7839 436.425 44.2891C436.425 47.1536 435.618 49.6927 434.003 51.9062C432.389 54.0938 430.097 55.7865 427.128 56.9844C424.159 58.1823 420.826 58.7812 417.128 58.7812C413.014 58.7812 409.316 58.1042 406.034 56.75C402.753 55.3698 400.279 53.4167 398.613 50.8906C396.972 48.3646 396.152 45.3828 396.152 41.9453H398.261C398.261 46.6068 400.006 50.2266 403.495 52.8047C406.985 55.3828 411.529 56.6719 417.128 56.6719C422.102 56.6719 426.204 55.5391 429.433 53.2734C432.662 50.9818 434.277 48.013 434.277 44.3672ZM450.467 33.9766V58H448.358V1.125H466.131C471.939 1.125 476.444 2.59635 479.647 5.53906C482.876 8.45573 484.491 12.5182 484.491 17.7266C484.491 22.8828 482.915 26.8672 479.764 29.6797C476.639 32.4922 472.186 33.9245 466.405 33.9766H450.467ZM450.467 31.8672H466.131C471.261 31.8672 475.246 30.6302 478.084 28.1562C480.949 25.6823 482.381 22.2318 482.381 17.8047C482.381 13.2214 480.949 9.65365 478.084 7.10156C475.246 4.52344 471.261 3.23438 466.131 3.23438H450.467V31.8672ZM527.83 29.7969H499.314V55.8906H531.814V58H497.205V1.125H531.814V3.23438H499.314V27.6875H527.83V29.7969ZM573.512 41.0078H545.661L539.333 58H537.028L558.317 1.125H560.895L582.184 58H579.88L573.512 41.0078ZM546.442 38.8984H572.731L559.606 3.66406L546.442 38.8984ZM603.375 28.0781L594.273 36.4766V58H592.164V1.125H594.273V34.0156L603.648 24.8359L627.242 1.125H630.289L604.938 26.6328L632.242 58H629.508L603.375 28.0781ZM674.37 29.7969H645.855V55.8906H678.355V58H643.745V1.125H678.355V3.23438H645.855V27.6875H674.37V29.7969ZM711.733 33.6641H692.006V58H689.897V1.125H708.022C713.725 1.125 718.256 2.59635 721.616 5.53906C725.001 8.48177 726.694 12.4792 726.694 17.5312C726.694 21.4115 725.483 24.8099 723.061 27.7266C720.665 30.6172 717.605 32.4141 713.881 33.1172L729.077 57.4531V58H726.85L711.733 33.6641ZM692.006 31.5547H709.936C714.311 31.5547 717.84 30.2266 720.522 27.5703C723.23 24.9141 724.584 21.5677 724.584 17.5312C724.584 13.1042 723.087 9.61458 720.092 7.0625C717.123 4.51042 713.048 3.23438 707.866 3.23438H692.006V31.5547ZM777.298 44.3672C777.298 41.9453 776.726 39.901 775.58 38.2344C774.46 36.5417 772.676 35.0573 770.228 33.7812C767.806 32.4792 764.134 31.151 759.213 29.7969C754.291 28.4427 750.593 27.0755 748.119 25.6953C745.671 24.3151 743.874 22.7135 742.728 20.8906C741.582 19.0677 741.009 16.8542 741.009 14.25C741.009 10.1094 742.754 6.76302 746.244 4.21094C749.733 1.63281 754.278 0.34375 759.877 0.34375C763.522 0.34375 766.791 1.0599 769.681 2.49219C772.598 3.89844 774.851 5.89062 776.439 8.46875C778.028 11.0208 778.822 13.9115 778.822 17.1406H776.713C776.713 12.8958 775.15 9.39323 772.025 6.63281C768.9 3.84635 764.851 2.45312 759.877 2.45312C754.877 2.45312 750.827 3.57292 747.728 5.8125C744.655 8.02604 743.119 10.8125 743.119 14.1719C743.119 17.5833 744.46 20.3307 747.142 22.4141C749.825 24.4974 754.252 26.3464 760.423 27.9609C766.595 29.5495 771.114 31.3984 773.978 33.5078C777.624 36.1901 779.447 39.7839 779.447 44.2891C779.447 47.1536 778.64 49.6927 777.025 51.9062C775.41 54.0938 773.119 55.7865 770.15 56.9844C767.181 58.1823 763.848 58.7812 760.15 58.7812C756.035 58.7812 752.338 58.1042 749.056 56.75C745.775 55.3698 743.301 53.4167 741.634 50.8906C739.994 48.3646 739.173 45.3828 739.173 41.9453H741.283C741.283 46.6068 743.028 50.2266 746.517 52.8047C750.007 55.3828 754.551 56.6719 760.15 56.6719C765.124 56.6719 769.226 55.5391 772.455 53.2734C775.684 50.9818 777.298 48.013 777.298 44.3672Z" fill="#EBEBF5"/>
</svg>
