<svg width="329" height="417" viewBox="0 0 329 417" fill="none" xmlns="http://www.w3.org/2000/svg">
<g clip-path="url(#clip0)">
<path d="M170.237 141.374L170.025 141.176C170.595 141.705 171.112 142.287 171.642 142.842C171.165 142.366 170.728 141.85 170.237 141.374Z" fill="#5367FC"/>
<path d="M254.288 8.87451C269.478 26.329 279.316 47.7767 282.626 70.658C285.936 93.5393 282.58 116.888 272.957 137.918C263.335 158.948 247.852 176.77 228.358 189.259C208.863 201.748 186.179 208.376 163.014 208.351V329H206.378L326.027 133.729C312.397 87.0123 287.805 44.2109 254.288 8.87451Z" fill="#5367FC"/>
<path d="M171.641 142.842C172.25 143.464 172.847 144.165 173.443 144.733C172.873 144.072 172.29 143.477 171.641 142.842Z" fill="white"/>
<path d="M254.288 8.87461C252.812 7.29629 251.324 5.74001 249.821 4.20578C248.496 2.81704 247.171 1.36216 245.846 0.0395508C251.218 9.52768 254.916 19.8667 256.779 30.6051C257.803 36.0446 258.344 41.5637 258.396 47.0981C258.393 59.5931 255.923 71.965 251.127 83.507C246.331 95.0491 239.304 105.535 230.446 114.366C221.588 123.197 211.074 130.2 199.504 134.975C187.934 139.75 175.534 142.203 163.014 142.194V208.325C186.174 208.345 208.852 201.716 228.342 189.228C247.832 176.741 263.31 158.922 272.932 137.897C282.553 116.872 285.912 93.529 282.606 70.652C279.3 47.775 269.47 26.3298 254.288 8.87461Z" fill="#5F82FF"/>
<path d="M163.013 208.351C135.183 208.381 108.202 198.786 86.6621 181.198L85.4428 180.18C82.7922 177.958 80.2255 175.621 77.7427 173.17L77.5307 172.985C73.0381 168.465 68.9081 163.601 65.1788 158.436C63.6238 156.32 62.1527 154.155 60.7655 151.942C57.7393 147.157 55.0513 142.168 52.7209 137.01C52.045 135.489 51.3956 133.968 50.7859 132.433C49.0715 128.21 47.6023 123.891 46.3859 119.498C45.7232 117.038 45.0606 114.565 44.5835 112.039C43.7688 108.104 43.154 104.131 42.7413 100.135C42.3262 96.0349 42.1183 91.9164 42.1184 87.7952C42.0862 56.7247 54.135 26.8537 75.7283 4.47058C40.4844 39.6063 14.7245 83.0723 0.848199 130.82L0 133.73L119.636 329H163.013V208.351Z" fill="#67F9C8"/>
<path d="M67.6716 47.0586C67.7276 41.5281 68.2731 36.0134 69.3017 30.5788C71.1563 19.834 74.8552 9.48923 80.2356 0C79.2946 0.886151 78.3934 1.79875 77.4789 2.71136C77.1873 3.01556 76.8825 3.30653 76.591 3.59751L75.7428 4.45721C54.1495 26.8403 42.1007 56.7113 42.1329 87.7818C42.1328 91.903 42.3407 96.0215 42.7558 100.122C43.1685 104.118 43.7833 108.091 44.598 112.025C45.1148 114.552 45.7377 117.025 46.4004 119.485C47.6091 123.908 49.0738 128.258 50.7872 132.513C51.3968 134.047 52.1125 135.568 52.7221 137.089C55.0492 142.274 57.7373 147.29 60.7667 152.1C62.1539 154.314 63.625 156.478 65.18 158.595C68.9093 163.759 73.0393 168.624 77.5319 173.143L77.744 173.328C80.209 175.78 82.7757 178.116 85.444 180.338L86.6633 181.357C108.205 198.927 135.18 208.508 163.001 208.47V142.34C150.47 142.34 138.062 139.874 126.486 135.084C114.911 130.294 104.395 123.273 95.5414 114.424C86.6873 105.574 79.6684 95.0692 74.8863 83.51C70.1041 71.9509 67.6525 59.5642 67.6716 47.0586Z" fill="#00D09C"/>
</g>
<g opacity="0.09" filter="url(#filter0_f)">
<ellipse cx="170" cy="394.5" rx="146" ry="9.5" fill="url(#paint0_linear)"/>
</g>
<defs>
<filter id="filter0_f" x="11" y="372" width="318" height="45" filterUnits="userSpaceOnUse" color-interpolation-filters="sRGB">
<feFlood flood-opacity="0" result="BackgroundImageFix"/>
<feBlend mode="normal" in="SourceGraphic" in2="BackgroundImageFix" result="shape"/>
<feGaussianBlur stdDeviation="6.5" result="effect1_foregroundBlur"/>
</filter>
<linearGradient id="paint0_linear" x1="33" y1="385" x2="301.5" y2="385" gradientUnits="userSpaceOnUse">
<stop stop-color="#00D09C"/>
<stop offset="1" stop-color="#5367FC"/>
</linearGradient>
<clipPath id="clip0">
<rect width="326" height="329" fill="white"/>
</clipPath>
</defs>
</svg>
