<svg width="687" height="179" viewBox="0 0 687 179" fill="none" xmlns="http://www.w3.org/2000/svg">
<path d="M341.1 153L341 152.9C341.3 153.2 341.6 153.6 342 153.9C341.6 153.6 341.3 153.3 341.1 153Z" fill="#5161FF"/>
<path d="M341.9 153.9C342.3 154.3 342.6 154.6 343 155C342.6 154.6 342.2 154.2 341.9 153.9Z" fill="white"/>
<path d="M450.386 101.266H503.474V99.0264H454.418L487.346 67.2184C500.338 54.6744 502.354 48.4024 502.354 41.6824V41.4584C502.354 30.7064 493.058 21.7464 479.282 21.7464C466.626 21.7464 457.89 28.8024 452.626 38.5464L454.754 39.7784C459.682 30.7064 467.746 23.9864 479.17 23.9864C491.378 23.9864 499.89 32.1624 499.89 41.6824C499.89 47.3944 497.986 53.7784 485.89 65.4264L450.386 99.8104V101.266ZM549.213 102.61C569.597 102.61 581.245 83.5704 581.245 62.1784V61.9544C581.245 40.4504 569.597 21.5224 549.213 21.5224C528.829 21.5224 517.181 40.5624 517.181 61.9544V62.1784C517.181 83.6824 528.829 102.61 549.213 102.61ZM549.325 100.37C530.397 100.37 519.645 82.0024 519.645 62.0664V61.8424C519.645 41.7944 530.173 23.7624 549.101 23.7624C568.029 23.7624 578.781 42.1304 578.781 62.0664V62.2904C578.781 82.3384 568.253 100.37 549.325 100.37ZM592.355 101.266H645.443V99.0264H596.387L629.315 67.2184C642.307 54.6744 644.323 48.4024 644.323 41.6824V41.4584C644.323 30.7064 635.027 21.7464 621.251 21.7464C608.595 21.7464 599.859 28.8024 594.595 38.5464L596.723 39.7784C601.651 30.7064 609.715 23.9864 621.139 23.9864C633.347 23.9864 641.859 32.1624 641.859 41.6824C641.859 47.3944 639.955 53.7784 627.859 65.4264L592.355 99.8104V101.266ZM670.798 101.266H673.15V22.3064H671.134L655.118 29.5864L656.126 31.7144L670.798 25.1064V101.266Z" fill="white"/>
<path d="M23 45H0V22.9H72.2V45H49.2V101.1H23V45Z" fill="white"/>
<path d="M78.0996 22.9H104.3V50.5H128.2V22.9H154.4V101.2H128.2V73.1H104.3V101.2H78.0996V22.9Z" fill="white"/>
<path d="M163.301 22.9H201.501C215.401 22.9 224.201 26.4 229.701 31.8C234.401 36.5 236.901 42.3 236.901 50.4V50.6C236.901 62 231.001 69.9 221.501 74.5L239.701 101.1H209.901L195.101 78.7H189.501V101.1H163.301V22.9ZM200.801 60.1C207.101 60.1 210.901 57.3 210.901 52.5V52.3C210.901 47.3 207.001 44.8 201.001 44.8H189.601V60.1H200.801Z" fill="white"/>
<path d="M243.5 22.9H269.7V101.2H243.5V22.9Z" fill="white"/>
<path d="M364.9 22.9H431.6V44.4H390.6V52.3H428.8V71.2H390.6V79.7H432.2V101.2H364.9V22.9Z" fill="white"/>
<g clip-path="url(#clip0)">
<path d="M318.38 56.6032L318.33 56.556C318.465 56.6818 318.588 56.8201 318.714 56.9521C318.6 56.839 318.497 56.7164 318.38 56.6032Z" fill="#5367FC"/>
<path d="M338.319 25.1094C341.922 29.2582 344.255 34.3561 345.041 39.7948C345.826 45.2334 345.03 50.7832 342.747 55.7817C340.465 60.7803 336.792 65.0166 332.168 67.9851C327.544 70.9536 322.163 72.5289 316.668 72.523V101.2H326.954L355.336 54.7861C352.103 43.682 346.269 33.5086 338.319 25.1094Z" fill="#5367FC"/>
<path d="M318.715 56.9522C318.859 57.0999 319.001 57.2665 319.142 57.4017C319.007 57.2445 318.869 57.1031 318.715 56.9522Z" fill="white"/>
<path d="M338.319 25.1094C337.969 24.7343 337.616 24.3644 337.259 23.9997C336.945 23.6696 336.631 23.3238 336.316 23.0094C337.591 25.2647 338.468 27.7221 338.91 30.2746C339.153 31.5675 339.281 32.8793 339.293 34.1948C339.292 37.1647 338.707 40.1054 337.569 42.8488C336.431 45.5922 334.764 48.0847 332.663 50.1837C330.562 52.2827 328.068 53.9473 325.324 55.0822C322.579 56.2171 319.638 56.8002 316.668 56.7981V72.5167C322.162 72.5215 327.541 70.9459 332.164 67.9777C336.787 65.0095 340.459 60.7741 342.741 55.7767C345.024 50.7794 345.82 45.2309 345.036 39.7933C344.252 34.3557 341.92 29.2584 338.319 25.1094Z" fill="#5F82FF"/>
<path d="M316.668 72.523C310.066 72.5301 303.666 70.2494 298.557 66.0689L298.268 65.8269C297.639 65.2987 297.03 64.7433 296.441 64.1607L296.391 64.1167C295.325 63.0425 294.345 61.8862 293.461 60.6586C293.092 60.1556 292.743 59.6411 292.414 59.115C291.696 57.9778 291.059 56.7918 290.506 55.5658C290.345 55.2043 290.191 54.8427 290.047 54.4781C289.64 53.4741 289.292 52.4475 289.003 51.4035C288.846 50.8188 288.689 50.2309 288.575 49.6304C288.382 48.6953 288.236 47.751 288.138 46.8011C288.04 45.8265 287.991 44.8476 287.991 43.868C287.983 36.4829 290.841 29.3828 295.963 24.0626C287.603 32.414 281.493 42.7454 278.201 54.0945L278 54.7861L306.378 101.2H316.668V72.523Z" fill="#67F9C8"/>
<path d="M294.052 34.1854C294.065 32.8708 294.195 31.56 294.439 30.2683C294.879 27.7143 295.756 25.2555 297.032 23C296.809 23.2106 296.595 23.4275 296.378 23.6445C296.309 23.7168 296.237 23.7859 296.168 23.8551L295.967 24.0594C290.845 29.3797 287.987 36.4797 287.994 43.8649C287.994 44.8444 288.043 45.8234 288.142 46.7979C288.24 47.7478 288.386 48.6921 288.579 49.6273C288.701 50.2277 288.849 50.8156 289.006 51.4003C289.293 52.4518 289.641 53.4857 290.047 54.4969C290.192 54.8616 290.361 55.2231 290.506 55.5846C291.058 56.8171 291.696 58.0094 292.414 59.1528C292.743 59.6788 293.092 60.1933 293.461 60.6963C294.346 61.9239 295.325 63.0802 296.391 64.1544L296.441 64.1984C297.026 64.7811 297.635 65.3365 298.268 65.8646L298.557 66.1067C303.667 70.283 310.066 72.5604 316.665 72.5513V56.8327C313.692 56.8327 310.749 56.2467 308.003 55.1081C305.258 53.9695 302.763 52.3008 300.663 50.1973C298.563 48.0939 296.898 45.597 295.763 42.8495C294.629 40.102 294.048 37.1578 294.052 34.1854Z" fill="#00D09C"/>
</g>
<path d="M258.369 172.1C266.101 172.1 272.369 165.832 272.369 158.1C272.369 150.368 266.101 144.1 258.369 144.1C250.637 144.1 244.369 150.368 244.369 158.1C244.369 165.832 250.637 172.1 258.369 172.1Z" fill="#5367FA"/>
<mask id="mask0" mask-type="alpha" maskUnits="userSpaceOnUse" x="244" y="144" width="29" height="29">
<path d="M258.369 172.1C266.101 172.1 272.369 165.832 272.369 158.1C272.369 150.368 266.101 144.1 258.369 144.1C250.637 144.1 244.369 150.368 244.369 158.1C244.369 165.832 250.637 172.1 258.369 172.1Z" fill="white"/>
</mask>
<g mask="url(#mask0)">
<path d="M243.568 162.8L252.368 157.2L260.768 160.4L271.768 149.8L275.368 174.1L246.268 176.8L243.568 162.8Z" fill="#00FDC1"/>
</g>
<mask id="mask1" mask-type="alpha" maskUnits="userSpaceOnUse" x="244" y="144" width="29" height="29">
<path d="M258.369 172.1C266.101 172.1 272.369 165.832 272.369 158.1C272.369 150.368 266.101 144.1 258.369 144.1C250.637 144.1 244.369 150.368 244.369 158.1C244.369 165.832 250.637 172.1 258.369 172.1Z" fill="white"/>
</mask>
<g mask="url(#mask1)">
<path d="M244.27 165.5L252.97 159.9L261.47 163.1L272.47 152.5L276.07 176.8L246.97 179.5L244.27 165.5Z" fill="#01E9B0"/>
</g>
<mask id="mask2" mask-type="alpha" maskUnits="userSpaceOnUse" x="244" y="144" width="29" height="29">
<path d="M258.369 172.1C266.101 172.1 272.369 165.832 272.369 158.1C272.369 150.368 266.101 144.1 258.369 144.1C250.637 144.1 244.369 150.368 244.369 158.1C244.369 165.832 250.637 172.1 258.369 172.1Z" fill="white"/>
</mask>
<g mask="url(#mask2)">
<path d="M244.27 168.9L252.97 163.3L261.47 166.5L272.47 155.9L276.07 180.2L246.97 182.9L244.27 168.9Z" fill="#01D7A2"/>
</g>
<mask id="mask3" mask-type="alpha" maskUnits="userSpaceOnUse" x="244" y="144" width="29" height="29">
<path d="M258.369 172.1C266.101 172.1 272.369 165.832 272.369 158.1C272.369 150.368 266.101 144.1 258.369 144.1C250.637 144.1 244.369 150.368 244.369 158.1C244.369 165.832 250.637 172.1 258.369 172.1Z" fill="white"/>
</mask>
<g mask="url(#mask3)">
<path d="M244.27 172.2L252.97 166.6L261.47 169.8L272.37 159.3L276.07 183.5L246.97 186.2L244.27 172.2Z" fill="#02C695"/>
</g>
<path d="M280.27 158C280.27 154.1 283.27 150.8 287.47 150.8C289.87 150.8 291.37 151.5 292.77 152.7L291.27 154.5C290.17 153.6 289.17 153 287.37 153C284.77 153 282.87 155.2 282.87 157.9C282.87 160.8 284.77 162.9 287.57 162.9C288.87 162.9 290.07 162.5 290.87 161.8V159.2H287.27V157.1H293.17V162.9C291.77 164.1 289.87 165.1 287.37 165.1C283.07 165.1 280.27 162 280.27 158Z" fill="#EBEBF5"/>
<path d="M295.969 154.4H298.369V156.8C299.069 155.2 300.269 154.2 302.069 154.2V156.7H301.969C299.869 156.7 298.369 158.1 298.369 160.8V164.8H295.969V154.4Z" fill="#EBEBF5"/>
<path d="M303.57 159.7C303.57 156.7 305.97 154.2 309.17 154.2C312.37 154.2 314.77 156.6 314.77 159.6C314.77 162.6 312.37 165.1 309.17 165.1C305.87 165.1 303.57 162.7 303.57 159.7ZM312.27 159.7C312.27 157.8 310.97 156.3 309.07 156.3C307.17 156.3 305.87 157.8 305.87 159.6C305.87 161.4 307.17 162.9 309.07 162.9C311.07 163 312.27 161.5 312.27 159.7Z" fill="#EBEBF5"/>
<path d="M316.27 154.4H318.77L320.87 161.6L323.17 154.4H325.27L327.57 161.6L329.67 154.4H332.07L328.67 164.9H326.47L324.17 157.7L321.77 164.9H319.67L316.27 154.4Z" fill="#EBEBF5"/>
<path d="M333.17 154.4H335.67L337.77 161.6L340.07 154.4H342.17L344.47 161.6L346.57 154.4H348.97L345.57 164.9H343.37L341.07 157.7L338.67 164.9H336.57L333.17 154.4Z" fill="#EBEBF5"/>
<path d="M118.578 160.971H113.414L112.242 164.159H111.234L115.539 152.784H116.453L120.758 164.159H119.758L118.578 160.971ZM113.711 160.151H118.273L115.992 153.956L113.711 160.151ZM128.742 162.87L131.312 155.706H132.273L129.117 164.159H128.359L125.188 155.706H126.148L128.742 162.87ZM134.859 164.159H133.922V155.706H134.859V164.159ZM133.758 153.26C133.758 153.083 133.815 152.935 133.93 152.815C134.044 152.69 134.201 152.628 134.398 152.628C134.596 152.628 134.753 152.69 134.867 152.815C134.987 152.935 135.047 153.083 135.047 153.26C135.047 153.438 134.987 153.586 134.867 153.706C134.753 153.826 134.596 153.885 134.398 153.885C134.201 153.885 134.044 153.826 133.93 153.706C133.815 153.586 133.758 153.438 133.758 153.26ZM141.312 156.503C141.115 156.466 140.904 156.448 140.68 156.448C140.096 156.448 139.602 156.612 139.195 156.94C138.794 157.263 138.508 157.734 138.336 158.354V164.159H137.406V155.706H138.32L138.336 157.05C138.831 156.05 139.625 155.55 140.719 155.55C140.979 155.55 141.185 155.583 141.336 155.651L141.312 156.503ZM144.641 153.542V155.706H146.391V156.471H144.641V162.104C144.641 162.573 144.724 162.922 144.891 163.151C145.062 163.38 145.346 163.495 145.742 163.495C145.898 163.495 146.151 163.469 146.5 163.417L146.539 164.182C146.294 164.271 145.961 164.315 145.539 164.315C144.898 164.315 144.432 164.13 144.141 163.76C143.849 163.385 143.703 162.836 143.703 162.112V156.471H142.148V155.706H143.703V153.542H144.641ZM153.766 163.089C153.203 163.906 152.305 164.315 151.07 164.315C150.169 164.315 149.484 164.055 149.016 163.534C148.547 163.008 148.307 162.232 148.297 161.206V155.706H149.227V161.089C149.227 162.698 149.878 163.503 151.18 163.503C152.534 163.503 153.391 162.943 153.75 161.823V155.706H154.688V164.159H153.781L153.766 163.089ZM162.461 164.159C162.367 163.893 162.307 163.5 162.281 162.979C161.953 163.406 161.534 163.737 161.023 163.971C160.518 164.201 159.982 164.315 159.414 164.315C158.602 164.315 157.943 164.089 157.438 163.635C156.938 163.182 156.688 162.609 156.688 161.917C156.688 161.094 157.029 160.443 157.711 159.964C158.398 159.484 159.354 159.245 160.578 159.245H162.273V158.284C162.273 157.68 162.086 157.206 161.711 156.862C161.341 156.513 160.799 156.339 160.086 156.339C159.435 156.339 158.896 156.505 158.469 156.839C158.042 157.172 157.828 157.573 157.828 158.042L156.891 158.034C156.891 157.362 157.203 156.781 157.828 156.292C158.453 155.797 159.221 155.55 160.133 155.55C161.076 155.55 161.818 155.787 162.359 156.26C162.906 156.729 163.188 157.385 163.203 158.229V162.229C163.203 163.047 163.289 163.659 163.461 164.065V164.159H162.461ZM159.523 163.487C160.148 163.487 160.706 163.336 161.195 163.034C161.69 162.732 162.049 162.328 162.273 161.823V159.964H160.602C159.669 159.974 158.94 160.146 158.414 160.479C157.888 160.807 157.625 161.26 157.625 161.839C157.625 162.313 157.799 162.706 158.148 163.018C158.503 163.331 158.961 163.487 159.523 163.487ZM166.75 164.159H165.812V152.159H166.75V164.159ZM176.461 164.315C175.742 164.315 175.091 164.138 174.508 163.784C173.93 163.43 173.479 162.938 173.156 162.307C172.833 161.672 172.672 160.961 172.672 160.175V159.839C172.672 159.026 172.828 158.294 173.141 157.643C173.458 156.992 173.898 156.482 174.461 156.112C175.023 155.737 175.633 155.55 176.289 155.55C177.315 155.55 178.128 155.901 178.727 156.604C179.331 157.302 179.633 158.258 179.633 159.471V159.995H173.602V160.175C173.602 161.133 173.875 161.932 174.422 162.573C174.974 163.208 175.667 163.526 176.5 163.526C177 163.526 177.44 163.435 177.82 163.253C178.206 163.07 178.555 162.779 178.867 162.378L179.453 162.823C178.766 163.818 177.768 164.315 176.461 164.315ZM176.289 156.346C175.586 156.346 174.992 156.604 174.508 157.12C174.029 157.635 173.737 158.328 173.633 159.198H178.703V159.096C178.677 158.284 178.445 157.622 178.008 157.112C177.57 156.602 176.997 156.346 176.289 156.346ZM183.977 162.87L186.547 155.706H187.508L184.352 164.159H183.594L180.422 155.706H181.383L183.977 162.87ZM192.211 164.315C191.492 164.315 190.841 164.138 190.258 163.784C189.68 163.43 189.229 162.938 188.906 162.307C188.583 161.672 188.422 160.961 188.422 160.175V159.839C188.422 159.026 188.578 158.294 188.891 157.643C189.208 156.992 189.648 156.482 190.211 156.112C190.773 155.737 191.383 155.55 192.039 155.55C193.065 155.55 193.878 155.901 194.477 156.604C195.081 157.302 195.383 158.258 195.383 159.471V159.995H189.352V160.175C189.352 161.133 189.625 161.932 190.172 162.573C190.724 163.208 191.417 163.526 192.25 163.526C192.75 163.526 193.19 163.435 193.57 163.253C193.956 163.07 194.305 162.779 194.617 162.378L195.203 162.823C194.516 163.818 193.518 164.315 192.211 164.315ZM192.039 156.346C191.336 156.346 190.742 156.604 190.258 157.12C189.779 157.635 189.487 158.328 189.383 159.198H194.453V159.096C194.427 158.284 194.195 157.622 193.758 157.112C193.32 156.602 192.747 156.346 192.039 156.346ZM198.094 155.706L198.125 157.151C198.443 156.63 198.839 156.234 199.312 155.964C199.786 155.688 200.31 155.55 200.883 155.55C201.789 155.55 202.464 155.805 202.906 156.315C203.349 156.826 203.573 157.591 203.578 158.612V164.159H202.648V158.604C202.643 157.849 202.482 157.287 202.164 156.917C201.852 156.547 201.349 156.362 200.656 156.362C200.078 156.362 199.565 156.544 199.117 156.909C198.674 157.268 198.346 157.755 198.133 158.37V164.159H197.203V155.706H198.094ZM207.453 153.542V155.706H209.203V156.471H207.453V162.104C207.453 162.573 207.536 162.922 207.703 163.151C207.875 163.38 208.159 163.495 208.555 163.495C208.711 163.495 208.964 163.469 209.312 163.417L209.352 164.182C209.107 164.271 208.773 164.315 208.352 164.315C207.711 164.315 207.245 164.13 206.953 163.76C206.661 163.385 206.516 162.836 206.516 162.112V156.471H204.961V155.706H206.516V153.542H207.453ZM221.836 160.018C221.836 161.336 221.544 162.383 220.961 163.159C220.378 163.93 219.594 164.315 218.609 164.315C217.432 164.315 216.542 163.878 215.938 163.003L215.898 164.159H215.023V152.159H215.953V156.932C216.547 156.01 217.427 155.55 218.594 155.55C219.594 155.55 220.383 155.932 220.961 156.698C221.544 157.458 221.836 158.518 221.836 159.878V160.018ZM220.898 159.854C220.898 158.74 220.682 157.88 220.25 157.276C219.818 156.667 219.208 156.362 218.422 156.362C217.823 156.362 217.315 156.51 216.898 156.807C216.482 157.099 216.167 157.529 215.953 158.096V161.909C216.422 162.971 217.25 163.503 218.438 163.503C219.208 163.503 219.81 163.198 220.242 162.589C220.68 161.979 220.898 161.068 220.898 159.854ZM226.492 162.815L228.961 155.706H229.969L226.359 165.596L226.172 166.034C225.708 167.06 224.992 167.573 224.023 167.573C223.799 167.573 223.56 167.537 223.305 167.464L223.297 166.69L223.781 166.737C224.24 166.737 224.609 166.622 224.891 166.393C225.177 166.169 225.419 165.781 225.617 165.229L226.031 164.089L222.844 155.706H223.867L226.492 162.815Z" fill="#EBEBF5"/>
<path d="M406.676 144.278L413.25 162.84L419.789 144.278H426.715V169.871H421.424V162.875L421.951 150.799L415.043 169.871H411.422L404.531 150.817L405.059 162.875V169.871H399.785V144.278H406.676ZM446.086 164.598H436.84L435.082 169.871H429.475L439.002 144.278H443.889L453.469 169.871H447.861L446.086 164.598ZM438.264 160.326H444.662L441.445 150.746L438.264 160.326ZM465.334 160.502H461.133V169.871H455.859V144.278H465.369C468.393 144.278 470.725 144.951 472.365 146.299C474.006 147.647 474.826 149.551 474.826 152.012C474.826 153.758 474.445 155.217 473.684 156.389C472.934 157.549 471.791 158.475 470.256 159.166L475.793 169.625V169.871H470.133L465.334 160.502ZM461.133 156.231H465.387C466.711 156.231 467.736 155.897 468.463 155.229C469.189 154.549 469.553 153.617 469.553 152.434C469.553 151.227 469.207 150.278 468.516 149.586C467.836 148.895 466.787 148.549 465.369 148.549H461.133V156.231ZM498.943 161.346C498.744 164.1 497.725 166.268 495.885 167.85C494.057 169.432 491.643 170.223 488.643 170.223C485.361 170.223 482.777 169.121 480.891 166.918C479.016 164.703 478.078 161.668 478.078 157.813V156.248C478.078 153.787 478.512 151.619 479.379 149.744C480.246 147.869 481.482 146.434 483.088 145.438C484.705 144.43 486.58 143.926 488.713 143.926C491.666 143.926 494.045 144.717 495.85 146.299C497.654 147.881 498.697 150.102 498.979 152.961H493.705C493.576 151.309 493.113 150.114 492.316 149.375C491.531 148.625 490.33 148.25 488.713 148.25C486.955 148.25 485.637 148.883 484.758 150.149C483.891 151.403 483.445 153.354 483.422 156.002V157.936C483.422 160.701 483.838 162.723 484.67 164C485.514 165.278 486.838 165.916 488.643 165.916C490.271 165.916 491.484 165.547 492.281 164.809C493.09 164.059 493.553 162.905 493.67 161.346H498.943ZM523.236 169.871H517.963V158.903H507.68V169.871H502.406V144.278H507.68V154.649H517.963V144.278H523.236V169.871ZM553.822 169.871H536.279V166.391L544.559 157.567C545.695 156.325 546.533 155.241 547.072 154.315C547.623 153.389 547.898 152.51 547.898 151.678C547.898 150.541 547.611 149.651 547.037 149.006C546.463 148.35 545.643 148.022 544.576 148.022C543.428 148.022 542.52 148.42 541.852 149.217C541.195 150.002 540.867 151.039 540.867 152.328H535.77C535.77 150.77 536.139 149.346 536.877 148.057C537.627 146.768 538.682 145.76 540.041 145.034C541.4 144.295 542.941 143.926 544.664 143.926C547.301 143.926 549.346 144.559 550.799 145.825C552.264 147.09 552.996 148.877 552.996 151.186C552.996 152.451 552.668 153.741 552.012 155.053C551.355 156.366 550.23 157.895 548.637 159.641L542.818 165.776H553.822V169.871ZM574.178 159.289C574.178 162.828 573.445 165.535 571.98 167.41C570.516 169.285 568.371 170.223 565.547 170.223C562.758 170.223 560.625 169.303 559.148 167.463C557.672 165.623 556.916 162.987 556.881 159.553V154.842C556.881 151.268 557.619 148.555 559.096 146.703C560.584 144.852 562.723 143.926 565.512 143.926C568.301 143.926 570.434 144.846 571.91 146.686C573.387 148.514 574.143 151.145 574.178 154.578V159.289ZM569.098 154.121C569.098 152 568.805 150.459 568.219 149.498C567.645 148.526 566.742 148.039 565.512 148.039C564.316 148.039 563.432 148.502 562.857 149.428C562.295 150.342 561.996 151.778 561.961 153.735V159.957C561.961 162.043 562.242 163.596 562.805 164.616C563.379 165.623 564.293 166.127 565.547 166.127C566.789 166.127 567.686 165.641 568.236 164.668C568.787 163.696 569.074 162.207 569.098 160.203V154.121Z" fill="#EBEBF5"/>
<path d="M374.068 140.6V173" stroke="white" stroke-miterlimit="10"/>
<defs>
<clipPath id="clip0">
<rect width="77.3292" height="78.2" fill="white" transform="translate(278 23)"/>
</clipPath>
</defs>
</svg>
