<svg width="65" height="65" viewBox="0 0 65 65" fill="none" xmlns="http://www.w3.org/2000/svg">
<circle cx="32.5" cy="32.5" r="32" stroke="url(#paint0_linear)"/>
<path d="M49 23.0819C48.0576 23.5686 46.9581 23.7308 45.8586 24.0552C46.3298 23.893 47.1152 23.0819 47.4293 22.5953C47.9005 21.9465 48.2147 21.4599 48.3717 20.6488V20.4866H48.2147C47.1152 21.1354 45.8586 21.6221 44.6021 21.9465C44.445 21.9465 44.445 21.9465 44.288 21.9465C44.1309 21.7843 44.1309 21.7843 43.9738 21.6221C43.5026 21.1354 42.8743 20.811 42.2461 20.4866C41.4607 20.1622 40.5183 20 39.5759 20C38.6335 20 37.8482 20.3244 37.0628 20.811C36.2775 21.2977 35.4921 21.7843 35.0209 22.5953C34.3927 23.4063 34.0785 24.2174 33.7644 25.1906C33.6073 26.1639 33.6073 26.9749 33.7644 27.9481C33.7644 28.1103 33.7644 28.1103 33.6073 28.1103C28.5812 27.2993 24.4974 25.515 21.199 21.6221C21.0419 21.4599 21.0419 21.4599 20.8848 21.6221C19.4712 23.893 20.0995 27.6237 21.9843 29.408C22.2984 29.5702 22.4555 29.8946 22.7696 30.0568C22.6126 30.0568 21.5131 29.8946 20.4136 29.408C20.2565 29.2458 20.2565 29.408 20.2565 29.5702C20.2565 29.8946 20.2565 30.0568 20.2565 30.3812C20.5707 32.6521 22.1414 34.7608 24.1832 35.5718C24.4974 35.7341 24.6545 35.734 24.9686 35.8963C24.4974 36.0585 24.0262 36.0585 22.6126 35.8963C22.4555 35.8963 22.2984 35.8963 22.4555 36.0585C23.555 38.9782 25.7539 39.7892 27.4817 40.2758C27.6387 40.2758 27.9529 40.2758 28.1099 40.438C27.4817 41.2491 25.5969 41.8979 24.6545 42.2223C23.0838 42.8712 21.199 43.0334 19.4712 42.8711C19.1571 42.8711 19.1571 42.8711 19 42.8711C19 42.8711 19 43.0334 19.1571 43.0334C19.4712 43.1956 19.9424 43.52 20.2565 43.6822C21.356 44.331 22.4555 44.8176 23.712 45.142C29.8377 46.9263 36.9058 45.6287 41.4607 40.9247C45.0733 37.1939 46.3298 32.0033 46.3298 26.8127C46.3298 26.6505 46.4869 26.4883 46.644 26.3261C47.5864 25.515 48.3717 24.704 49 23.7307C49 23.4063 49 23.2441 49 23.0819C49 22.9197 49 23.0819 49 23.0819Z" fill="white"/>
<defs>
<linearGradient id="paint0_linear" x1="-2.45755e-07" y1="33" x2="65" y2="33" gradientUnits="userSpaceOnUse">
<stop stop-color="#00D09C"/>
<stop offset="1" stop-color="#5367FC"/>
</linearGradient>
</defs>
</svg>
