<svg width="243" height="463" viewBox="0 0 243 463" fill="none" xmlns="http://www.w3.org/2000/svg">
<g filter="url(#filter0_f)">
<path d="M67.7773 52V53.5H69.2773V52H67.7773ZM57.2148 52H55.7148V53.5H57.2148V52ZM57.2148 18.375H58.7148V16.374L56.7942 16.9352L57.2148 18.375ZM46.8398 21.4062H45.3398V23.4072L47.2605 22.8461L46.8398 21.4062ZM46.8398 13.4062L46.3496 11.9886L45.3398 12.3379V13.4062H46.8398ZM66.8086 6.5V5H66.5565L66.3183 5.08239L66.8086 6.5ZM67.7773 6.5H69.2773V5H67.7773V6.5ZM67.7773 50.5H57.2148V53.5H67.7773V50.5ZM58.7148 52V18.375H55.7148V52H58.7148ZM56.7942 16.9352L46.4192 19.9664L47.2605 22.8461L57.6355 19.8148L56.7942 16.9352ZM48.3398 21.4062V13.4062H45.3398V21.4062H48.3398ZM47.3301 14.8239L67.2989 7.91761L66.3183 5.08239L46.3496 11.9886L47.3301 14.8239ZM66.8086 8H67.7773V5H66.8086V8ZM66.2773 6.5V52H69.2773V6.5H66.2773Z" fill="url(#paint0_linear)" fill-opacity="0.4"/>
</g>
<path d="M41.1562 100V82.9375H45.9258C47.3242 82.9375 48.5781 83.2578 49.6875 83.8984C50.7969 84.5312 51.6602 85.4414 52.2773 86.6289C52.9023 87.8164 53.2148 89.168 53.2148 90.6836V92.2539C53.2148 93.7773 52.9062 95.1289 52.2891 96.3086C51.6719 97.4883 50.8008 98.3984 49.6758 99.0391C48.5586 99.6797 47.2734 100 45.8203 100H41.1562ZM42.5977 84.168V98.7812H45.832C47.6289 98.7812 49.0703 98.1875 50.1562 97C51.2422 95.8047 51.7852 94.1914 51.7852 92.1602V90.6602C51.7852 88.6992 51.25 87.1289 50.1797 85.9492C49.1094 84.7695 47.6992 84.1758 45.9492 84.168H42.5977ZM66.0759 95.2188H58.3298L56.572 100H55.0603L61.5173 82.9375H62.8884L69.3455 100H67.8455L66.0759 95.2188ZM58.7752 93.9883H65.6189L62.197 84.6953L58.7752 93.9883ZM76.0073 92.2422L81.2222 82.9375H82.8862L76.7222 93.5781V100H75.2808V93.5781L69.1284 82.9375H70.8394L76.0073 92.2422Z" fill="#EBEBF5"/>
<path d="M143.801 100H142.348V91.8203H132.598V100H131.156V82.9375H132.598V90.6016H142.348V82.9375H143.801V100ZM160.998 92.3945C160.998 93.9648 160.724 95.3438 160.177 96.5312C159.638 97.7188 158.865 98.6328 157.857 99.2734C156.849 99.9141 155.685 100.234 154.365 100.234C152.373 100.234 150.763 99.5234 149.537 98.1016C148.31 96.6719 147.697 94.7461 147.697 92.3242V90.5664C147.697 89.0117 147.97 87.6367 148.517 86.4414C149.072 85.2383 149.853 84.3164 150.861 83.6758C151.869 83.0273 153.029 82.7031 154.342 82.7031C155.654 82.7031 156.81 83.0195 157.81 83.6523C158.818 84.2852 159.595 85.1797 160.142 86.3359C160.689 87.4922 160.974 88.832 160.998 90.3555V92.3945ZM159.556 90.543C159.556 88.4883 159.092 86.8789 158.162 85.7148C157.232 84.5508 155.959 83.9688 154.342 83.9688C152.756 83.9688 151.49 84.5547 150.545 85.7266C149.607 86.8906 149.138 88.5195 149.138 90.6133V92.3945C149.138 94.418 149.607 96.0234 150.545 97.2109C151.482 98.3906 152.756 98.9805 154.365 98.9805C155.998 98.9805 157.271 98.3984 158.185 97.2344C159.099 96.0625 159.556 94.4336 159.556 92.3477V90.543ZM176.625 82.9375V94.5859C176.617 95.7344 176.363 96.7344 175.863 97.5859C175.363 98.4375 174.656 99.0938 173.742 99.5547C172.835 100.008 171.792 100.234 170.613 100.234C168.816 100.234 167.375 99.7461 166.289 98.7695C165.21 97.7852 164.652 96.4258 164.613 94.6914V82.9375H166.042V94.4805C166.042 95.918 166.453 97.0352 167.273 97.832C168.093 98.6211 169.207 99.0156 170.613 99.0156C172.019 99.0156 173.128 98.6172 173.941 97.8203C174.761 97.0234 175.171 95.9141 175.171 94.4922V82.9375H176.625ZM187.259 92.8984H182.302V100H180.849V82.9375H186.392C188.212 82.9375 189.634 83.3789 190.658 84.2617C191.681 85.1445 192.193 86.3789 192.193 87.9648C192.193 89.0586 191.872 90.0234 191.232 90.8594C190.591 91.6953 189.732 92.2734 188.654 92.5938L192.919 99.8477V100H191.384L187.259 92.8984ZM182.302 91.668H186.72C187.931 91.668 188.904 91.3242 189.638 90.6367C190.372 89.9492 190.74 89.0586 190.74 87.9648C190.74 86.7617 190.357 85.8281 189.591 85.1641C188.825 84.5 187.751 84.168 186.368 84.168H182.302V91.668ZM206.015 95.8047C206.015 94.8594 205.683 94.1133 205.019 93.5664C204.355 93.0117 203.14 92.4883 201.374 91.9961C199.608 91.4961 198.319 90.9531 197.507 90.3672C196.351 89.5391 195.772 88.4531 195.772 87.1094C195.772 85.8047 196.308 84.7461 197.378 83.9336C198.456 83.1133 199.831 82.7031 201.503 82.7031C202.636 82.7031 203.647 82.9219 204.538 83.3594C205.437 83.7969 206.132 84.4062 206.624 85.1875C207.116 85.9688 207.362 86.8398 207.362 87.8008H205.909C205.909 86.6367 205.511 85.7031 204.714 85C203.917 84.2891 202.847 83.9336 201.503 83.9336C200.198 83.9336 199.159 84.2266 198.386 84.8125C197.612 85.3906 197.226 86.1484 197.226 87.0859C197.226 87.9531 197.573 88.6602 198.269 89.207C198.964 89.7539 200.077 90.2383 201.608 90.6602C203.14 91.0742 204.3 91.5078 205.089 91.9609C205.878 92.4062 206.472 92.9414 206.87 93.5664C207.269 94.1914 207.468 94.9297 207.468 95.7812C207.468 97.125 206.929 98.2031 205.851 99.0156C204.78 99.8281 203.366 100.234 201.608 100.234C200.405 100.234 199.3 100.02 198.292 99.5898C197.292 99.1602 196.53 98.5586 196.007 97.7852C195.491 97.0117 195.233 96.125 195.233 95.125H196.675C196.675 96.3281 197.124 97.2773 198.022 97.9727C198.921 98.668 200.116 99.0156 201.608 99.0156C202.937 99.0156 204.003 98.7227 204.808 98.1367C205.612 97.5508 206.015 96.7734 206.015 95.8047Z" fill="#EBEBF5"/>
<g filter="url(#filter1_f)">
<path d="M174.926 7.84375H176.426V6.34375H174.926V7.84375ZM174.926 16.125V17.625H176.426V16.125H174.926ZM164.738 18.9688L165.634 20.1723L165.635 20.1711L164.738 18.9688ZM160.082 26.8125L158.604 26.5555L157.805 31.1527L161.133 27.8825L160.082 26.8125ZM178.488 27.625L177.324 28.5703L178.488 27.625ZM179.926 46.9062L178.622 46.1644L178.617 46.173L179.926 46.9062ZM174.207 52.5938L174.935 53.905L174.939 53.9029L174.207 52.5938ZM157.426 52.4375L156.671 53.734L156.679 53.7385L157.426 52.4375ZM149.301 36.6875H147.801V36.6963L147.801 36.705L149.301 36.6875ZM152.301 19.8438L150.98 19.1322L150.979 19.1348L152.301 19.8438ZM160.926 11.0312L160.183 9.72799L160.926 11.0312ZM159.832 34.7188L158.484 34.0599L158.332 34.3717V34.7188H159.832ZM169.801 44.3438L168.603 43.4409L168.595 43.4522L169.801 44.3438ZM169.77 33.5L168.578 34.4112L168.585 34.421L168.593 34.4306L169.77 33.5ZM173.426 7.84375V16.125H176.426V7.84375H173.426ZM174.926 14.625H174.457V17.625H174.926V14.625ZM174.457 14.625C170.276 14.625 166.699 15.6347 163.841 17.7664L165.635 20.1711C167.861 18.5112 170.763 17.625 174.457 17.625V14.625ZM163.843 17.7652C160.987 19.8896 159.247 22.8575 158.604 26.5555L161.56 27.0695C162.083 24.0592 163.448 21.7979 165.633 20.1723L163.843 17.7652ZM161.133 27.8825C163.202 25.8505 165.812 24.8125 169.082 24.8125V21.8125C165.102 21.8125 161.713 23.1078 159.031 25.7425L161.133 27.8825ZM169.082 24.8125C172.6 24.8125 175.295 26.071 177.324 28.5703L179.653 26.6797C177.015 23.429 173.439 21.8125 169.082 21.8125V24.8125ZM177.324 28.5703C179.389 31.1146 180.488 34.5234 180.488 38.9375H183.488C183.488 34.0182 182.255 29.8854 179.653 26.6797L177.324 28.5703ZM180.488 38.9375C180.488 41.5845 179.863 43.9834 178.622 46.1645L181.23 47.648C182.739 44.9957 183.488 42.0822 183.488 38.9375H180.488ZM178.617 46.173C177.401 48.344 175.696 50.0423 173.475 51.2846L174.939 53.9029C177.635 52.3952 179.743 50.3019 181.234 47.6395L178.617 46.173ZM173.479 51.2825C171.279 52.5044 168.824 53.125 166.082 53.125V56.125C169.298 56.125 172.26 55.3914 174.935 53.905L173.479 51.2825ZM166.082 53.125C163.087 53.125 160.464 52.4514 158.172 51.1365L156.679 53.7385C159.471 55.3402 162.618 56.125 166.082 56.125V53.125ZM158.18 51.1411C155.896 49.8116 154.112 47.9228 152.82 45.4339L150.157 46.8161C151.698 49.7855 153.872 52.105 156.671 53.7339L158.18 51.1411ZM152.82 45.4339C151.527 42.9437 150.84 40.0351 150.801 36.67L147.801 36.705C147.845 40.4649 148.616 43.8479 150.157 46.8161L152.82 45.4339ZM150.801 36.6875V32.4688H147.801V36.6875H150.801ZM150.801 32.4688C150.801 28.0015 151.752 24.0411 153.623 20.5527L150.979 19.1348C148.85 23.1047 147.801 27.561 147.801 32.4688H150.801ZM153.621 20.5553C155.508 17.0548 158.182 14.3214 161.668 12.3345L160.183 9.72799C156.212 11.9911 153.136 15.1327 150.98 19.1322L153.621 20.5553ZM161.668 12.3345C165.158 10.346 169.035 9.34375 173.332 9.34375V6.34375C168.546 6.34375 164.152 7.4665 160.183 9.72799L161.668 12.3345ZM173.332 9.34375H174.926V6.34375H173.332V9.34375ZM165.426 29.875C163.796 29.875 162.314 30.2546 161.075 31.1085L162.777 33.579C163.412 33.1412 164.264 32.875 165.426 32.875V29.875ZM161.075 31.1085C159.945 31.8869 159.066 32.8701 158.484 34.0599L161.18 35.3776C161.515 34.6924 162.032 34.0922 162.777 33.579L161.075 31.1085ZM158.332 34.7188V37.875H161.332V34.7188H158.332ZM158.332 37.875C158.332 40.8766 158.843 43.3942 160.091 45.1973C161.408 47.1005 163.398 48 165.801 48V45C164.225 45 163.23 44.462 162.558 43.4902C161.816 42.4183 161.332 40.6234 161.332 37.875H158.332ZM165.801 48C167.94 48 169.699 47.0051 171.007 45.2353L168.595 43.4522C167.778 44.5574 166.87 45 165.801 45V48ZM170.999 45.2465C172.316 43.4992 172.926 41.3617 172.926 38.9375H169.926C169.926 40.8466 169.453 42.3133 168.603 43.441L170.999 45.2465ZM172.926 38.9375C172.926 36.4576 172.308 34.2912 170.946 32.5694L168.593 34.4306C169.439 35.5005 169.926 36.959 169.926 38.9375H172.926ZM170.961 32.5888C169.589 30.794 167.697 29.875 165.426 29.875V32.875C166.78 32.875 167.784 33.3727 168.578 34.4112L170.961 32.5888Z" fill="url(#paint1_linear)" fill-opacity="0.4"/>
</g>
<path d="M11.7697 285.781H20.1955V287H10.3166V269.938H11.7697V285.781ZM24.9706 287H23.5292V269.938H24.9706V287ZM34.9958 284.891L35.0895 285.254L35.195 284.891L40.5622 269.938H42.1442L35.7927 287H34.4098L28.0583 269.938H29.6286L34.9958 284.891ZM54.3256 278.82H46.3452V285.781H55.5209V287H44.9037V269.938H55.4623V271.168H46.3452V277.602H54.3256V278.82ZM70.0283 284.891L70.122 285.254L70.2275 284.891L75.5947 269.938H77.1767L70.8251 287H69.4423L63.0908 269.938H64.6611L70.0283 284.891ZM81.6941 287H80.2527V269.938H81.6941V287ZM95.9966 278.82H88.0161V285.781H97.1919V287H86.5747V269.938H97.1333V271.168H88.0161V277.602H95.9966V278.82ZM103.631 282.395L104.158 285.043L104.803 282.512L108.506 269.938H109.807L113.463 282.512L114.096 285.066L114.658 282.395L117.74 269.938H119.217L114.846 287H113.463L109.596 273.652L109.162 271.965L108.74 273.652L104.78 287H103.397L99.0373 269.938H100.514L103.631 282.395ZM131.656 278.82H123.676V285.781H132.852V287H122.234V269.938H132.793V271.168H123.676V277.602H131.656V278.82ZM142.513 279.898H137.556V287H136.103V269.938H141.646C143.467 269.938 144.888 270.379 145.912 271.262C146.935 272.145 147.447 273.379 147.447 274.965C147.447 276.059 147.127 277.023 146.486 277.859C145.845 278.695 144.986 279.273 143.908 279.594L148.174 286.848V287H146.638L142.513 279.898ZM137.556 278.668H141.974C143.185 278.668 144.158 278.324 144.892 277.637C145.627 276.949 145.994 276.059 145.994 274.965C145.994 273.762 145.611 272.828 144.845 272.164C144.08 271.5 143.006 271.168 141.623 271.168H137.556V278.668ZM161.269 282.805C161.269 281.859 160.937 281.113 160.273 280.566C159.609 280.012 158.394 279.488 156.628 278.996C154.863 278.496 153.574 277.953 152.761 277.367C151.605 276.539 151.027 275.453 151.027 274.109C151.027 272.805 151.562 271.746 152.632 270.934C153.71 270.113 155.085 269.703 156.757 269.703C157.89 269.703 158.902 269.922 159.792 270.359C160.691 270.797 161.386 271.406 161.878 272.188C162.371 272.969 162.617 273.84 162.617 274.801H161.164C161.164 273.637 160.765 272.703 159.968 272C159.171 271.289 158.101 270.934 156.757 270.934C155.453 270.934 154.414 271.227 153.64 271.812C152.867 272.391 152.48 273.148 152.48 274.086C152.48 274.953 152.828 275.66 153.523 276.207C154.218 276.754 155.332 277.238 156.863 277.66C158.394 278.074 159.554 278.508 160.343 278.961C161.132 279.406 161.726 279.941 162.125 280.566C162.523 281.191 162.722 281.93 162.722 282.781C162.722 284.125 162.183 285.203 161.105 286.016C160.035 286.828 158.621 287.234 156.863 287.234C155.66 287.234 154.554 287.02 153.546 286.59C152.546 286.16 151.785 285.559 151.261 284.785C150.746 284.012 150.488 283.125 150.488 282.125H151.929C151.929 283.328 152.378 284.277 153.277 284.973C154.175 285.668 155.371 286.016 156.863 286.016C158.191 286.016 159.257 285.723 160.062 285.137C160.867 284.551 161.269 283.773 161.269 282.805ZM174.033 283.555C174.033 282.703 174.143 281.877 174.361 281.076C174.58 280.271 174.9 279.537 175.322 278.873C175.744 278.205 176.197 277.727 176.682 277.438L176.851 277.912C176.594 278.096 176.338 278.363 176.084 278.715C175.83 279.066 175.603 279.484 175.404 279.969C175.205 280.453 175.043 280.998 174.918 281.604C174.797 282.205 174.736 282.889 174.736 283.654C174.736 284.471 174.828 285.256 175.012 286.01C175.199 286.764 175.455 287.428 175.779 288.002C176.103 288.58 176.461 289.014 176.851 289.303L176.682 289.754C176.185 289.457 175.726 288.977 175.305 288.312C174.883 287.652 174.564 286.926 174.35 286.133C174.139 285.336 174.033 284.477 174.033 283.555ZM180.534 287.117C179.995 287.117 179.507 286.984 179.069 286.719C178.636 286.453 178.298 286.084 178.055 285.611C177.813 285.135 177.692 284.602 177.692 284.012V283.76C177.692 283.15 177.809 282.602 178.044 282.113C178.282 281.625 178.612 281.242 179.034 280.965C179.456 280.684 179.913 280.543 180.405 280.543C181.175 280.543 181.784 280.807 182.233 281.334C182.686 281.857 182.913 282.574 182.913 283.484V283.877H178.389V284.012C178.389 284.73 178.595 285.33 179.005 285.811C179.419 286.287 179.938 286.525 180.563 286.525C180.938 286.525 181.268 286.457 181.554 286.32C181.843 286.184 182.104 285.965 182.339 285.664L182.778 285.998C182.262 286.744 181.514 287.117 180.534 287.117ZM180.405 281.141C179.878 281.141 179.432 281.334 179.069 281.721C178.71 282.107 178.491 282.627 178.413 283.279H182.216V283.203C182.196 282.594 182.022 282.098 181.694 281.715C181.366 281.332 180.936 281.141 180.405 281.141ZM186.39 283.232L188.101 280.66H188.933L186.783 283.771L189.027 287H188.201L186.396 284.316L184.591 287H183.765L186.004 283.771L183.853 280.66H184.679L186.39 283.232ZM195.452 283.895C195.452 284.883 195.233 285.668 194.795 286.25C194.358 286.828 193.772 287.117 193.038 287.117C192.17 287.117 191.506 286.812 191.045 286.203V289.438H190.348V280.66H190.999L191.034 281.557C191.491 280.881 192.153 280.543 193.02 280.543C193.778 280.543 194.372 280.83 194.801 281.404C195.235 281.979 195.452 282.775 195.452 283.795V283.895ZM194.749 283.771C194.749 282.963 194.583 282.324 194.251 281.855C193.919 281.387 193.456 281.152 192.862 281.152C192.432 281.152 192.063 281.256 191.754 281.463C191.446 281.67 191.21 281.971 191.045 282.365V285.406C191.213 285.77 191.454 286.047 191.766 286.238C192.079 286.43 192.448 286.525 192.874 286.525C193.463 286.525 193.922 286.291 194.251 285.822C194.583 285.35 194.749 284.666 194.749 283.771ZM199.585 287.117C199.046 287.117 198.558 286.984 198.121 286.719C197.687 286.453 197.349 286.084 197.107 285.611C196.865 285.135 196.744 284.602 196.744 284.012V283.76C196.744 283.15 196.861 282.602 197.095 282.113C197.333 281.625 197.664 281.242 198.085 280.965C198.507 280.684 198.964 280.543 199.456 280.543C200.226 280.543 200.835 280.807 201.285 281.334C201.738 281.857 201.964 282.574 201.964 283.484V283.877H197.441V284.012C197.441 284.73 197.646 285.33 198.056 285.811C198.47 286.287 198.99 286.525 199.615 286.525C199.99 286.525 200.32 286.457 200.605 286.32C200.894 286.184 201.156 285.965 201.39 285.664L201.83 285.998C201.314 286.744 200.566 287.117 199.585 287.117ZM199.456 281.141C198.929 281.141 198.484 281.334 198.121 281.721C197.761 282.107 197.542 282.627 197.464 283.279H201.267V283.203C201.247 282.594 201.074 282.098 200.746 281.715C200.417 281.332 199.988 281.141 199.456 281.141ZM205.793 286.525C206.282 286.525 206.69 286.389 207.018 286.115C207.35 285.838 207.53 285.48 207.557 285.043H208.231C208.211 285.43 208.09 285.783 207.867 286.104C207.645 286.42 207.348 286.668 206.977 286.848C206.61 287.027 206.215 287.117 205.793 287.117C204.961 287.117 204.301 286.828 203.813 286.25C203.328 285.672 203.086 284.895 203.086 283.918V283.707C203.086 283.082 203.196 282.529 203.414 282.049C203.633 281.568 203.946 281.197 204.352 280.936C204.762 280.674 205.241 280.543 205.787 280.543C206.483 280.543 207.055 280.75 207.504 281.164C207.957 281.578 208.2 282.123 208.231 282.799H207.557C207.526 282.303 207.346 281.902 207.018 281.598C206.694 281.293 206.284 281.141 205.787 281.141C205.155 281.141 204.662 281.369 204.311 281.826C203.963 282.283 203.789 282.924 203.789 283.748V283.953C203.789 284.762 203.963 285.393 204.311 285.846C204.662 286.299 205.157 286.525 205.793 286.525ZM210.847 279.037V280.66H212.159V281.234H210.847V285.459C210.847 285.811 210.909 286.072 211.034 286.244C211.163 286.416 211.376 286.502 211.673 286.502C211.79 286.502 211.98 286.482 212.241 286.443L212.271 287.018C212.087 287.084 211.837 287.117 211.521 287.117C211.04 287.117 210.691 286.979 210.472 286.701C210.253 286.42 210.144 286.008 210.144 285.465V281.234H208.978V280.66H210.144V279.037H210.847ZM216.188 287.117C215.649 287.117 215.16 286.984 214.723 286.719C214.289 286.453 213.951 286.084 213.709 285.611C213.467 285.135 213.346 284.602 213.346 284.012V283.76C213.346 283.15 213.463 282.602 213.697 282.113C213.936 281.625 214.266 281.242 214.688 280.965C215.109 280.684 215.566 280.543 216.059 280.543C216.828 280.543 217.438 280.807 217.887 281.334C218.34 281.857 218.566 282.574 218.566 283.484V283.877H214.043V284.012C214.043 284.73 214.248 285.33 214.658 285.811C215.072 286.287 215.592 286.525 216.217 286.525C216.592 286.525 216.922 286.457 217.207 286.32C217.496 286.184 217.758 285.965 217.992 285.664L218.432 285.998C217.916 286.744 217.168 287.117 216.188 287.117ZM216.059 281.141C215.531 281.141 215.086 281.334 214.723 281.721C214.363 282.107 214.145 282.627 214.066 283.279H217.869V283.203C217.85 282.594 217.676 282.098 217.348 281.715C217.02 281.332 216.59 281.141 216.059 281.141ZM219.77 283.771C219.77 282.787 219.989 282.004 220.427 281.422C220.868 280.836 221.466 280.543 222.22 280.543C223.075 280.543 223.727 280.881 224.177 281.557V278H224.874V287H224.218L224.188 286.156C223.739 286.797 223.079 287.117 222.208 287.117C221.477 287.117 220.888 286.824 220.438 286.238C219.993 285.648 219.77 284.854 219.77 283.854V283.771ZM220.479 283.895C220.479 284.703 220.642 285.342 220.966 285.811C221.29 286.275 221.747 286.508 222.337 286.508C223.2 286.508 223.813 286.127 224.177 285.365V282.389C223.813 281.564 223.204 281.152 222.349 281.152C221.759 281.152 221.3 281.385 220.972 281.85C220.644 282.311 220.479 282.992 220.479 283.895ZM228.937 283.643C228.937 284.502 228.83 285.33 228.615 286.127C228.404 286.92 228.09 287.646 227.672 288.307C227.254 288.967 226.793 289.449 226.289 289.754L226.119 289.303C226.502 289.029 226.855 288.605 227.18 288.031C227.508 287.457 227.765 286.789 227.953 286.027C228.14 285.262 228.234 284.432 228.234 283.537C228.234 282.729 228.14 281.949 227.953 281.199C227.765 280.445 227.506 279.773 227.174 279.184C226.846 278.59 226.494 278.158 226.119 277.889L226.289 277.438C226.781 277.738 227.236 278.219 227.654 278.879C228.072 279.539 228.39 280.271 228.609 281.076C228.828 281.881 228.937 282.736 228.937 283.643Z" fill="#EBEBF5"/>
<path d="M22.45 231V232.2H23.65V231H22.45ZM11.8875 231H10.6875V232.2H11.8875V231ZM11.8875 197.375H13.0875V195.774L11.551 196.223L11.8875 197.375ZM1.5125 200.406H0.312496V202.007L1.84903 201.558L1.5125 200.406ZM1.5125 192.406L1.12027 191.272L0.312496 191.552V192.406H1.5125ZM21.4812 185.5V184.3H21.2796L21.089 184.366L21.4812 185.5ZM22.45 185.5H23.65V184.3H22.45V185.5ZM22.45 229.8H11.8875V232.2H22.45V229.8ZM13.0875 231V197.375H10.6875V231H13.0875ZM11.551 196.223L1.17596 199.254L1.84903 201.558L12.224 198.527L11.551 196.223ZM2.7125 200.406V192.406H0.312496V200.406H2.7125ZM1.90472 193.54L21.8735 186.634L21.089 184.366L1.12027 191.272L1.90472 193.54ZM21.4812 186.7H22.45V184.3H21.4812V186.7ZM21.25 185.5V231H23.65V185.5H21.25ZM64.2462 226.625L63.3234 225.858L63.3206 225.861L64.2462 226.625ZM40.8087 189.875L39.8859 189.108L39.8831 189.111L40.8087 189.875ZM64.2462 189.906L63.3211 190.671L64.2462 189.906ZM56.59 195.438L55.5278 195.996L55.5308 196.001L56.59 195.438ZM48.5587 195.25L47.5097 194.667L47.5036 194.678L48.5587 195.25ZM47.2462 202.062L46.0465 202.038L46.0462 202.05V202.062H47.2462ZM48.5275 221.156L47.4714 221.726L47.4746 221.732L48.5275 221.156ZM56.5587 221.219L57.605 221.806L57.6084 221.8L56.5587 221.219ZM57.8712 214L59.0712 214.008V214H57.8712ZM67.2025 212.406C67.2025 218.387 65.8532 222.815 63.3234 225.858L65.1691 227.392C68.1809 223.769 69.6025 218.717 69.6025 212.406H67.2025ZM63.3206 225.861C60.8368 228.872 57.3174 230.425 52.59 230.425V232.825C57.9043 232.825 62.1557 231.045 65.1719 227.389L63.3206 225.861ZM52.59 230.425C47.8201 230.425 44.2694 228.861 41.7652 225.829L39.9148 227.358C42.9522 231.035 47.2349 232.825 52.59 232.825V230.425ZM41.7652 225.829C39.2317 222.763 37.8837 218.342 37.8837 212.406H35.4837C35.4837 218.678 36.9066 223.716 39.9148 227.358L41.7652 225.829ZM37.8837 212.406V204.094H35.4837V212.406H37.8837ZM37.8837 204.094C37.8837 198.111 39.2235 193.682 41.7344 190.639L39.8831 189.111C36.894 192.734 35.4837 197.785 35.4837 204.094H37.8837ZM41.7316 190.642C44.236 187.629 47.7776 186.075 52.5275 186.075V183.675C47.194 183.675 42.9232 185.454 39.8859 189.108L41.7316 190.642ZM52.5275 186.075C57.2747 186.075 60.8158 187.638 63.3211 190.671L65.1714 189.142C62.135 185.466 57.8636 183.675 52.5275 183.675V186.075ZM63.3211 190.671C65.854 193.737 67.2025 198.167 67.2025 204.125H69.6025C69.6025 197.833 68.1802 192.784 65.1714 189.142L63.3211 190.671ZM67.2025 204.125V212.406H69.6025V204.125H67.2025ZM59.0712 202.75C59.0712 199.417 58.6431 196.74 57.6492 194.874L55.5308 196.001C56.2452 197.343 56.6712 199.542 56.6712 202.75H59.0712ZM57.6522 194.879C57.1397 193.904 56.4457 193.117 55.5511 192.58C54.6572 192.044 53.6338 191.8 52.5275 191.8V194.2C53.2754 194.2 53.8561 194.362 54.3164 194.638C54.776 194.914 55.1862 195.346 55.5278 195.996L57.6522 194.879ZM52.5275 191.8C51.4537 191.8 50.4578 192.023 49.5841 192.519C48.707 193.016 48.0194 193.75 47.5098 194.667L49.6077 195.833C49.9314 195.25 50.3219 194.859 50.7678 194.606C51.217 194.352 51.7888 194.2 52.5275 194.2V191.8ZM47.5036 194.678C46.5541 196.431 46.1103 198.933 46.0465 202.038L48.446 202.087C48.5072 199.109 48.9384 197.069 49.6139 195.822L47.5036 194.678ZM46.0462 202.062V213.688H48.4462V202.062H46.0462ZM46.0462 213.688C46.0462 217.135 46.4714 219.872 47.4714 221.726L49.5836 220.587C48.8752 219.273 48.4462 217.032 48.4462 213.688H46.0462ZM47.4746 221.732C47.9923 222.679 48.6908 223.438 49.5841 223.953C50.4748 224.467 51.4917 224.7 52.59 224.7V222.3C51.8341 222.3 51.2469 222.142 50.7834 221.875C50.3225 221.609 49.9169 221.196 49.5804 220.581L47.4746 221.732ZM52.59 224.7C53.6589 224.7 54.6511 224.472 55.5239 223.97C56.3985 223.467 57.0875 222.728 57.605 221.806L55.5125 220.631C55.1758 221.23 54.7763 221.632 54.3279 221.889C53.8779 222.148 53.3128 222.3 52.59 222.3V224.7ZM57.6084 221.8C58.6118 219.989 59.05 217.335 59.0712 214.008L56.6713 213.992C56.6508 217.207 56.214 219.365 55.5091 220.637L57.6084 221.8ZM59.0712 214V202.75H56.6712V214H59.0712ZM78.3862 243.25L77.8753 244.336L78.5763 244.666L79.1655 244.163L78.3862 243.25ZM73.0737 240.75L72.0004 240.213L71.4508 241.313L72.5628 241.836L73.0737 240.75ZM74.1362 238.625L73.0797 238.056L73.0711 238.072L73.0629 238.088L74.1362 238.625ZM76.4175 230.875L77.6171 230.906L77.6175 230.89V230.875H76.4175ZM76.4175 223.062V221.862H75.2175V223.062H76.4175ZM84.855 223.062L86.055 223.068L86.0605 221.862H84.855V223.062ZM84.8237 229.844L86.0237 229.854L86.0237 229.849L84.8237 229.844ZM78.8972 242.164L73.5847 239.664L72.5628 241.836L77.8753 244.336L78.8972 242.164ZM74.1471 241.287L75.2096 239.162L73.0629 238.088L72.0004 240.213L74.1471 241.287ZM75.1928 239.194C76.7185 236.36 77.5488 233.593 77.6171 230.906L75.2179 230.844C75.1612 233.073 74.4706 235.473 73.0797 238.056L75.1928 239.194ZM77.6175 230.875V223.062H75.2175V230.875H77.6175ZM76.4175 224.262H84.855V221.862H76.4175V224.262ZM83.655 223.057L83.6238 229.838L86.0237 229.849L86.055 223.068L83.655 223.057ZM83.6238 229.833C83.6047 232.025 83.0432 234.288 81.9013 236.631L84.0587 237.682C85.3335 235.066 86.0011 232.454 86.0237 229.854L83.6238 229.833ZM81.9013 236.631C80.7557 238.981 79.3204 240.874 77.607 242.337L79.1655 244.163C81.1604 242.459 82.7876 240.29 84.0587 237.682L81.9013 236.631ZM119.839 226.625L118.916 225.858L118.913 225.861L119.839 226.625ZM96.4012 189.875L95.4784 189.108L95.4756 189.111L96.4012 189.875ZM119.839 189.906L118.914 190.671L119.839 189.906ZM112.182 195.438L111.12 195.996L111.123 196.001L112.182 195.438ZM104.151 195.25L103.102 194.667L103.096 194.678L104.151 195.25ZM102.839 202.062L101.639 202.038L101.639 202.05V202.062H102.839ZM104.12 221.156L103.064 221.726L103.067 221.732L104.12 221.156ZM112.151 221.219L113.198 221.806L113.201 221.8L112.151 221.219ZM113.464 214L114.664 214.008V214H113.464ZM122.795 212.406C122.795 218.387 121.446 222.815 118.916 225.858L120.762 227.392C123.773 223.769 125.195 218.717 125.195 212.406H122.795ZM118.913 225.861C116.429 228.872 112.91 230.425 108.182 230.425V232.825C113.497 232.825 117.748 231.045 120.764 227.389L118.913 225.861ZM108.182 230.425C103.413 230.425 99.8619 228.861 97.3577 225.829L95.5073 227.358C98.5447 231.035 102.827 232.825 108.182 232.825V230.425ZM97.3577 225.829C94.8242 222.763 93.4762 218.342 93.4762 212.406H91.0762C91.0762 218.678 92.4991 223.716 95.5073 227.358L97.3577 225.829ZM93.4762 212.406V204.094H91.0762V212.406H93.4762ZM93.4762 204.094C93.4762 198.111 94.816 193.682 97.3269 190.639L95.4756 189.111C92.4865 192.734 91.0762 197.785 91.0762 204.094H93.4762ZM97.3241 190.642C99.8285 187.629 103.37 186.075 108.12 186.075V183.675C102.787 183.675 98.5157 185.454 95.4784 189.108L97.3241 190.642ZM108.12 186.075C112.867 186.075 116.408 187.638 118.914 190.671L120.764 189.142C117.728 185.466 113.456 183.675 108.12 183.675V186.075ZM118.914 190.671C121.446 193.737 122.795 198.167 122.795 204.125H125.195C125.195 197.833 123.773 192.784 120.764 189.142L118.914 190.671ZM122.795 204.125V212.406H125.195V204.125H122.795ZM114.664 202.75C114.664 199.417 114.236 196.74 113.242 194.874L111.123 196.001C111.838 197.343 112.264 199.542 112.264 202.75H114.664ZM113.245 194.879C112.732 193.904 112.038 193.117 111.144 192.58C110.25 192.044 109.226 191.8 108.12 191.8V194.2C108.868 194.2 109.449 194.362 109.909 194.638C110.368 194.914 110.779 195.346 111.12 195.996L113.245 194.879ZM108.12 191.8C107.046 191.8 106.05 192.023 105.177 192.519C104.3 193.016 103.612 193.75 103.102 194.667L105.2 195.833C105.524 195.25 105.914 194.859 106.36 194.606C106.809 194.352 107.381 194.2 108.12 194.2V191.8ZM103.096 194.678C102.147 196.431 101.703 198.933 101.639 202.038L104.038 202.087C104.1 199.109 104.531 197.069 105.206 195.822L103.096 194.678ZM101.639 202.062V213.688H104.039V202.062H101.639ZM101.639 213.688C101.639 217.135 102.064 219.872 103.064 221.726L105.176 220.587C104.468 219.273 104.039 217.032 104.039 213.688H101.639ZM103.067 221.732C103.585 222.679 104.283 223.438 105.177 223.953C106.067 224.467 107.084 224.7 108.182 224.7V222.3C107.427 222.3 106.839 222.142 106.376 221.875C105.915 221.609 105.509 221.196 105.173 220.581L103.067 221.732ZM108.182 224.7C109.251 224.7 110.244 224.472 111.116 223.97C111.991 223.467 112.68 222.728 113.198 221.806L111.105 220.631C110.768 221.23 110.369 221.632 109.92 221.889C109.47 222.148 108.905 222.3 108.182 222.3V224.7ZM113.201 221.8C114.204 219.989 114.643 217.335 114.664 214.008L112.264 213.992C112.243 217.207 111.807 219.365 111.102 220.637L113.201 221.8ZM114.664 214V202.75H112.264V214H114.664ZM157.541 226.625L156.618 225.858L156.616 225.861L157.541 226.625ZM134.104 189.875L133.181 189.108L133.178 189.111L134.104 189.875ZM157.541 189.906L156.616 190.671L157.541 189.906ZM149.885 195.438L148.823 195.996L148.826 196.001L149.885 195.438ZM141.854 195.25L140.805 194.667L140.799 194.678L141.854 195.25ZM140.541 202.062L139.341 202.038L139.341 202.05V202.062H140.541ZM141.822 221.156L140.766 221.726L140.77 221.732L141.822 221.156ZM149.854 221.219L150.9 221.806L150.903 221.8L149.854 221.219ZM151.166 214L152.366 214.008V214H151.166ZM160.497 212.406C160.497 218.387 159.148 222.815 156.618 225.858L158.464 227.392C161.476 223.769 162.897 218.717 162.897 212.406H160.497ZM156.616 225.861C154.132 228.872 150.612 230.425 145.885 230.425V232.825C151.199 232.825 155.451 231.045 158.467 227.389L156.616 225.861ZM145.885 230.425C141.115 230.425 137.564 228.861 135.06 225.829L133.21 227.358C136.247 231.035 140.53 232.825 145.885 232.825V230.425ZM135.06 225.829C132.527 222.763 131.179 218.342 131.179 212.406H128.779C128.779 218.678 130.202 223.716 133.21 227.358L135.06 225.829ZM131.179 212.406V204.094H128.779V212.406H131.179ZM131.179 204.094C131.179 198.111 132.518 193.682 135.029 190.639L133.178 189.111C130.189 192.734 128.779 197.785 128.779 204.094H131.179ZM135.027 190.642C137.531 187.629 141.073 186.075 145.822 186.075V183.675C140.489 183.675 136.218 185.454 133.181 189.108L135.027 190.642ZM145.822 186.075C150.57 186.075 154.111 187.638 156.616 190.671L158.466 189.142C155.43 185.466 151.159 183.675 145.822 183.675V186.075ZM156.616 190.671C159.149 193.737 160.497 198.167 160.497 204.125H162.897C162.897 197.833 161.475 192.784 158.466 189.142L156.616 190.671ZM160.497 204.125V212.406H162.897V204.125H160.497ZM152.366 202.75C152.366 199.417 151.938 196.74 150.944 194.874L148.826 196.001C149.54 197.343 149.966 199.542 149.966 202.75H152.366ZM150.947 194.879C150.435 193.904 149.741 193.117 148.846 192.58C147.952 192.044 146.929 191.8 145.822 191.8V194.2C146.57 194.2 147.151 194.362 147.611 194.638C148.071 194.914 148.481 195.346 148.823 195.996L150.947 194.879ZM145.822 191.8C144.749 191.8 143.753 192.023 142.879 192.519C142.002 193.016 141.314 193.75 140.805 194.667L142.903 195.833C143.226 195.25 143.617 194.859 144.063 194.606C144.512 194.352 145.084 194.2 145.822 194.2V191.8ZM140.799 194.678C139.849 196.431 139.405 198.933 139.341 202.038L141.741 202.087C141.802 199.109 142.233 197.069 142.909 195.822L140.799 194.678ZM139.341 202.062V213.688H141.741V202.062H139.341ZM139.341 213.688C139.341 217.135 139.766 219.872 140.766 221.726L142.879 220.587C142.17 219.273 141.741 217.032 141.741 213.688H139.341ZM140.77 221.732C141.287 222.679 141.986 223.438 142.879 223.953C143.77 224.467 144.787 224.7 145.885 224.7V222.3C145.129 222.3 144.542 222.142 144.078 221.875C143.618 221.609 143.212 221.196 142.875 220.581L140.77 221.732ZM145.885 224.7C146.954 224.7 147.946 224.472 148.819 223.97C149.693 223.467 150.382 222.728 150.9 221.806L148.807 220.631C148.471 221.23 148.071 221.632 147.623 221.889C147.173 222.148 146.608 222.3 145.885 222.3V224.7ZM150.903 221.8C151.907 219.989 152.345 217.335 152.366 214.008L149.966 213.992C149.946 217.207 149.509 219.365 148.804 220.637L150.903 221.8ZM152.366 214V202.75H149.966V214H152.366ZM195.244 226.625L194.321 225.858L194.318 225.861L195.244 226.625ZM171.806 189.875L170.883 189.108L170.881 189.111L171.806 189.875ZM195.244 189.906L194.319 190.671L195.244 189.906ZM187.587 195.438L186.525 195.996L186.528 196.001L187.587 195.438ZM179.556 195.25L178.507 194.667L178.501 194.678L179.556 195.25ZM178.244 202.062L177.044 202.038L177.044 202.05V202.062H178.244ZM179.525 221.156L178.469 221.726L178.472 221.732L179.525 221.156ZM187.556 221.219L188.603 221.806L188.606 221.8L187.556 221.219ZM188.869 214L190.069 214.008V214H188.869ZM198.2 212.406C198.2 218.387 196.851 222.815 194.321 225.858L196.167 227.392C199.178 223.769 200.6 218.717 200.6 212.406H198.2ZM194.318 225.861C191.834 228.872 188.315 230.425 183.587 230.425V232.825C188.902 232.825 193.153 231.045 196.169 227.389L194.318 225.861ZM183.587 230.425C178.818 230.425 175.267 228.861 172.763 225.829L170.912 227.358C173.95 231.035 178.232 232.825 183.587 232.825V230.425ZM172.763 225.829C170.229 222.763 168.881 218.342 168.881 212.406H166.481C166.481 218.678 167.904 223.716 170.912 227.358L172.763 225.829ZM168.881 212.406V204.094H166.481V212.406H168.881ZM168.881 204.094C168.881 198.111 170.221 193.682 172.732 190.639L170.881 189.111C167.892 192.734 166.481 197.785 166.481 204.094H168.881ZM172.729 190.642C175.233 187.629 178.775 186.075 183.525 186.075V183.675C178.192 183.675 173.921 185.454 170.883 189.108L172.729 190.642ZM183.525 186.075C188.272 186.075 191.813 187.638 194.319 190.671L196.169 189.142C193.133 185.466 188.861 183.675 183.525 183.675V186.075ZM194.319 190.671C196.851 193.737 198.2 198.167 198.2 204.125H200.6C200.6 197.833 199.178 192.784 196.169 189.142L194.319 190.671ZM198.2 204.125V212.406H200.6V204.125H198.2ZM190.069 202.75C190.069 199.417 189.641 196.74 188.647 194.874L186.528 196.001C187.243 197.343 187.669 199.542 187.669 202.75H190.069ZM188.65 194.879C188.137 193.904 187.443 193.117 186.549 192.58C185.655 192.044 184.631 191.8 183.525 191.8V194.2C184.273 194.2 184.854 194.362 185.314 194.638C185.773 194.914 186.184 195.346 186.525 195.996L188.65 194.879ZM183.525 191.8C182.451 191.8 181.455 192.023 180.582 192.519C179.705 193.016 179.017 193.75 178.507 194.667L180.605 195.833C180.929 195.25 181.319 194.859 181.765 194.606C182.214 194.352 182.786 194.2 183.525 194.2V191.8ZM178.501 194.678C177.552 196.431 177.108 198.933 177.044 202.038L179.443 202.087C179.505 199.109 179.936 197.069 180.611 195.822L178.501 194.678ZM177.044 202.062V213.688H179.444V202.062H177.044ZM177.044 213.688C177.044 217.135 177.469 219.872 178.469 221.726L180.581 220.587C179.873 219.273 179.444 217.032 179.444 213.688H177.044ZM178.472 221.732C178.99 222.679 179.688 223.438 180.582 223.953C181.472 224.467 182.489 224.7 183.587 224.7V222.3C182.832 222.3 182.244 222.142 181.781 221.875C181.32 221.609 180.914 221.196 180.578 220.581L178.472 221.732ZM183.587 224.7C184.656 224.7 185.649 224.472 186.521 223.97C187.396 223.467 188.085 222.728 188.603 221.806L186.51 220.631C186.173 221.23 185.774 221.632 185.325 221.889C184.875 222.148 184.31 222.3 183.587 222.3V224.7ZM188.606 221.8C189.609 219.989 190.048 217.335 190.069 214.008L187.669 213.992C187.648 217.207 187.212 219.365 186.507 220.637L188.606 221.8ZM190.069 214V202.75H187.669V214H190.069ZM230.425 205.188H229.225V206.388H230.425V205.188ZM241.081 205.188H242.281V203.987H241.081V205.188ZM241.081 214.219V215.419H242.281V214.219H241.081ZM230.425 214.219V213.019H229.225V214.219H230.425ZM230.425 226.438V227.637H231.625V226.438H230.425ZM220.581 226.438H219.381V227.637H220.581V226.438ZM220.581 214.219H221.781V213.019H220.581V214.219ZM209.894 214.219H208.694V215.419H209.894V214.219ZM209.894 205.188V203.987H208.694V205.188H209.894ZM220.581 205.188V206.388H221.781V205.188H220.581ZM220.581 193.312V192.112H219.381V193.312H220.581ZM230.425 193.312H231.625V192.112H230.425V193.312ZM230.425 206.388H241.081V203.987H230.425V206.388ZM239.881 205.188V214.219H242.281V205.188H239.881ZM241.081 213.019H230.425V215.419H241.081V213.019ZM229.225 214.219V226.438H231.625V214.219H229.225ZM230.425 225.238H220.581V227.637H230.425V225.238ZM221.781 226.438V214.219H219.381V226.438H221.781ZM220.581 213.019H209.894V215.419H220.581V213.019ZM211.094 214.219V205.188H208.694V214.219H211.094ZM209.894 206.388H220.581V203.987H209.894V206.388ZM221.781 205.188V193.312H219.381V205.188H221.781ZM220.581 194.513H230.425V192.112H220.581V194.513ZM229.225 193.312V205.188H231.625V193.312H229.225Z" fill="url(#paint2_linear)"/>
<g filter="url(#filter2_f)">
<path d="M88.7687 421V422.5H90.2687V421H88.7687ZM78.2062 421H76.7062V422.5H78.2062V421ZM78.2062 387.375H79.7062V385.374L77.7856 385.935L78.2062 387.375ZM67.8312 390.406H66.3312V392.407L68.2519 391.846L67.8312 390.406ZM67.8312 382.406L67.341 380.989L66.3312 381.338V382.406H67.8312ZM87.8 375.5V374H87.5479L87.3097 374.082L87.8 375.5ZM88.7687 375.5H90.2687V374H88.7687V375.5ZM88.7687 419.5H78.2062V422.5H88.7687V419.5ZM79.7062 421V387.375H76.7062V421H79.7062ZM77.7856 385.935L67.4106 388.966L68.2519 391.846L78.6269 388.815L77.7856 385.935ZM69.3312 390.406V382.406H66.3312V390.406H69.3312ZM68.3215 383.824L88.2903 376.918L87.3097 374.082L67.341 380.989L68.3215 383.824ZM87.8 377H88.7687V374H87.8V377ZM87.2687 375.5V421H90.2687V375.5H87.2687ZM130.565 416.625L129.411 415.666L129.408 415.67L130.565 416.625ZM107.127 379.875L105.974 378.916L105.97 378.92L107.127 379.875ZM130.565 379.906L129.409 380.862L130.565 379.906ZM122.909 385.438L121.581 386.135L121.585 386.142L122.909 385.438ZM114.877 385.25L113.566 384.522L113.562 384.529L113.559 384.536L114.877 385.25ZM113.565 392.062L112.065 392.032L112.065 392.047V392.062H113.565ZM114.846 411.156L113.526 411.868L113.53 411.876L114.846 411.156ZM122.878 411.219L124.185 411.953L124.19 411.946L122.878 411.219ZM124.19 404L125.69 404.01V404H124.19ZM133.221 402.406C133.221 408.346 131.881 412.695 129.411 415.666L131.719 417.584C134.791 413.888 136.221 408.758 136.221 402.406H133.221ZM129.408 415.67C126.991 418.6 123.563 420.125 118.909 420.125V423.125C124.296 423.125 128.639 421.316 131.722 417.58L129.408 415.67ZM118.909 420.125C114.212 420.125 110.753 418.589 108.315 415.638L106.002 417.549C109.106 421.307 113.48 423.125 118.909 423.125V420.125ZM108.315 415.638C105.841 412.643 104.502 408.3 104.502 402.406H101.502C101.502 408.72 102.935 413.836 106.002 417.549L108.315 415.638ZM104.502 402.406V394.094H101.502V402.406H104.502ZM104.502 394.094C104.502 388.152 105.833 383.801 108.285 380.83L105.97 378.92C102.922 382.616 101.502 387.744 101.502 394.094H104.502ZM108.281 380.834C110.719 377.901 114.169 376.375 118.846 376.375V373.375C113.44 373.375 109.078 375.182 105.974 378.916L108.281 380.834ZM118.846 376.375C123.52 376.375 126.97 377.909 129.409 380.862L131.721 378.951C128.619 375.195 124.256 373.375 118.846 373.375V376.375ZM129.409 380.862C131.882 383.856 133.221 388.209 133.221 394.125H136.221C136.221 387.791 134.79 382.665 131.721 378.951L129.409 380.862ZM133.221 394.125V402.406H136.221V394.125H133.221ZM125.69 392.75C125.69 389.401 125.262 386.665 124.233 384.733L121.585 386.142C122.264 387.419 122.69 389.557 122.69 392.75H125.69ZM124.236 384.74C123.703 383.724 122.973 382.892 122.024 382.323C121.076 381.754 119.997 381.5 118.846 381.5V384.5C119.549 384.5 120.075 384.652 120.481 384.896C120.886 385.139 121.261 385.526 121.581 386.135L124.236 384.74ZM118.846 381.5C117.731 381.5 116.682 381.732 115.755 382.258C114.824 382.785 114.099 383.562 113.566 384.522L116.189 385.978C116.489 385.438 116.843 385.09 117.234 384.867C117.631 384.643 118.149 384.5 118.846 384.5V381.5ZM113.559 384.536C112.575 386.352 112.129 388.911 112.065 392.032L115.065 392.093C115.126 389.131 115.555 387.148 116.196 385.964L113.559 384.536ZM112.065 392.062V403.688H115.065V392.062H112.065ZM112.065 403.688C112.065 407.148 112.49 409.947 113.526 411.868L116.166 410.444C115.494 409.198 115.065 407.019 115.065 403.688H112.065ZM113.53 411.876C114.07 412.864 114.806 413.667 115.753 414.213C116.697 414.758 117.768 415 118.909 415V412C118.196 412 117.662 411.851 117.252 411.615C116.845 411.38 116.476 411.011 116.162 410.437L113.53 411.876ZM118.909 415C120.021 415 121.066 414.762 121.992 414.23C122.92 413.697 123.645 412.915 124.185 411.953L121.57 410.484C121.256 411.043 120.892 411.402 120.497 411.629C120.1 411.858 119.588 412 118.909 412V415ZM124.19 411.946C125.23 410.067 125.669 407.351 125.69 404.01L122.69 403.99C122.67 407.191 122.233 409.287 121.565 410.492L124.19 411.946ZM125.69 404V392.75H122.69V404H125.69ZM165.106 395.188H163.606V396.688H165.106V395.188ZM175.762 395.188H177.262V393.688H175.762V395.188ZM175.762 404.219V405.719H177.262V404.219H175.762ZM165.106 404.219V402.719H163.606V404.219H165.106ZM165.106 416.438V417.938H166.606V416.438H165.106ZM155.262 416.438H153.762V417.938H155.262V416.438ZM155.262 404.219H156.762V402.719H155.262V404.219ZM144.575 404.219H143.075V405.719H144.575V404.219ZM144.575 395.188V393.688H143.075V395.188H144.575ZM155.262 395.188V396.688H156.762V395.188H155.262ZM155.262 383.312V381.812H153.762V383.312H155.262ZM165.106 383.312H166.606V381.812H165.106V383.312ZM165.106 396.688H175.762V393.688H165.106V396.688ZM174.262 395.188V404.219H177.262V395.188H174.262ZM175.762 402.719H165.106V405.719H175.762V402.719ZM163.606 404.219V416.438H166.606V404.219H163.606ZM165.106 414.938H155.262V417.938H165.106V414.938ZM156.762 416.438V404.219H153.762V416.438H156.762ZM155.262 402.719H144.575V405.719H155.262V402.719ZM146.075 404.219V395.188H143.075V404.219H146.075ZM144.575 396.688H155.262V393.688H144.575V396.688ZM156.762 395.188V383.312H153.762V395.188H156.762ZM155.262 384.812H165.106V381.812H155.262V384.812ZM163.606 383.312V395.188H166.606V383.312H163.606Z" fill="url(#paint3_linear)" fill-opacity="0.4"/>
</g>
<path d="M72.8125 457.805C72.8125 456.859 72.4805 456.113 71.8164 455.566C71.1523 455.012 69.9375 454.488 68.1719 453.996C66.4062 453.496 65.1172 452.953 64.3047 452.367C63.1484 451.539 62.5703 450.453 62.5703 449.109C62.5703 447.805 63.1055 446.746 64.1758 445.934C65.2539 445.113 66.6289 444.703 68.3008 444.703C69.4336 444.703 70.4453 444.922 71.3359 445.359C72.2344 445.797 72.9297 446.406 73.4219 447.188C73.9141 447.969 74.1602 448.84 74.1602 449.801H72.707C72.707 448.637 72.3086 447.703 71.5117 447C70.7148 446.289 69.6445 445.934 68.3008 445.934C66.9961 445.934 65.957 446.227 65.1836 446.812C64.4102 447.391 64.0234 448.148 64.0234 449.086C64.0234 449.953 64.3711 450.66 65.0664 451.207C65.7617 451.754 66.875 452.238 68.4062 452.66C69.9375 453.074 71.0977 453.508 71.8867 453.961C72.6758 454.406 73.2695 454.941 73.668 455.566C74.0664 456.191 74.2656 456.93 74.2656 457.781C74.2656 459.125 73.7266 460.203 72.6484 461.016C71.5781 461.828 70.1641 462.234 68.4062 462.234C67.2031 462.234 66.0977 462.02 65.0898 461.59C64.0898 461.16 63.3281 460.559 62.8047 459.785C62.2891 459.012 62.0312 458.125 62.0312 457.125H63.4727C63.4727 458.328 63.9219 459.277 64.8203 459.973C65.7188 460.668 66.9141 461.016 68.4062 461.016C69.7344 461.016 70.8008 460.723 71.6055 460.137C72.4102 459.551 72.8125 458.773 72.8125 457.805ZM79.0642 455.051V462H77.6228V444.938H83.4353C85.2087 444.938 86.6072 445.391 87.6306 446.297C88.6619 447.203 89.1775 448.449 89.1775 450.035C89.1775 451.637 88.6814 452.875 87.6892 453.75C86.7048 454.617 85.2752 455.051 83.4002 455.051H79.0642ZM79.0642 453.832H83.4353C84.8337 453.832 85.9002 453.5 86.6345 452.836C87.3689 452.172 87.7361 451.246 87.7361 450.059C87.7361 448.879 87.3689 447.941 86.6345 447.246C85.908 446.543 84.8728 446.184 83.5291 446.168H79.0642V453.832ZM102.074 453.82H94.0933V460.781H103.269V462H92.6519V444.938H103.21V446.168H94.0933V452.602H102.074V453.82ZM115.767 457.219H108.021L106.263 462H104.751L111.208 444.938H112.579L119.036 462H117.536L115.767 457.219ZM108.466 455.988H115.31L111.888 446.695L108.466 455.988ZM125.64 453.527L123.237 455.895V462H121.796V444.938H123.237V454.137L131.98 444.938H133.796L126.647 452.531L134.347 462H132.589L125.64 453.527ZM146.598 453.82H138.618V460.781H147.794V462H137.177V444.938H147.735V446.168H138.618V452.602H146.598V453.82ZM157.456 454.898H152.499V462H151.045V444.938H156.588C158.409 444.938 159.831 445.379 160.854 446.262C161.878 447.145 162.389 448.379 162.389 449.965C162.389 451.059 162.069 452.023 161.428 452.859C160.788 453.695 159.928 454.273 158.85 454.594L163.116 461.848V462H161.581L157.456 454.898ZM152.499 453.668H156.917C158.128 453.668 159.1 453.324 159.835 452.637C160.569 451.949 160.936 451.059 160.936 449.965C160.936 448.762 160.553 447.828 159.788 447.164C159.022 446.5 157.948 446.168 156.565 446.168H152.499V453.668ZM176.211 457.805C176.211 456.859 175.879 456.113 175.215 455.566C174.551 455.012 173.336 454.488 171.571 453.996C169.805 453.496 168.516 452.953 167.703 452.367C166.547 451.539 165.969 450.453 165.969 449.109C165.969 447.805 166.504 446.746 167.575 445.934C168.653 445.113 170.028 444.703 171.7 444.703C172.832 444.703 173.844 444.922 174.735 445.359C175.633 445.797 176.328 446.406 176.821 447.188C177.313 447.969 177.559 448.84 177.559 449.801H176.106C176.106 448.637 175.707 447.703 174.91 447C174.114 446.289 173.043 445.934 171.7 445.934C170.395 445.934 169.356 446.227 168.582 446.812C167.809 447.391 167.422 448.148 167.422 449.086C167.422 449.953 167.77 450.66 168.465 451.207C169.16 451.754 170.274 452.238 171.805 452.66C173.336 453.074 174.496 453.508 175.285 453.961C176.075 454.406 176.668 454.941 177.067 455.566C177.465 456.191 177.664 456.93 177.664 457.781C177.664 459.125 177.125 460.203 176.047 461.016C174.977 461.828 173.563 462.234 171.805 462.234C170.602 462.234 169.496 462.02 168.489 461.59C167.489 461.16 166.727 460.559 166.203 459.785C165.688 459.012 165.43 458.125 165.43 457.125H166.871C166.871 458.328 167.321 459.277 168.219 459.973C169.118 460.668 170.313 461.016 171.805 461.016C173.133 461.016 174.2 460.723 175.004 460.137C175.809 459.551 176.211 458.773 176.211 457.805Z" fill="#EBEBF5"/>
<defs>
<filter id="filter0_f" x="41.2081" y="0.868293" width="32.2009" height="56.7634" filterUnits="userSpaceOnUse" color-interpolation-filters="sRGB">
<feFlood flood-opacity="0" result="BackgroundImageFix"/>
<feBlend mode="normal" in="SourceGraphic" in2="BackgroundImageFix" result="shape"/>
<feGaussianBlur stdDeviation="2.06585" result="effect1_foregroundBlur"/>
</filter>
<filter id="filter1_f" x="143.669" y="2.21204" width="43.9509" height="58.0447" filterUnits="userSpaceOnUse" color-interpolation-filters="sRGB">
<feFlood flood-opacity="0" result="BackgroundImageFix"/>
<feBlend mode="normal" in="SourceGraphic" in2="BackgroundImageFix" result="shape"/>
<feGaussianBlur stdDeviation="2.06585" result="effect1_foregroundBlur"/>
</filter>
<filter id="filter2_f" x="62.202" y="369.245" width="119.191" height="58.01" filterUnits="userSpaceOnUse" color-interpolation-filters="sRGB">
<feFlood flood-opacity="0" result="BackgroundImageFix"/>
<feBlend mode="normal" in="SourceGraphic" in2="BackgroundImageFix" result="shape"/>
<feGaussianBlur stdDeviation="2.065" result="effect1_foregroundBlur"/>
</filter>
<linearGradient id="paint0_linear" x1="47.4151" y1="12.9268" x2="71.7799" y2="3.91548" gradientUnits="userSpaceOnUse">
<stop stop-color="#00D09C"/>
<stop offset="1" stop-color="#5367FC"/>
</linearGradient>
<linearGradient id="paint1_linear" x1="152.47" y1="12.578" x2="176.39" y2="3.0729" gradientUnits="userSpaceOnUse">
<stop stop-color="#00D09C"/>
<stop offset="1" stop-color="#5367FC"/>
</linearGradient>
<linearGradient id="paint2_linear" x1="-6.68393" y1="204.722" x2="74.6508" y2="320.509" gradientUnits="userSpaceOnUse">
<stop stop-color="#00D09C"/>
<stop offset="1" stop-color="#5367FC"/>
</linearGradient>
<linearGradient id="paint3_linear" x1="71.2065" y1="369.72" x2="138.702" y2="454.406" gradientUnits="userSpaceOnUse">
<stop stop-color="#00D09C"/>
<stop offset="1" stop-color="#5367FC"/>
</linearGradient>
</defs>
</svg>

