<svg width="173" height="45" viewBox="0 0 173 45" fill="none" xmlns="http://www.w3.org/2000/svg">
<path d="M113.076 25.772H126.404V25.2096H114.088L122.355 17.2238C125.617 14.0745 126.123 12.4998 126.123 10.8126V10.7564C126.123 8.05698 123.789 5.80745 120.331 5.80745C117.153 5.80745 114.96 7.57895 113.638 10.0253L114.173 10.3346C115.41 8.05698 117.434 6.36983 120.303 6.36983C123.368 6.36983 125.505 8.42252 125.505 10.8126C125.505 12.2467 125.027 13.8495 121.99 16.7739L113.076 25.4064V25.772ZM137.888 26.1094C143.005 26.1094 145.93 21.3292 145.93 15.9584V15.9022C145.93 10.5033 143.005 5.75121 137.888 5.75121C132.77 5.75121 129.846 10.5315 129.846 15.9022V15.9584C129.846 21.3573 132.77 26.1094 137.888 26.1094ZM137.916 25.547C133.164 25.547 130.464 20.9355 130.464 15.9303V15.8741C130.464 10.8408 133.107 6.3136 137.86 6.3136C142.612 6.3136 145.311 10.9251 145.311 15.9303V15.9865C145.311 21.0199 142.668 25.547 137.916 25.547ZM148.719 25.772H162.047V25.2096H149.731L157.998 17.2238C161.26 14.0745 161.766 12.4998 161.766 10.8126V10.7564C161.766 8.05698 159.432 5.80745 155.974 5.80745C152.796 5.80745 150.603 7.57895 149.281 10.0253L149.816 10.3346C151.053 8.05698 153.077 6.36983 155.946 6.36983C159.011 6.36983 161.148 8.42252 161.148 10.8126C161.148 12.2467 160.67 13.8495 157.633 16.7739L148.719 25.4064V25.772ZM168.413 25.772H169.004V5.94805H168.497L164.476 7.77578L164.73 8.31005L168.413 6.65102V25.772Z" fill="white"/>
<path d="M5.77445 12.0021H0V6.45361H18.1267V12.0021H12.3523V26.0867H5.77445V12.0021Z" fill="white"/>
<path d="M19.6094 6.45361H26.1872V13.3829H32.1876V6.45361H38.7655V26.1118H32.1876V19.057H26.1872V26.1118H19.6094V6.45361Z" fill="white"/>
<path d="M41 6.45361H50.5906C54.0804 6.45361 56.2897 7.33233 57.6706 8.68807C58.8506 9.86807 59.4782 11.3242 59.4782 13.3578V13.4081C59.4782 16.2702 57.997 18.2536 55.6119 19.4085L60.1812 26.0867H52.6995L48.9838 20.4629H47.5778V26.0867H41V6.45361ZM50.4149 15.7932C51.9966 15.7932 52.9506 15.0902 52.9506 13.8851V13.8349C52.9506 12.5795 51.9714 11.9519 50.4651 11.9519H47.603V15.7932H50.4149Z" fill="white"/>
<path d="M61.1348 6.45361H67.7126V26.1118H61.1348V6.45361Z" fill="white"/>
<path d="M91.6172 6.45361H108.363V11.8515H98.0695V13.8349H107.66V18.5799H98.0695V20.714H108.514V26.1118H91.6172V6.45361Z" fill="white"/>
<g clip-path="url(#clip0)">
<path d="M79.9326 14.9156L79.9199 14.9038C79.9539 14.9354 79.9846 14.9701 80.0162 15.0033C79.9878 14.9748 79.9618 14.9441 79.9326 14.9156Z" fill="#5367FC"/>
<path d="M84.9416 7.0083C85.8462 8.0499 86.4321 9.32979 86.6292 10.6952C86.8264 12.0607 86.6265 13.454 86.0534 14.709C85.4804 15.9639 84.5583 17.0275 83.3973 17.7728C82.2364 18.5181 80.8855 18.9136 79.5059 18.9121V26.1118H82.0884L89.2139 14.459C88.4022 11.6712 86.9376 9.11701 84.9416 7.0083Z" fill="#5367FC"/>
<path d="M80.0195 15.0029C80.0558 15.04 80.0914 15.0819 80.1269 15.1158C80.0929 15.0763 80.0582 15.0408 80.0195 15.0029Z" fill="white"/>
<path d="M84.9416 7.00917C84.8537 6.91498 84.765 6.82211 84.6756 6.73055C84.5967 6.64768 84.5177 6.56086 84.4388 6.48193C84.7588 7.04814 84.979 7.66512 85.0899 8.30594C85.1509 8.63054 85.1832 8.95989 85.1862 9.29016C85.186 10.0358 85.0389 10.7741 84.7533 11.4629C84.4677 12.1516 84.0492 12.7774 83.5217 13.3044C82.9942 13.8314 82.368 14.2493 81.679 14.5342C80.9899 14.8191 80.2515 14.9655 79.5059 14.965V18.9114C80.8852 18.9126 82.2357 18.517 83.3964 17.7718C84.5571 17.0266 85.4789 15.9632 86.0519 14.7086C86.6249 13.4539 86.8249 12.0609 86.628 10.6957C86.4311 9.33055 85.8457 8.05081 84.9416 7.00917Z" fill="#5F82FF"/>
<path d="M79.5049 18.9122C77.8475 18.914 76.2407 18.3414 74.9579 17.2918L74.8853 17.2311C74.7275 17.0985 74.5746 16.959 74.4267 16.8128L74.4141 16.8017C74.1466 16.532 73.9006 16.2417 73.6785 15.9335C73.5859 15.8072 73.4983 15.678 73.4157 15.546C73.2355 15.2604 73.0754 14.9627 72.9366 14.6549C72.8963 14.5641 72.8577 14.4734 72.8214 14.3818C72.7193 14.1297 72.6318 13.872 72.5593 13.6099C72.5199 13.4631 72.4804 13.3155 72.452 13.1647C72.4035 12.93 72.3669 12.6929 72.3423 12.4544C72.3176 12.2097 72.3052 11.9639 72.3052 11.718C72.3033 9.86388 73.0208 8.08132 74.3068 6.74561C72.2079 8.84233 70.6738 11.4362 69.8474 14.2855L69.7969 14.4592L76.9216 26.1119H79.5049V18.9122Z" fill="#67F9C8"/>
<path d="M73.8276 9.28723C73.8309 8.9572 73.8634 8.62811 73.9247 8.3038C74.0351 7.6626 74.2554 7.04527 74.5758 6.479C74.5198 6.53189 74.4661 6.58634 74.4116 6.6408C74.3943 6.65896 74.3761 6.67632 74.3587 6.69369L74.3082 6.74499C73.0223 8.0807 72.3047 9.86326 72.3066 11.7174C72.3066 11.9633 72.319 12.2091 72.3437 12.4538C72.3683 12.6923 72.4049 12.9293 72.4534 13.1641C72.4842 13.3149 72.5213 13.4625 72.5608 13.6093C72.6328 13.8733 72.72 14.1328 72.822 14.3867C72.8583 14.4783 72.901 14.569 72.9373 14.6598C73.0759 14.9692 73.2359 15.2686 73.4164 15.5556C73.499 15.6877 73.5866 15.8169 73.6792 15.9432C73.9013 16.2514 74.1472 16.5417 74.4148 16.8114L74.4274 16.8224C74.5742 16.9687 74.7271 17.1081 74.886 17.2407L74.9586 17.3015C76.2415 18.35 77.8479 18.9218 79.5048 18.9195V14.9731C78.7585 14.9731 78.0196 14.826 77.3302 14.5402C76.6408 14.2543 76.0146 13.8353 75.4873 13.3072C74.96 12.7791 74.542 12.1523 74.2572 11.4625C73.9724 10.7727 73.8264 10.0335 73.8276 9.28723Z" fill="#00D09C"/>
</g>
<path d="M65.7844 44.5473C67.7256 44.5473 69.2993 42.9737 69.2993 41.0325C69.2993 39.0912 67.7256 37.5176 65.7844 37.5176C63.8432 37.5176 62.2695 39.0912 62.2695 41.0325C62.2695 42.9737 63.8432 44.5473 65.7844 44.5473Z" fill="#5367FA"/>
<mask id="mask0" mask-type="alpha" maskUnits="userSpaceOnUse" x="62" y="37" width="8" height="8">
<path d="M65.7844 44.5473C67.7256 44.5473 69.2993 42.9737 69.2993 41.0325C69.2993 39.0912 67.7256 37.5176 65.7844 37.5176C63.8432 37.5176 62.2695 39.0912 62.2695 41.0325C62.2695 42.9737 63.8432 44.5473 65.7844 44.5473Z" fill="white"/>
</mask>
<g mask="url(#mask0)">
<path d="M62.0703 42.2125L64.2797 40.8066L66.3886 41.61L69.1503 38.9487L70.0541 45.0496L62.7482 45.7274L62.0703 42.2125Z" fill="#00FDC1"/>
</g>
<mask id="mask1" mask-type="alpha" maskUnits="userSpaceOnUse" x="62" y="37" width="8" height="8">
<path d="M65.7844 44.5473C67.7256 44.5473 69.2993 42.9737 69.2993 41.0325C69.2993 39.0912 67.7256 37.5176 65.7844 37.5176C63.8432 37.5176 62.2695 39.0912 62.2695 41.0325C62.2695 42.9737 63.8432 44.5473 65.7844 44.5473Z" fill="white"/>
</mask>
<g mask="url(#mask1)">
<path d="M62.2461 42.8903L64.4303 41.4843L66.5644 42.2877L69.3261 39.6265L70.2299 45.7273L62.924 46.4052L62.2461 42.8903Z" fill="#01E9B0"/>
</g>
<mask id="mask2" mask-type="alpha" maskUnits="userSpaceOnUse" x="62" y="37" width="8" height="8">
<path d="M65.7844 44.5473C67.7256 44.5473 69.2993 42.9737 69.2993 41.0325C69.2993 39.0912 67.7256 37.5176 65.7844 37.5176C63.8432 37.5176 62.2695 39.0912 62.2695 41.0325C62.2695 42.9737 63.8432 44.5473 65.7844 44.5473Z" fill="white"/>
</mask>
<g mask="url(#mask2)">
<path d="M62.2461 43.7438L64.4303 42.3378L66.5644 43.1412L69.3261 40.48L70.2299 46.5808L62.924 47.2587L62.2461 43.7438Z" fill="#01D7A2"/>
</g>
<mask id="mask3" mask-type="alpha" maskUnits="userSpaceOnUse" x="62" y="37" width="8" height="8">
<path d="M65.7844 44.5473C67.7256 44.5473 69.2993 42.9737 69.2993 41.0325C69.2993 39.0912 67.7256 37.5176 65.7844 37.5176C63.8432 37.5176 62.2695 39.0912 62.2695 41.0325C62.2695 42.9737 63.8432 44.5473 65.7844 44.5473Z" fill="white"/>
</mask>
<g mask="url(#mask3)">
<path d="M62.2461 44.5722L64.4303 43.1663L66.5644 43.9697L69.301 41.3335L70.2299 47.4092L62.924 48.0871L62.2461 44.5722Z" fill="#02C695"/>
</g>
<path d="M71.2832 41.0069C71.2832 40.0277 72.0364 39.1992 73.0909 39.1992C73.6934 39.1992 74.07 39.375 74.4215 39.6762L74.0449 40.1282C73.7687 39.9022 73.5177 39.7516 73.0658 39.7516C72.413 39.7516 71.936 40.3039 71.936 40.9818C71.936 41.7098 72.413 42.2371 73.116 42.2371C73.4423 42.2371 73.7436 42.1367 73.9445 41.9609V41.3081H73.0406V40.7809H74.5219V42.2371C74.1704 42.5384 73.6934 42.7894 73.0658 42.7894C71.9862 42.7894 71.2832 42.0111 71.2832 41.0069Z" fill="#EBEBF5"/>
<path d="M75.2246 40.1029H75.8272V40.7055C76.0029 40.3038 76.3042 40.0527 76.7561 40.0527V40.6804H76.731C76.2038 40.6804 75.8272 41.0319 75.8272 41.7098V42.714H75.2246V40.1029Z" fill="#EBEBF5"/>
<path d="M77.1328 41.4336C77.1328 40.6804 77.7354 40.0527 78.5388 40.0527C79.3422 40.0527 79.9447 40.6553 79.9447 41.4085C79.9447 42.1617 79.3422 42.7893 78.5388 42.7893C77.7103 42.7893 77.1328 42.1868 77.1328 41.4336ZM79.3171 41.4336C79.3171 40.9566 78.9907 40.58 78.5137 40.58C78.0366 40.58 77.7103 40.9566 77.7103 41.4085C77.7103 41.8604 78.0366 42.237 78.5137 42.237C79.0158 42.2621 79.3171 41.8855 79.3171 41.4336Z" fill="#EBEBF5"/>
<path d="M80.3223 40.1035H80.9499L81.4772 41.9112L82.0546 40.1035H82.5818L83.1593 41.9112L83.6865 40.1035H84.2891L83.4354 42.7397H82.8831L82.3057 40.932L81.7031 42.7397H81.1759L80.3223 40.1035Z" fill="#EBEBF5"/>
<path d="M84.5625 40.1035H85.1902L85.7174 41.9112L86.2948 40.1035H86.8221L87.3995 41.9112L87.9267 40.1035H88.5293L87.6757 42.7397H87.1233L86.5459 40.932L85.9433 42.7397H85.4161L84.5625 40.1035Z" fill="#EBEBF5"/>
<path d="M22.4064 42.2295H20.7666L20.3945 43.2417H20.0744L21.4414 39.6296H21.7316L23.0986 43.2417H22.781L22.4064 42.2295ZM20.8609 41.969H22.3097L21.5853 40.0017L20.8609 41.969ZM25.634 42.8324L26.4502 40.5574H26.7554L25.7531 43.2417H25.5125L24.5052 40.5574H24.8104L25.634 42.8324ZM27.5765 43.2417H27.2788V40.5574H27.5765V43.2417ZM27.2267 39.7809C27.2267 39.7247 27.2449 39.6775 27.2813 39.6395C27.3177 39.5998 27.3673 39.58 27.4301 39.58C27.493 39.58 27.5426 39.5998 27.579 39.6395C27.617 39.6775 27.6361 39.7247 27.6361 39.7809C27.6361 39.8371 27.617 39.8843 27.579 39.9223C27.5426 39.9604 27.493 39.9794 27.4301 39.9794C27.3673 39.9794 27.3177 39.9604 27.2813 39.9223C27.2449 39.8843 27.2267 39.8371 27.2267 39.7809ZM29.6257 40.8105C29.5629 40.7989 29.4959 40.7931 29.4248 40.7931C29.2395 40.7931 29.0824 40.8452 28.9534 40.9494C28.826 41.0519 28.7351 41.2016 28.6805 41.3984V43.2417H28.3853V40.5574H28.6755L28.6805 40.9841C28.8376 40.6666 29.0898 40.5078 29.4372 40.5078C29.5199 40.5078 29.5852 40.5186 29.6331 40.5401L29.6257 40.8105ZM30.6825 39.8702V40.5574H31.2383V40.8005H30.6825V42.5892C30.6825 42.7381 30.709 42.8489 30.7619 42.9217C30.8165 42.9944 30.9066 43.0308 31.0323 43.0308C31.082 43.0308 31.1622 43.0226 31.273 43.006L31.2854 43.2491C31.2077 43.2773 31.1018 43.2913 30.9678 43.2913C30.7644 43.2913 30.6164 43.2326 30.5238 43.1152C30.4312 42.9961 30.3848 42.8216 30.3848 42.5917V40.8005H29.8912V40.5574H30.3848V39.8702H30.6825ZM33.5802 42.9018C33.4016 43.1615 33.1163 43.2913 32.7243 43.2913C32.4382 43.2913 32.2207 43.2086 32.0718 43.0432C31.923 42.8762 31.8469 42.6298 31.8436 42.3039V40.5574H32.1388V42.2667C32.1388 42.7778 32.3455 43.0333 32.759 43.0333C33.189 43.0333 33.4611 42.8555 33.5752 42.4999V40.5574H33.8729V43.2417H33.5851L33.5802 42.9018ZM36.3414 43.2417C36.3116 43.1574 36.2926 43.0325 36.2843 42.8671C36.1801 43.0027 36.047 43.1077 35.8849 43.1822C35.7245 43.2549 35.5541 43.2913 35.3738 43.2913C35.1158 43.2913 34.9066 43.2194 34.7462 43.0755C34.5874 42.9316 34.508 42.7497 34.508 42.5297C34.508 42.2684 34.6163 42.0616 34.833 41.9095C35.0513 41.7573 35.3548 41.6812 35.7435 41.6812H36.2818V41.3761C36.2818 41.1842 36.2223 41.0337 36.1032 40.9246C35.9858 40.8138 35.8138 40.7584 35.5872 40.7584C35.3804 40.7584 35.2093 40.8113 35.0737 40.9171C34.938 41.023 34.8702 41.1503 34.8702 41.2992L34.5725 41.2967C34.5725 41.0834 34.6718 40.8989 34.8702 40.7435C35.0687 40.5864 35.3126 40.5078 35.6021 40.5078C35.9014 40.5078 36.1371 40.5831 36.3091 40.7336C36.4828 40.8824 36.5721 41.0908 36.577 41.3587V42.6289C36.577 42.8886 36.6043 43.0829 36.6589 43.2119V43.2417H36.3414ZM35.4086 43.0283C35.607 43.0283 35.784 42.9804 35.9395 42.8845C36.0966 42.7885 36.2107 42.6604 36.2818 42.4999V41.9095H35.7509C35.4549 41.9128 35.2233 41.9674 35.0563 42.0732C34.8892 42.1774 34.8057 42.3213 34.8057 42.5049C34.8057 42.6554 34.8611 42.7803 34.9719 42.8795C35.0844 42.9787 35.2299 43.0283 35.4086 43.0283ZM37.7034 43.2417H37.4057V39.4311H37.7034V43.2417ZM40.7871 43.2913C40.5588 43.2913 40.3521 43.2351 40.1668 43.1226C39.9833 43.0102 39.8402 42.8539 39.7377 42.6537C39.6351 42.452 39.5838 42.2262 39.5838 41.9765V41.8698C39.5838 41.6118 39.6335 41.3794 39.7327 41.1727C39.8336 40.9659 39.9733 40.8038 40.152 40.6864C40.3306 40.5673 40.5241 40.5078 40.7325 40.5078C41.0583 40.5078 41.3163 40.6194 41.5065 40.8427C41.6983 41.0643 41.7943 41.3678 41.7943 41.7532V41.9194H39.8791V41.9765C39.8791 42.2808 39.9659 42.5347 40.1395 42.7381C40.3149 42.9399 40.5348 43.0408 40.7995 43.0408C40.9582 43.0408 41.098 43.0118 41.2187 42.9539C41.3411 42.896 41.4519 42.8034 41.5512 42.6761L41.7372 42.8175C41.5189 43.1334 41.2022 43.2913 40.7871 43.2913ZM40.7325 40.7608C40.5092 40.7608 40.3207 40.8427 40.1668 41.0065C40.0147 41.1702 39.9221 41.3902 39.889 41.6664H41.4991V41.6341C41.4908 41.3761 41.4172 41.1661 41.2783 41.004C41.1393 40.8419 40.9574 40.7608 40.7325 40.7608ZM43.1736 42.8324L43.9898 40.5574H44.295L43.2927 43.2417H43.0521L42.0448 40.5574H42.35L43.1736 42.8324ZM45.7884 43.2913C45.5602 43.2913 45.3535 43.2351 45.1682 43.1226C44.9847 43.0102 44.8416 42.8539 44.739 42.6537C44.6365 42.452 44.5852 42.2262 44.5852 41.9765V41.8698C44.5852 41.6118 44.6349 41.3794 44.7341 41.1727C44.835 40.9659 44.9747 40.8038 45.1533 40.6864C45.332 40.5673 45.5255 40.5078 45.7339 40.5078C46.0597 40.5078 46.3177 40.6194 46.5079 40.8427C46.6997 41.0643 46.7957 41.3678 46.7957 41.7532V41.9194H44.8805V41.9765C44.8805 42.2808 44.9673 42.5347 45.1409 42.7381C45.3163 42.9399 45.5362 43.0408 45.8009 43.0408C45.9596 43.0408 46.0994 43.0118 46.2201 42.9539C46.3425 42.896 46.4533 42.8034 46.5525 42.6761L46.7386 42.8175C46.5203 43.1334 46.2036 43.2913 45.7884 43.2913ZM45.7339 40.7608C45.5106 40.7608 45.322 40.8427 45.1682 41.0065C45.0161 41.1702 44.9235 41.3902 44.8904 41.6664H46.5005V41.6341C46.4922 41.3761 46.4186 41.1661 46.2797 41.004C46.1407 40.8419 45.9588 40.7608 45.7339 40.7608ZM47.6565 40.5574L47.6665 41.0164C47.7673 40.851 47.893 40.7253 48.0435 40.6393C48.194 40.5516 48.3603 40.5078 48.5422 40.5078C48.83 40.5078 49.0442 40.5888 49.1847 40.7509C49.3253 40.913 49.3964 41.1561 49.3981 41.4803V43.2417H49.1029V41.4778C49.1012 41.238 49.0499 41.0594 48.9491 40.942C48.8498 40.8245 48.6902 40.7658 48.4702 40.7658C48.2867 40.7658 48.1238 40.8237 47.9815 40.9395C47.8409 41.0536 47.7367 41.2082 47.6689 41.4034V43.2417H47.3737V40.5574H47.6565ZM50.6286 39.8702V40.5574H51.1843V40.8005H50.6286V42.5892C50.6286 42.7381 50.655 42.8489 50.708 42.9217C50.7626 42.9944 50.8527 43.0308 50.9784 43.0308C51.028 43.0308 51.1082 43.0226 51.219 43.006L51.2314 43.2491C51.1537 43.2773 51.0479 43.2913 50.9139 43.2913C50.7105 43.2913 50.5624 43.2326 50.4698 43.1152C50.3772 42.9961 50.3309 42.8216 50.3309 42.5917V40.8005H49.8372V40.5574H50.3309V39.8702H50.6286ZM55.1958 41.9268C55.1958 42.3453 55.1032 42.6777 54.918 42.9242C54.7327 43.1689 54.4838 43.2913 54.1712 43.2913C53.7975 43.2913 53.5146 43.1524 53.3228 42.8745L53.3104 43.2417H53.0325V39.4311H53.3278V40.9469C53.5163 40.6542 53.7958 40.5078 54.1663 40.5078C54.4838 40.5078 54.7344 40.6294 54.918 40.8725C55.1032 41.114 55.1958 41.4505 55.1958 41.8822V41.9268ZM54.8981 41.8748C54.8981 41.5208 54.8295 41.2479 54.6922 41.0561C54.5549 40.8626 54.3614 40.7658 54.1117 40.7658C53.9215 40.7658 53.7602 40.8129 53.6279 40.9072C53.4956 40.9998 53.3956 41.1363 53.3278 41.3166V42.5272C53.4766 42.8646 53.7396 43.0333 54.1167 43.0333C54.3614 43.0333 54.5525 42.9366 54.6897 42.743C54.8287 42.5495 54.8981 42.2601 54.8981 41.8748ZM56.6744 42.815L57.4584 40.5574H57.7784L56.6322 43.6982L56.5727 43.8371C56.4255 44.1629 56.1981 44.3258 55.8905 44.3258C55.8194 44.3258 55.7433 44.3143 55.6622 44.2911L55.6598 44.0455L55.8136 44.0604C55.9591 44.0604 56.0765 44.024 56.1658 43.9512C56.2568 43.8801 56.3337 43.7569 56.3966 43.5816L56.5281 43.2194L55.5159 40.5574H55.8409L56.6744 42.815Z" fill="#EBEBF5"/>
<path d="M103.727 35.7758L105.582 41.0153L107.428 35.7758H109.383V43H107.89V41.0252L108.038 37.6166L106.088 43H105.066L103.121 37.6215L103.27 41.0252V43H101.782V35.7758H103.727ZM114.851 41.5115H112.241L111.745 43H110.162L112.851 35.7758H114.231L116.935 43H115.352L114.851 41.5115ZM112.643 40.3058H114.449L113.541 37.6017L112.643 40.3058ZM120.284 40.3554H119.098V43H117.61V35.7758H120.294C121.147 35.7758 121.806 35.966 122.269 36.3464C122.732 36.7268 122.963 37.2643 122.963 37.9589C122.963 38.4518 122.856 38.8636 122.641 39.1944C122.429 39.5218 122.107 39.7832 121.673 39.9783L123.236 42.9305V43H121.638L120.284 40.3554ZM119.098 39.1497H120.299C120.673 39.1497 120.962 39.0554 121.167 38.8669C121.372 38.675 121.475 38.4121 121.475 38.078C121.475 37.7373 121.377 37.4694 121.182 37.2742C120.99 37.079 120.694 36.9815 120.294 36.9815H119.098V39.1497ZM129.771 40.5936C129.714 41.3709 129.427 41.9829 128.907 42.4294C128.391 42.876 127.71 43.0992 126.863 43.0992C125.937 43.0992 125.208 42.7883 124.675 42.1664C124.146 41.5413 123.881 40.6845 123.881 39.5963V39.1547C123.881 38.46 124.004 37.8481 124.248 37.3189C124.493 36.7896 124.842 36.3844 125.295 36.1032C125.752 35.8188 126.281 35.6765 126.883 35.6765C127.717 35.6765 128.388 35.8998 128.897 36.3464C129.407 36.7929 129.701 37.4197 129.781 38.2268H128.292C128.256 37.7604 128.125 37.423 127.9 37.2147C127.679 37.003 127.339 36.8971 126.883 36.8971C126.387 36.8971 126.015 37.0757 125.767 37.433C125.522 37.7869 125.396 38.3377 125.39 39.0852V39.631C125.39 40.4116 125.507 40.9822 125.742 41.3428C125.98 41.7033 126.354 41.8836 126.863 41.8836C127.323 41.8836 127.665 41.7794 127.89 41.571C128.118 41.3593 128.249 41.0335 128.282 40.5936H129.771ZM136.628 43H135.139V39.9039H132.237V43H130.748V35.7758H132.237V38.7032H135.139V35.7758H136.628V43ZM145.261 43H140.309V42.0176L142.646 39.5268C142.967 39.1762 143.204 38.8702 143.356 38.6089C143.511 38.3476 143.589 38.0995 143.589 37.8646C143.589 37.5438 143.508 37.2924 143.346 37.1105C143.184 36.9252 142.952 36.8326 142.651 36.8326C142.327 36.8326 142.071 36.9451 141.882 37.17C141.697 37.3916 141.604 37.6844 141.604 38.0482H140.165C140.165 37.6083 140.27 37.2064 140.478 36.8425C140.69 36.4787 140.987 36.1942 141.371 35.9891C141.755 35.7807 142.19 35.6765 142.676 35.6765C143.42 35.6765 143.998 35.8551 144.408 36.2124C144.821 36.5696 145.028 37.0741 145.028 37.7257C145.028 38.083 144.935 38.4468 144.75 38.8173C144.565 39.1878 144.247 39.6194 143.797 40.1123L142.155 41.8439H145.261V43ZM151.007 40.0131C151.007 41.012 150.8 41.7761 150.387 42.3054C149.973 42.8346 149.368 43.0992 148.571 43.0992C147.783 43.0992 147.181 42.8396 146.765 42.3202C146.348 41.8009 146.134 41.0567 146.124 40.0875V38.7577C146.124 37.7489 146.333 36.9831 146.75 36.4605C147.17 35.9378 147.773 35.6765 148.561 35.6765C149.348 35.6765 149.95 35.9362 150.367 36.4555C150.784 36.9715 150.997 37.7141 151.007 38.6833V40.0131ZM149.573 38.5543C149.573 37.9556 149.49 37.5206 149.325 37.2494C149.163 36.9748 148.908 36.8376 148.561 36.8376C148.223 36.8376 147.974 36.9682 147.811 37.2295C147.653 37.4875 147.568 37.8928 147.558 38.4452V40.2016C147.558 40.7904 147.638 41.2287 147.797 41.5165C147.959 41.8009 148.217 41.9432 148.571 41.9432C148.921 41.9432 149.174 41.8059 149.33 41.5313C149.485 41.2568 149.566 40.8367 149.573 40.2711V38.5543Z" fill="#EBEBF5"/>
<path d="M94.834 36.6387V44.7731" stroke="white" stroke-width="0.251063" stroke-miterlimit="10"/>
<defs>
<clipPath id="clip0">
<rect width="19.4145" height="19.6331" fill="white" transform="translate(69.7969 6.479)"/>
</clipPath>
</defs>
</svg>
