<svg width="239" height="28" viewBox="0 0 239 28" fill="none" xmlns="http://www.w3.org/2000/svg">
<path d="M103.61 9.10949H96V1.79736H119.889V9.10949H112.279V27.6711H103.61V9.10949Z" fill="#EBEBF5"/>
<path d="M121.84 1.79736H130.509V10.9293H138.416V1.79736H147.085V27.7041H138.416V18.4068H130.509V27.7041H121.84V1.79736Z" fill="#EBEBF5"/>
<path d="M150.031 1.79736H162.67C167.269 1.79736 170.181 2.95539 172.001 4.74207C173.556 6.29714 174.383 8.21616 174.383 10.8962V10.9623C174.383 14.7342 172.431 17.348 169.288 18.87L175.309 27.6711H165.45L160.553 20.2597H158.7V27.6711H150.031V1.79736ZM162.439 14.1056C164.523 14.1056 165.78 13.1791 165.78 11.591V11.5248C165.78 9.87048 164.49 9.04332 162.505 9.04332H158.733V14.1056H162.439Z" fill="#EBEBF5"/>
<path d="M176.566 1.79736H185.235V27.7041H176.566V1.79736Z" fill="#EBEBF5"/>
<path d="M216.732 1.79736H238.801V8.91098H225.236V11.5248H237.875V17.7782H225.236V20.5905H239V27.7041H216.732V1.79736Z" fill="#EBEBF5"/>
<g clip-path="url(#clip0)">
<path d="M201.341 12.9484L201.324 12.9326C201.37 12.9748 201.411 13.0211 201.453 13.0653C201.415 13.0274 201.38 12.9863 201.341 12.9484Z" fill="#5367FC"/>
<path d="M207.937 2.52783C209.129 3.90052 209.901 5.58723 210.161 7.3867C210.421 9.18616 210.157 11.0224 209.402 12.6762C208.647 14.3301 207.432 15.7317 205.902 16.7139C204.372 17.6961 202.592 18.2173 200.773 18.2154V27.7036H204.177L213.567 12.3468C212.498 8.67285 210.567 5.30681 207.937 2.52783Z" fill="#5367FC"/>
<path d="M201.453 13.064C201.501 13.1129 201.548 13.168 201.595 13.2127C201.55 13.1607 201.504 13.1139 201.453 13.064Z" fill="white"/>
<path d="M207.937 2.52783C207.821 2.4037 207.704 2.28131 207.586 2.16065C207.482 2.05144 207.378 1.93702 207.274 1.83301C207.696 2.57919 207.986 3.39228 208.132 4.23679C208.213 4.66457 208.255 5.09861 208.259 5.53386C208.259 6.51651 208.065 7.48947 207.689 8.39718C207.312 9.30488 206.761 10.1295 206.066 10.824C205.371 11.5185 204.545 12.0693 203.637 12.4448C202.729 12.8203 201.756 13.0132 200.773 13.0125V18.2133C202.591 18.2149 204.371 17.6935 205.901 16.7115C207.43 15.7294 208.645 14.3281 209.4 12.6746C210.155 11.0211 210.419 9.18534 210.159 7.38621C209.9 5.58708 209.128 3.90056 207.937 2.52783Z" fill="#5F82FF"/>
<path d="M200.774 18.2155C198.59 18.2179 196.472 17.4633 194.782 16.0801L194.686 16C194.478 15.8253 194.277 15.6415 194.082 15.4487L194.065 15.4342C193.713 15.0787 193.389 14.6962 193.096 14.29C192.974 14.1236 192.858 13.9533 192.75 13.7793C192.512 13.403 192.301 13.0106 192.118 12.605C192.065 12.4854 192.014 12.3657 191.966 12.2451C191.832 11.9129 191.716 11.5733 191.621 11.2278C191.569 11.0343 191.517 10.8398 191.48 10.6412C191.416 10.3318 191.367 10.0193 191.335 9.70503C191.302 9.38257 191.286 9.05868 191.286 8.73458C191.284 6.29108 192.229 3.94192 193.924 2.18164C191.158 4.94483 189.136 8.36315 188.047 12.1182L187.98 12.347L197.37 27.7038H200.774V18.2155Z" fill="#67F9C8"/>
<path d="M193.291 5.53093C193.296 5.09599 193.339 4.6623 193.419 4.2349C193.565 3.38989 193.855 2.57634 194.278 1.83008C194.204 1.89977 194.133 1.97154 194.061 2.04331C194.038 2.06723 194.014 2.09012 193.992 2.113L193.925 2.18061C192.23 3.94089 191.285 6.29005 191.287 8.73354C191.287 9.05765 191.303 9.38154 191.336 9.704C191.368 10.0183 191.417 10.3307 191.481 10.6401C191.521 10.8388 191.57 11.0333 191.622 11.2268C191.717 11.5747 191.832 11.9168 191.966 12.2513C192.014 12.372 192.07 12.4916 192.118 12.6112C192.301 13.019 192.512 13.4135 192.75 13.7918C192.858 13.9658 192.974 14.1361 193.096 14.3025C193.389 14.7087 193.713 15.0912 194.065 15.4467L194.082 15.4612C194.275 15.654 194.477 15.8378 194.686 16.0125L194.782 16.0926C196.473 17.4744 198.59 18.2279 200.773 18.2249V13.0242C199.79 13.0242 198.816 12.8303 197.907 12.4535C196.999 12.0768 196.174 11.5247 195.479 10.8287C194.784 10.1328 194.233 9.30665 193.858 8.3976C193.482 7.48854 193.29 6.51441 193.291 5.53093Z" fill="#00D09C"/>
</g>
<path d="M2.41406 25.7769H15.0527V27.605H0.234375V2.01123H2.41406V25.7769ZM33.5516 15.3354H21.5809V25.7769H35.3445V27.605H19.4188V2.01123H35.2566V3.85693H21.5809V13.5073H33.5516V15.3354ZM57.8336 3.85693H49.0621V27.605H46.9V3.85693H38.1461V2.01123H57.8336V3.85693ZM61.2855 8.28662L60.0375 7.37256C61.0922 5.95459 61.6371 4.46631 61.6723 2.90771V0.60498H63.7465V2.38037C63.7465 4.82959 62.9262 6.79834 61.2855 8.28662ZM83.2648 21.312C83.2648 19.894 82.7668 18.7749 81.7707 17.9546C80.7746 17.1226 78.9523 16.3374 76.3039 15.5991C73.6555 14.8491 71.7219 14.0347 70.5031 13.1558C68.7688 11.9136 67.9016 10.2847 67.9016 8.26904C67.9016 6.31201 68.7043 4.72412 70.3098 3.50537C71.927 2.2749 73.9895 1.65967 76.4973 1.65967C78.1965 1.65967 79.7141 1.98779 81.05 2.64404C82.3977 3.30029 83.4406 4.21436 84.1789 5.38623C84.9172 6.55811 85.2863 7.86475 85.2863 9.30615H83.1066C83.1066 7.56006 82.509 6.15967 81.3137 5.10498C80.1184 4.03857 78.5129 3.50537 76.4973 3.50537C74.5402 3.50537 72.9816 3.94482 71.8215 4.82373C70.6613 5.69092 70.0813 6.82764 70.0813 8.23389C70.0813 9.53467 70.6027 10.5952 71.6457 11.4155C72.6887 12.2358 74.3586 12.9624 76.6555 13.5952C78.9523 14.2163 80.6926 14.8667 81.8762 15.5464C83.0598 16.2144 83.9504 17.0171 84.548 17.9546C85.1457 18.8921 85.4445 19.9995 85.4445 21.2769C85.4445 23.2925 84.6359 24.9097 83.0188 26.1284C81.4133 27.3472 79.2922 27.9565 76.6555 27.9565C74.8508 27.9565 73.1926 27.6343 71.6809 26.9897C70.1809 26.3452 69.0383 25.4429 68.2531 24.2827C67.4797 23.1226 67.093 21.7925 67.093 20.2925H69.2551C69.2551 22.0972 69.9289 23.521 71.2766 24.564C72.6242 25.6069 74.4172 26.1284 76.6555 26.1284C78.6477 26.1284 80.2473 25.689 81.4543 24.8101C82.6613 23.9312 83.2648 22.7651 83.2648 21.312Z" fill="#EBEBF5"/>
<defs>
<clipPath id="clip0">
<rect width="25.5856" height="25.8737" fill="white" transform="translate(187.98 1.83057)"/>
</clipPath>
</defs>
</svg>
