<svg width="38" height="39" viewBox="0 0 38 39" fill="none" xmlns="http://www.w3.org/2000/svg">
<circle cx="19.1156" cy="19.4999" r="18.3851" stroke="url(#paint0_linear)"/>
<path d="M12.0806 16.2275H15.2871V26.6485H12.0806V16.2275ZM13.6838 11.0742C14.7145 11.0742 15.5161 11.8758 15.5161 12.9065C15.5161 13.9371 14.7145 14.7388 13.6838 14.7388C12.6532 14.8533 11.8516 13.9371 11.8516 12.9065C11.8516 11.8758 12.6532 11.0742 13.6838 11.0742Z" fill="white"/>
<path d="M17.3496 16.2281H20.4416V17.6023C21.0142 16.8006 22.0448 15.999 23.648 15.999C26.969 15.999 27.5416 18.1748 27.5416 20.9233V26.6491H24.3351V21.6104C24.3351 20.3507 24.3351 18.8619 22.6174 18.8619C20.8996 18.8619 20.6706 20.1216 20.6706 21.4958V26.6491H17.3496V16.2281Z" fill="white"/>
<defs>
<linearGradient id="paint0_linear" x1="0.230469" y1="19.7904" x2="38.0007" y2="19.7904" gradientUnits="userSpaceOnUse">
<stop stop-color="#00D09C"/>
<stop offset="1" stop-color="#5367FC"/>
</linearGradient>
</defs>
</svg>
