<svg width="272" height="70" viewBox="0 0 272 70" fill="none" xmlns="http://www.w3.org/2000/svg">
<path d="M178.044 40H199.031V39.1145H179.638L192.655 26.5404C197.791 21.5815 198.588 19.1021 198.588 16.4456V16.3571C198.588 12.1067 194.913 8.56466 189.467 8.56466C184.464 8.56466 181.011 11.354 178.93 15.2059L179.771 15.693C181.719 12.1067 184.907 9.45016 189.423 9.45016C194.249 9.45016 197.614 12.6822 197.614 16.4456C197.614 18.7037 196.861 21.2273 192.08 25.832L178.044 39.4244V40ZM217.112 40.5313C225.17 40.5313 229.775 33.0045 229.775 24.548V24.4594C229.775 15.9586 225.17 8.47611 217.112 8.47611C209.054 8.47611 204.449 16.0029 204.449 24.4594V24.548C204.449 33.0488 209.054 40.5313 217.112 40.5313ZM217.156 39.6458C209.674 39.6458 205.423 32.3847 205.423 24.5037V24.4152C205.423 16.4899 209.585 9.36161 217.068 9.36161C224.55 9.36161 228.801 16.6227 228.801 24.5037V24.5923C228.801 32.5175 224.639 39.6458 217.156 39.6458ZM234.167 40H255.153V39.1145H235.761L248.777 26.5404C253.913 21.5815 254.71 19.1021 254.71 16.4456V16.3571C254.71 12.1067 251.035 8.56466 245.59 8.56466C240.587 8.56466 237.133 11.354 235.052 15.2059L235.893 15.693C237.841 12.1067 241.029 9.45016 245.545 9.45016C250.371 9.45016 253.736 12.6822 253.736 16.4456C253.736 18.7037 252.984 21.2273 248.202 25.832L234.167 39.4244V40ZM265.176 40H266.106V8.78603H265.309L258.978 11.6639L259.376 12.5051L265.176 9.89291V40Z" fill="white"/>
<path d="M9.09221 17.6838H0V8.94739H28.5416V17.6838H19.4494V39.8609H9.09221V17.6838Z" fill="white"/>
<path d="M30.875 8.94736H41.2322V19.858H50.6802V8.94736H61.0374V39.9004H50.6802V28.7921H41.2322V39.9004H30.875V8.94736Z" fill="white"/>
<path d="M64.5586 8.94736H79.6596C85.1544 8.94736 88.6332 10.331 90.8074 12.4656C92.6654 14.3236 93.6537 16.6164 93.6537 19.8185V19.8975C93.6537 24.4041 91.3213 27.5271 87.5658 29.3455L94.7606 39.8609H82.9802L77.1296 31.0059H74.9158V39.8609H64.5586V8.94736ZM79.3829 23.653C81.8733 23.653 83.3755 22.5461 83.3755 20.6486V20.5696C83.3755 18.593 81.8338 17.6047 79.4619 17.6047H74.9553V23.653H79.3829Z" fill="white"/>
<path d="M96.2617 8.94736H106.619V39.9004H96.2617V8.94736Z" fill="white"/>
<path d="M144.254 8.94736H170.621V17.4466H154.413V20.5696H169.514V28.041H154.413V31.4012H170.859V39.9004H144.254V8.94736Z" fill="white"/>
<g clip-path="url(#clip0)">
<path d="M125.864 22.2707L125.844 22.2521C125.897 22.3018 125.946 22.3565 125.995 22.4087C125.951 22.3639 125.91 22.3155 125.864 22.2707Z" fill="#5367FC"/>
<path d="M133.746 9.82077C135.171 11.4608 136.093 13.4761 136.404 15.6261C136.714 17.7761 136.399 19.9699 135.497 21.946C134.595 23.922 133.143 25.5966 131.315 26.7701C129.487 27.9436 127.36 28.5663 125.188 28.564V39.9004H129.254L140.473 21.5524C139.195 17.1628 136.889 13.1411 133.746 9.82077Z" fill="#5367FC"/>
<path d="M125.996 22.4086C126.053 22.467 126.109 22.5329 126.165 22.5863C126.112 22.5242 126.057 22.4683 125.996 22.4086Z" fill="white"/>
<path d="M133.746 9.82079C133.608 9.67249 133.468 9.52626 133.328 9.3821C133.203 9.25161 133.079 9.11491 132.955 8.99063C133.458 9.88216 133.805 10.8536 133.98 11.8626C134.076 12.3737 134.127 12.8923 134.132 13.4124C134.131 14.5864 133.9 15.7489 133.45 16.8334C133 17.9179 132.341 18.9032 131.511 19.733C130.68 20.5628 129.694 21.2208 128.609 21.6694C127.524 22.1181 126.362 22.3486 125.188 22.3478V28.5615C127.359 28.5634 129.486 27.9406 131.313 26.7672C133.141 25.5938 134.592 23.9195 135.495 21.944C136.397 19.9685 136.712 17.7751 136.402 15.6255C136.092 13.476 135.17 11.4609 133.746 9.82079Z" fill="#5F82FF"/>
<path d="M125.186 28.564C122.577 28.5668 120.047 27.6652 118.027 26.0126L117.912 25.917C117.664 25.7082 117.423 25.4886 117.19 25.2583L117.171 25.2409C116.749 24.8162 116.362 24.3592 116.012 23.8739C115.866 23.675 115.728 23.4716 115.598 23.2637C115.315 22.8141 115.063 22.3453 114.844 21.8606C114.781 21.7177 114.72 21.5748 114.663 21.4306C114.502 21.0337 114.364 20.6279 114.25 20.2152C114.188 19.984 114.126 19.7516 114.081 19.5143C114.005 19.1446 113.947 18.7713 113.908 18.3958C113.869 18.0105 113.85 17.6235 113.85 17.2363C113.847 14.3169 114.977 11.5101 117.001 9.40695C113.697 12.7084 111.281 16.7925 109.98 21.279L109.9 21.5524L121.119 39.9004H125.186V28.564Z" fill="#67F9C8"/>
<path d="M116.246 13.4086C116.252 12.889 116.303 12.3708 116.399 11.8602C116.573 10.8506 116.92 9.87854 117.424 8.98691C117.336 9.07017 117.252 9.15592 117.166 9.24167C117.139 9.27026 117.11 9.2976 117.083 9.32494L117.003 9.40572C114.978 11.5089 113.849 14.3156 113.852 17.2351C113.852 17.6223 113.871 18.0093 113.91 18.3946C113.949 18.7701 114.006 19.1434 114.083 19.513C114.131 19.7504 114.19 19.9828 114.252 20.214C114.365 20.6296 114.502 21.0383 114.663 21.4381C114.72 21.5822 114.787 21.7251 114.845 21.8681C115.063 22.3553 115.315 22.8266 115.599 23.2786C115.729 23.4865 115.867 23.6899 116.013 23.8888C116.362 24.3741 116.75 24.8312 117.171 25.2558L117.191 25.2732C117.422 25.5035 117.663 25.7231 117.913 25.9319L118.027 26.0276C120.047 27.6785 122.577 28.5788 125.185 28.5752V22.3614C124.01 22.3614 122.847 22.1298 121.761 21.6797C120.676 21.2296 119.69 20.5699 118.86 19.7384C118.029 18.9069 117.371 17.9198 116.923 16.8337C116.474 15.7476 116.245 14.5837 116.246 13.4086Z" fill="#00D09C"/>
</g>
<path d="M102.091 68.9281C105.148 68.9281 107.625 66.4503 107.625 63.3938C107.625 60.3372 105.148 57.8594 102.091 57.8594C99.0345 57.8594 96.5566 60.3372 96.5566 63.3938C96.5566 66.4503 99.0345 68.9281 102.091 68.9281Z" fill="#5367FA"/>
<mask id="mask0" mask-type="alpha" maskUnits="userSpaceOnUse" x="96" y="57" width="12" height="12">
<path d="M102.091 68.9281C105.148 68.9281 107.625 66.4503 107.625 63.3938C107.625 60.3372 105.148 57.8594 102.091 57.8594C99.0345 57.8594 96.5566 60.3372 96.5566 63.3938C96.5566 66.4503 99.0345 68.9281 102.091 68.9281Z" fill="white"/>
</mask>
<g mask="url(#mask0)">
<path d="M96.2402 65.2517L99.719 63.038L103.04 64.303L107.388 60.1126L108.811 69.7188L97.3076 70.7861L96.2402 65.2517Z" fill="#00FDC1"/>
</g>
<mask id="mask1" mask-type="alpha" maskUnits="userSpaceOnUse" x="96" y="57" width="12" height="12">
<path d="M102.091 68.9281C105.148 68.9281 107.625 66.4503 107.625 63.3938C107.625 60.3372 105.148 57.8594 102.091 57.8594C99.0345 57.8594 96.5566 60.3372 96.5566 63.3938C96.5566 66.4503 99.0345 68.9281 102.091 68.9281Z" fill="white"/>
</mask>
<g mask="url(#mask1)">
<path d="M96.5176 66.3191L99.9568 64.1053L103.317 65.3703L107.665 61.18L109.089 70.7861L97.5849 71.8534L96.5176 66.3191Z" fill="#01E9B0"/>
</g>
<mask id="mask2" mask-type="alpha" maskUnits="userSpaceOnUse" x="96" y="57" width="12" height="12">
<path d="M102.091 68.9281C105.148 68.9281 107.625 66.4503 107.625 63.3938C107.625 60.3372 105.148 57.8594 102.091 57.8594C99.0345 57.8594 96.5566 60.3372 96.5566 63.3938C96.5566 66.4503 99.0345 68.9281 102.091 68.9281Z" fill="white"/>
</mask>
<g mask="url(#mask2)">
<path d="M96.5176 67.6631L99.9568 65.4494L103.317 66.7144L107.665 62.5241L109.089 72.1302L97.5849 73.1975L96.5176 67.6631Z" fill="#01D7A2"/>
</g>
<mask id="mask3" mask-type="alpha" maskUnits="userSpaceOnUse" x="96" y="57" width="12" height="12">
<path d="M102.091 68.9281C105.148 68.9281 107.625 66.4503 107.625 63.3938C107.625 60.3372 105.148 57.8594 102.091 57.8594C99.0345 57.8594 96.5566 60.3372 96.5566 63.3938C96.5566 66.4503 99.0345 68.9281 102.091 68.9281Z" fill="white"/>
</mask>
<g mask="url(#mask3)">
<path d="M96.5176 68.9677L99.9568 66.7539L103.317 68.0189L107.626 63.8681L109.089 73.4347L97.5849 74.5021L96.5176 68.9677Z" fill="#02C695"/>
</g>
<path d="M110.746 63.3542C110.746 61.8125 111.932 60.508 113.592 60.508C114.541 60.508 115.134 60.7847 115.688 61.2591L115.095 61.9706C114.66 61.6148 114.264 61.3777 113.553 61.3777C112.525 61.3777 111.774 62.2473 111.774 63.3147C111.774 64.4611 112.525 65.2913 113.632 65.2913C114.146 65.2913 114.62 65.1331 114.936 64.8564V63.8286H113.513V62.9984H115.846V65.2913C115.292 65.7656 114.541 66.161 113.553 66.161C111.853 66.161 110.746 64.9355 110.746 63.3542Z" fill="#EBEBF5"/>
<path d="M116.953 61.9311H117.902V62.8799C118.179 62.2474 118.653 61.8521 119.365 61.8521V62.8403H119.325C118.495 62.8403 117.902 63.3938 117.902 64.4611V66.0424H116.953V61.9311Z" fill="#EBEBF5"/>
<path d="M119.957 64.0263C119.957 62.8403 120.906 61.8521 122.171 61.8521C123.436 61.8521 124.385 62.8008 124.385 63.9867C124.385 65.1727 123.436 66.161 122.171 66.161C120.866 66.161 119.957 65.2122 119.957 64.0263ZM123.396 64.0263C123.396 63.2752 122.882 62.6822 122.131 62.6822C121.38 62.6822 120.866 63.2752 120.866 63.9867C120.866 64.6983 121.38 65.2913 122.131 65.2913C122.922 65.3308 123.396 64.7378 123.396 64.0263Z" fill="#EBEBF5"/>
<path d="M124.979 61.9311H125.967L126.797 64.7774L127.706 61.9311H128.536L129.446 64.7774L130.276 61.9311H131.224L129.88 66.0819H129.011L128.101 63.2356L127.153 66.0819H126.323L124.979 61.9311Z" fill="#EBEBF5"/>
<path d="M131.658 61.9311H132.646L133.477 64.7774L134.386 61.9311H135.216L136.125 64.7774L136.955 61.9311H137.904L136.56 66.0819H135.69L134.781 63.2356L133.832 66.0819H133.002L131.658 61.9311Z" fill="#EBEBF5"/>
<path d="M33.7891 64.4062H31.207L30.6211 66H30.1172L32.2695 60.3125H32.7266L34.8789 66H34.3789L33.7891 64.4062ZM31.3555 63.9961H33.6367L32.4961 60.8984L31.3555 63.9961ZM38.8711 65.3555L40.1562 61.7734H40.6367L39.0586 66H38.6797L37.0938 61.7734H37.5742L38.8711 65.3555ZM41.9297 66H41.4609V61.7734H41.9297V66ZM41.3789 60.5508C41.3789 60.4622 41.4076 60.388 41.4648 60.3281C41.5221 60.2656 41.6003 60.2344 41.6992 60.2344C41.7982 60.2344 41.8763 60.2656 41.9336 60.3281C41.9935 60.388 42.0234 60.4622 42.0234 60.5508C42.0234 60.6393 41.9935 60.7135 41.9336 60.7734C41.8763 60.8333 41.7982 60.8633 41.6992 60.8633C41.6003 60.8633 41.5221 60.8333 41.4648 60.7734C41.4076 60.7135 41.3789 60.6393 41.3789 60.5508ZM45.1562 62.1719C45.0573 62.1536 44.9518 62.1445 44.8398 62.1445C44.5482 62.1445 44.3008 62.2266 44.0977 62.3906C43.8971 62.5521 43.7539 62.7878 43.668 63.0977V66H43.2031V61.7734H43.6602L43.668 62.4453C43.9154 61.9453 44.3125 61.6953 44.8594 61.6953C44.9896 61.6953 45.0924 61.7122 45.168 61.7461L45.1562 62.1719ZM46.8203 60.6914V61.7734H47.6953V62.1562H46.8203V64.9727C46.8203 65.207 46.862 65.3815 46.9453 65.4961C47.0312 65.6107 47.1732 65.668 47.3711 65.668C47.4492 65.668 47.5755 65.6549 47.75 65.6289L47.7695 66.0117C47.6471 66.056 47.4805 66.0781 47.2695 66.0781C46.9492 66.0781 46.7161 65.9857 46.5703 65.8008C46.4245 65.6133 46.3516 65.3385 46.3516 64.9766V62.1562H45.5742V61.7734H46.3516V60.6914H46.8203ZM51.3828 65.4648C51.1016 65.8737 50.6523 66.0781 50.0352 66.0781C49.5846 66.0781 49.2422 65.9479 49.0078 65.6875C48.7734 65.4245 48.6536 65.0365 48.6484 64.5234V61.7734H49.1133V64.4648C49.1133 65.2695 49.4388 65.6719 50.0898 65.6719C50.7669 65.6719 51.1953 65.3919 51.375 64.832V61.7734H51.8438V66H51.3906L51.3828 65.4648ZM55.7305 66C55.6836 65.8672 55.6536 65.6706 55.6406 65.4102C55.4766 65.6237 55.2669 65.7891 55.0117 65.9062C54.7591 66.0208 54.4909 66.0781 54.207 66.0781C53.8008 66.0781 53.4714 65.9648 53.2188 65.7383C52.9688 65.5117 52.8438 65.2253 52.8438 64.8789C52.8438 64.4674 53.0143 64.1419 53.3555 63.9023C53.6992 63.6628 54.1771 63.543 54.7891 63.543H55.6367V63.0625C55.6367 62.7604 55.543 62.5234 55.3555 62.3516C55.1706 62.1771 54.8997 62.0898 54.543 62.0898C54.2174 62.0898 53.9479 62.1732 53.7344 62.3398C53.5208 62.5065 53.4141 62.707 53.4141 62.9414L52.9453 62.9375C52.9453 62.6016 53.1016 62.3112 53.4141 62.0664C53.7266 61.819 54.1107 61.6953 54.5664 61.6953C55.0378 61.6953 55.4089 61.8138 55.6797 62.0508C55.9531 62.2852 56.0938 62.6133 56.1016 63.0352V65.0352C56.1016 65.444 56.1445 65.75 56.2305 65.9531V66H55.7305ZM54.2617 65.6641C54.5742 65.6641 54.8529 65.5885 55.0977 65.4375C55.3451 65.2865 55.5247 65.0846 55.6367 64.832V63.9023H54.8008C54.3346 63.9076 53.9701 63.9935 53.707 64.1602C53.444 64.3242 53.3125 64.5508 53.3125 64.8398C53.3125 65.0768 53.3997 65.2734 53.5742 65.4297C53.7513 65.5859 53.9805 65.6641 54.2617 65.6641ZM57.875 66H57.4062V60H57.875V66ZM62.7305 66.0781C62.3711 66.0781 62.0456 65.9896 61.7539 65.8125C61.4648 65.6354 61.2396 65.3893 61.0781 65.0742C60.9167 64.7565 60.8359 64.401 60.8359 64.0078V63.8398C60.8359 63.4336 60.9141 63.0677 61.0703 62.7422C61.2292 62.4167 61.4492 62.1615 61.7305 61.9766C62.0117 61.7891 62.3164 61.6953 62.6445 61.6953C63.1576 61.6953 63.5638 61.8711 63.8633 62.2227C64.1654 62.5716 64.3164 63.0495 64.3164 63.6562V63.918H61.3008V64.0078C61.3008 64.487 61.4375 64.8867 61.7109 65.207C61.987 65.5247 62.3333 65.6836 62.75 65.6836C63 65.6836 63.2201 65.638 63.4102 65.5469C63.6029 65.4557 63.7773 65.3099 63.9336 65.1094L64.2266 65.332C63.8828 65.8294 63.3841 66.0781 62.7305 66.0781ZM62.6445 62.0938C62.293 62.0938 61.9961 62.2227 61.7539 62.4805C61.5143 62.7383 61.3685 63.0846 61.3164 63.5195H63.8516V63.4688C63.8385 63.0625 63.7227 62.7318 63.5039 62.4766C63.2852 62.2214 62.9987 62.0938 62.6445 62.0938ZM66.4883 65.3555L67.7734 61.7734H68.2539L66.6758 66H66.2969L64.7109 61.7734H65.1914L66.4883 65.3555ZM70.6055 66.0781C70.2461 66.0781 69.9206 65.9896 69.6289 65.8125C69.3398 65.6354 69.1146 65.3893 68.9531 65.0742C68.7917 64.7565 68.7109 64.401 68.7109 64.0078V63.8398C68.7109 63.4336 68.7891 63.0677 68.9453 62.7422C69.1042 62.4167 69.3242 62.1615 69.6055 61.9766C69.8867 61.7891 70.1914 61.6953 70.5195 61.6953C71.0326 61.6953 71.4388 61.8711 71.7383 62.2227C72.0404 62.5716 72.1914 63.0495 72.1914 63.6562V63.918H69.1758V64.0078C69.1758 64.487 69.3125 64.8867 69.5859 65.207C69.862 65.5247 70.2083 65.6836 70.625 65.6836C70.875 65.6836 71.0951 65.638 71.2852 65.5469C71.4779 65.4557 71.6523 65.3099 71.8086 65.1094L72.1016 65.332C71.7578 65.8294 71.2591 66.0781 70.6055 66.0781ZM70.5195 62.0938C70.168 62.0938 69.8711 62.2227 69.6289 62.4805C69.3893 62.7383 69.2435 63.0846 69.1914 63.5195H71.7266V63.4688C71.7135 63.0625 71.5977 62.7318 71.3789 62.4766C71.1602 62.2214 70.8737 62.0938 70.5195 62.0938ZM73.5469 61.7734L73.5625 62.4961C73.7214 62.2357 73.9193 62.0378 74.1562 61.9023C74.3932 61.7643 74.6549 61.6953 74.9414 61.6953C75.3945 61.6953 75.7318 61.8229 75.9531 62.0781C76.1745 62.3333 76.2865 62.7161 76.2891 63.2266V66H75.8242V63.2227C75.8216 62.8451 75.7409 62.5638 75.582 62.3789C75.4258 62.194 75.1745 62.1016 74.8281 62.1016C74.5391 62.1016 74.2826 62.1927 74.0586 62.375C73.8372 62.5547 73.6732 62.7982 73.5664 63.1055V66H73.1016V61.7734H73.5469ZM78.2266 60.6914V61.7734H79.1016V62.1562H78.2266V64.9727C78.2266 65.207 78.2682 65.3815 78.3516 65.4961C78.4375 65.6107 78.5794 65.668 78.7773 65.668C78.8555 65.668 78.9818 65.6549 79.1562 65.6289L79.1758 66.0117C79.0534 66.056 78.8867 66.0781 78.6758 66.0781C78.3555 66.0781 78.1224 65.9857 77.9766 65.8008C77.8307 65.6133 77.7578 65.3385 77.7578 64.9766V62.1562H76.9805V61.7734H77.7578V60.6914H78.2266ZM85.418 63.9297C85.418 64.5885 85.2721 65.112 84.9805 65.5C84.6888 65.8854 84.2969 66.0781 83.8047 66.0781C83.2161 66.0781 82.7708 65.8594 82.4688 65.4219L82.4492 66H82.0117V60H82.4766V62.3867C82.7734 61.9258 83.2135 61.6953 83.7969 61.6953C84.2969 61.6953 84.6914 61.8867 84.9805 62.2695C85.2721 62.6497 85.418 63.1797 85.418 63.8594V63.9297ZM84.9492 63.8477C84.9492 63.2904 84.8411 62.8607 84.625 62.5586C84.4089 62.2539 84.1042 62.1016 83.7109 62.1016C83.4115 62.1016 83.1576 62.1758 82.9492 62.3242C82.7409 62.4701 82.5833 62.6849 82.4766 62.9688V64.875C82.7109 65.4062 83.125 65.6719 83.7188 65.6719C84.1042 65.6719 84.4049 65.5195 84.6211 65.2148C84.8398 64.9102 84.9492 64.4544 84.9492 63.8477ZM87.7461 65.3281L88.9805 61.7734H89.4844L87.6797 66.7188L87.5859 66.9375C87.3542 67.4505 86.9961 67.707 86.5117 67.707C86.3997 67.707 86.2799 67.6888 86.1523 67.6523L86.1484 67.2656L86.3906 67.2891C86.6198 67.2891 86.8047 67.2318 86.9453 67.1172C87.0885 67.0052 87.2096 66.8112 87.3086 66.5352L87.5156 65.9648L85.9219 61.7734H86.4336L87.7461 65.3281Z" fill="#EBEBF5"/>
<path d="M161.078 56.625L164 64.875L166.906 56.625H169.984V68H167.633V64.8906L167.867 59.5234L164.797 68H163.188L160.125 59.5312L160.359 64.8906V68H158.016V56.625H161.078ZM178.594 65.6562H174.484L173.703 68H171.211L175.445 56.625H177.617L181.875 68H179.383L178.594 65.6562ZM175.117 63.7578H177.961L176.531 59.5L175.117 63.7578ZM187.148 63.8359H185.281V68H182.938V56.625H187.164C188.508 56.625 189.544 56.9245 190.273 57.5234C191.003 58.1224 191.367 58.9688 191.367 60.0625C191.367 60.8385 191.198 61.487 190.859 62.0078C190.526 62.5234 190.018 62.9349 189.336 63.2422L191.797 67.8906V68H189.281L187.148 63.8359ZM185.281 61.9375H187.172C187.76 61.9375 188.216 61.7891 188.539 61.4922C188.862 61.1901 189.023 60.776 189.023 60.25C189.023 59.7135 188.87 59.2917 188.562 58.9844C188.26 58.6771 187.794 58.5234 187.164 58.5234H185.281V61.9375ZM202.086 64.2109C201.997 65.4349 201.544 66.3984 200.727 67.1016C199.914 67.8047 198.841 68.1562 197.508 68.1562C196.049 68.1562 194.901 67.6667 194.062 66.6875C193.229 65.7031 192.812 64.3542 192.812 62.6406V61.9453C192.812 60.8516 193.005 59.888 193.391 59.0547C193.776 58.2214 194.326 57.5833 195.039 57.1406C195.758 56.6927 196.591 56.4688 197.539 56.4688C198.852 56.4688 199.909 56.8203 200.711 57.5234C201.513 58.2266 201.977 59.2135 202.102 60.4844H199.758C199.701 59.75 199.495 59.2188 199.141 58.8906C198.792 58.5573 198.258 58.3906 197.539 58.3906C196.758 58.3906 196.172 58.6719 195.781 59.2344C195.396 59.7917 195.198 60.6589 195.188 61.8359V62.6953C195.188 63.9245 195.372 64.8229 195.742 65.3906C196.117 65.9583 196.706 66.2422 197.508 66.2422C198.232 66.2422 198.771 66.0781 199.125 65.75C199.484 65.4167 199.69 64.9036 199.742 64.2109H202.086ZM212.883 68H210.539V63.125H205.969V68H203.625V56.625H205.969V61.2344H210.539V56.625H212.883V68ZM226.477 68H218.68V66.4531L222.359 62.5312C222.865 61.9792 223.237 61.4974 223.477 61.0859C223.721 60.6745 223.844 60.2839 223.844 59.9141C223.844 59.4089 223.716 59.013 223.461 58.7266C223.206 58.4349 222.841 58.2891 222.367 58.2891C221.857 58.2891 221.453 58.4661 221.156 58.8203C220.865 59.1693 220.719 59.6302 220.719 60.2031H218.453C218.453 59.5104 218.617 58.8776 218.945 58.3047C219.279 57.7318 219.747 57.2839 220.352 56.9609C220.956 56.6328 221.641 56.4688 222.406 56.4688C223.578 56.4688 224.487 56.75 225.133 57.3125C225.784 57.875 226.109 58.6693 226.109 59.6953C226.109 60.2578 225.964 60.8307 225.672 61.4141C225.38 61.9974 224.88 62.6771 224.172 63.4531L221.586 66.1797H226.477V68ZM235.523 63.2969C235.523 64.8698 235.198 66.0729 234.547 66.9062C233.896 67.7396 232.943 68.1562 231.688 68.1562C230.448 68.1562 229.5 67.7474 228.844 66.9297C228.188 66.112 227.852 64.9401 227.836 63.4141V61.3203C227.836 59.7318 228.164 58.526 228.82 57.7031C229.482 56.8802 230.432 56.4688 231.672 56.4688C232.911 56.4688 233.859 56.8776 234.516 57.6953C235.172 58.5078 235.508 59.6771 235.523 61.2031V63.2969ZM233.266 61C233.266 60.0573 233.135 59.3724 232.875 58.9453C232.62 58.513 232.219 58.2969 231.672 58.2969C231.141 58.2969 230.747 58.5026 230.492 58.9141C230.242 59.3203 230.109 59.9583 230.094 60.8281V63.5938C230.094 64.5208 230.219 65.2109 230.469 65.6641C230.724 66.112 231.13 66.3359 231.688 66.3359C232.24 66.3359 232.638 66.1198 232.883 65.6875C233.128 65.2552 233.255 64.5938 233.266 63.7031V61Z" fill="#EBEBF5"/>
<path d="M147.828 56.4758V69.2839" stroke="white" stroke-width="0.395314" stroke-miterlimit="10"/>
<defs>
<clipPath id="clip0">
<rect width="30.5693" height="30.9135" fill="white" transform="translate(109.9 8.98688)"/>
</clipPath>
</defs>
</svg>
