<svg width="145" height="184" viewBox="0 0 145 184" fill="none" xmlns="http://www.w3.org/2000/svg">
<g clip-path="url(#clip0)">
<path d="M75.1952 62.7374L75.1016 62.6494C75.3533 62.8841 75.5816 63.1424 75.8158 63.3889C75.605 63.1776 75.4118 62.9487 75.1952 62.7374Z" fill="#5367FC"/>
<path d="M112.325 3.93823C119.035 11.684 123.38 21.2018 124.843 31.3558C126.305 41.5099 124.822 51.8713 120.572 61.2037C116.321 70.536 109.483 78.4452 100.871 83.9874C92.2603 89.5296 82.2405 92.4707 72.0078 92.4597V146H91.1625L144.014 59.3449C137.993 38.6133 127.13 19.6194 112.325 3.93823Z" fill="#5367FC"/>
<path d="M75.8164 63.3889C76.0857 63.6648 76.3491 63.9759 76.6126 64.2282C76.3608 63.9348 76.1033 63.6707 75.8164 63.3889Z" fill="white"/>
<path d="M112.325 3.9383C111.673 3.23789 111.016 2.54727 110.352 1.86642C109.767 1.25014 109.182 0.604513 108.596 0.0175781C110.969 4.22811 112.603 8.81625 113.426 13.5816C113.878 15.9955 114.117 18.4447 114.14 20.9007C114.138 26.4456 113.047 31.9359 110.929 37.0578C108.811 42.1798 105.706 46.8332 101.794 50.7521C97.8813 54.671 93.237 57.7787 88.1262 59.8976C83.0154 62.0165 77.5383 63.1052 72.0078 63.1013V92.448C82.2383 92.457 92.2555 89.5152 100.864 83.9736C109.473 78.4321 116.311 70.5246 120.561 61.1944C124.811 51.8642 126.294 41.5053 124.834 31.3532C123.374 21.2011 119.031 11.6844 112.325 3.9383Z" fill="#5F82FF"/>
<path d="M72.0059 92.4599C59.7126 92.4732 47.7945 88.215 38.2802 80.4101L37.7416 79.9582C36.5708 78.9721 35.437 77.9352 34.3404 76.8474L34.2467 76.7652C32.2622 74.7597 30.4379 72.6009 28.7906 70.309C28.1037 69.3699 27.4539 68.4092 26.8412 67.4271C25.5045 65.3038 24.3171 63.0896 23.2877 60.8006C22.9892 60.1256 22.7023 59.4507 22.433 58.7698C21.6757 56.8954 21.0268 54.9789 20.4895 53.0296C20.1968 51.9379 19.9041 50.8403 19.6933 49.7193C19.3335 47.9734 19.0619 46.2103 18.8796 44.4369C18.6962 42.6173 18.6044 40.7896 18.6044 38.9608C18.5902 25.1726 23.9124 11.9168 33.4505 1.98389C17.8827 17.576 6.5041 36.8649 0.374665 58.0538L0 59.345L52.8453 146H72.0059V92.4599Z" fill="#67F9C8"/>
<path d="M29.8923 20.8831C29.917 18.4289 30.158 15.9816 30.6123 13.5699C31.4315 8.80171 33.0654 4.21103 35.442 0C35.0263 0.393246 34.6283 0.798231 34.2243 1.20322C34.0955 1.33821 33.9609 1.46734 33.8321 1.59646L33.4574 1.97797C23.9193 11.9109 18.5971 25.1667 18.6114 38.9549C18.6113 40.7837 18.7032 42.6114 18.8865 44.431C19.0688 46.2044 19.3404 47.9674 19.7002 49.7134C19.9285 50.8344 20.2037 51.932 20.4964 53.0237C21.0303 54.9867 21.6773 56.9171 22.4341 58.805C22.7034 59.4858 23.0195 60.1608 23.2888 60.8358C24.3167 63.1368 25.5041 65.3628 26.8423 67.4975C27.455 68.4796 28.1048 69.4402 28.7917 70.3793C30.439 72.6713 32.2633 74.83 34.2477 76.8356L34.3414 76.9178C35.4303 78.0056 36.564 79.0425 37.7427 80.0285L38.2812 80.4805C47.7964 88.2778 59.7119 92.5296 72.001 92.5126V63.1659C66.4658 63.1659 60.9849 62.0718 55.8718 59.9461C50.7588 57.8204 46.1139 54.7048 42.2029 50.7777C38.2919 46.8505 35.1915 42.1888 33.0791 37.0592C30.9667 31.9296 29.8838 26.4327 29.8923 20.8831Z" fill="#00D09C"/>
</g>
<g opacity="0.09" filter="url(#filter0_f)">
<ellipse cx="76.5" cy="175" rx="64.5" ry="5" fill="url(#paint0_linear)"/>
</g>
<defs>
<filter id="filter0_f" x="8" y="166" width="137" height="18" filterUnits="userSpaceOnUse" color-interpolation-filters="sRGB">
<feFlood flood-opacity="0" result="BackgroundImageFix"/>
<feBlend mode="normal" in="SourceGraphic" in2="BackgroundImageFix" result="shape"/>
<feGaussianBlur stdDeviation="2" result="effect1_foregroundBlur"/>
</filter>
<linearGradient id="paint0_linear" x1="15.976" y1="170" x2="134.594" y2="170" gradientUnits="userSpaceOnUse">
<stop stop-color="#00D09C"/>
<stop offset="1" stop-color="#5367FC"/>
</linearGradient>
<clipPath id="clip0">
<rect width="144" height="146" fill="white"/>
</clipPath>
</defs>
</svg>
