<svg width="39" height="39" viewBox="0 0 39 39" fill="none" xmlns="http://www.w3.org/2000/svg">
<circle cx="19.3851" cy="19.4999" r="18.3851" stroke="url(#paint0_linear)"/>
<path d="M28.9734 14.0272C28.4258 14.3099 27.7869 14.4042 27.1481 14.5927C27.4219 14.4985 27.8782 14.0272 28.0608 13.7444C28.3346 13.3674 28.5171 13.0846 28.6084 12.6134V12.5191H28.5171C27.8782 12.8961 27.1481 13.1789 26.4179 13.3674C26.3266 13.3674 26.3266 13.3674 26.2354 13.3674C26.1441 13.2731 26.1441 13.2731 26.0528 13.1789C25.779 12.8961 25.4139 12.7076 25.0489 12.5191C24.5925 12.3306 24.0449 12.2363 23.4973 12.2363C22.9497 12.2363 22.4933 12.4248 22.037 12.7076C21.5806 12.9904 21.1243 13.2731 20.8505 13.7444C20.4854 14.2157 20.3029 14.687 20.1203 15.2525C20.0291 15.818 20.0291 16.2893 20.1203 16.8548C20.1203 16.9491 20.1203 16.9491 20.0291 16.9491C17.1084 16.4778 14.7354 15.441 12.8188 13.1789C12.7275 13.0846 12.7275 13.0846 12.6362 13.1789C11.8148 14.4985 12.1799 16.6663 13.2751 17.7031C13.4577 17.7974 13.5489 17.9859 13.7315 18.0802C13.6402 18.0802 13.0013 17.9859 12.3624 17.7031C12.2712 17.6089 12.2712 17.7031 12.2712 17.7974C12.2712 17.9859 12.2712 18.0802 12.2712 18.2687C12.4537 19.5882 13.3664 20.8136 14.5529 21.2848C14.7354 21.3791 14.8267 21.3791 15.0092 21.4733C14.7354 21.5676 14.4616 21.5676 13.6402 21.4733C13.5489 21.4733 13.4577 21.4733 13.5489 21.5676C14.1878 23.2642 15.4656 23.7355 16.4696 24.0182C16.5608 24.0182 16.7434 24.0182 16.8346 24.1125C16.4696 24.5838 15.3743 24.9608 14.8267 25.1493C13.914 25.5263 12.8188 25.6206 11.8148 25.5263C11.6323 25.5263 11.6323 25.5263 11.541 25.5263C11.541 25.5263 11.541 25.6206 11.6323 25.6206C11.8148 25.7148 12.0886 25.9033 12.2712 25.9976C12.9101 26.3746 13.5489 26.6574 14.2791 26.8459C17.8386 27.8827 21.9457 27.1287 24.5925 24.3953C26.6917 22.2274 27.4219 19.2112 27.4219 16.195C27.4219 16.1008 27.5131 16.0065 27.6044 15.9123C28.152 15.441 28.6084 14.9697 28.9734 14.4042C28.9734 14.2157 28.9734 14.1214 28.9734 14.0272C28.9734 13.9329 28.9734 14.0272 28.9734 14.0272Z" fill="white"/>
<defs>
<linearGradient id="paint0_linear" x1="0.5" y1="19.7904" x2="38.2703" y2="19.7904" gradientUnits="userSpaceOnUse">
<stop stop-color="#00D09C"/>
<stop offset="1" stop-color="#5367FC"/>
</linearGradient>
</defs>
</svg>
